<?xml version="1.0" encoding="UTF-8"?>
<svg xmlns="http://www.w3.org/2000/svg" version="1.1" viewBox="0 0 2213.76 453.54">
  <defs>
    <style>
      .cls-1 {
        fill: #fff;
      }

      .cls-1, .cls-2, .cls-3, .cls-4, .cls-5 {
        stroke-width: 0px;
      }

      .cls-1, .cls-2, .cls-4 {
        fill-rule: evenodd;
      }

      .cls-2, .cls-3 {
        fill: #181716;
      }

      .cls-4 {
        fill: #e3000b;
      }

      .cls-5 {
        fill: #00963e;
      }
    </style>
  </defs>
  <g id="NRW_W_CMYK">
    <path id="Weiß" class="cls-1" d="M1999.08,451.41c-117.35,0-212.54-95.67-212.54-213.65V2.13h425.09v235.62c0,117.98-95.19,213.65-212.54,213.65Z"/>
    <path id="Schwarz" class="cls-2" d="M2205.76,237.76c0,114.77-92.6,207.79-206.68,207.79s-206.68-93.02-206.68-207.79V8h413.35v229.76ZM2213.76,0v237.76c0,119.15-96.14,215.79-214.68,215.79s-214.68-96.63-214.68-215.79V0h429.35Z"/>
    <path id="Grün" class="cls-5" d="M1993.75,95.25v142.51c0,71.87-38.25,134.71-95.34,169.15-29.07-17.54-53.26-42.45-70-72.16,10.37-10.81,20.52-21.77,28.44-34.6,16.1-26.12,18.5-59.18,37.58-83.51,17.67-22.53,48.85-28.77,65.46-50.93,15.84-21.13,20.69-47.86,33.86-70.47ZM1803.07,18.67h162.15c-6.04,6.63-11.9,13.4-17.29,20.58-20.44,27.28-18.42,65.35-39.06,92.03-18.04,23.33-48.61,29.44-65.5,50.98-19.14,24.43-20.38,58.01-38.41,83-1.25-8.99-1.89-18.17-1.89-27.51V18.67ZM1999.08,401.43c-7.3,0-13.22-5.92-13.22-13.22s5.92-13.22,13.22-13.22,13.22,5.92,13.22,13.22-5.92,13.22-13.22,13.22ZM2041.42,393.52c2.62,2.84,4.43,6.36,5.21,10.14-2.84,2.59-6.35,4.37-10.12,5.13.52-3.12.14-6.24-1.61-8.98,2.94-1.21,5.08-3.48,6.52-6.29ZM2017.22,349.58c3.51-1.62,7.41-2.25,11.25-1.82,1.59,3.5,2.19,7.39,1.75,11.21-2.81-1.46-5.89-2.06-9.04-1.25-.24-3.17-1.74-5.9-3.96-8.14ZM1967.95,359.02c-.45-3.84.15-7.74,1.75-11.27,3.82-.43,7.7.2,11.2,1.8-2.26,2.23-3.78,4.97-3.98,8.21-3.09-.75-6.15-.17-8.97,1.25ZM1961.65,408.79c-3.77-.76-7.28-2.54-10.12-5.13.78-3.77,2.57-7.27,5.17-10.1,1.41,2.81,3.53,5.1,6.52,6.3-1.71,2.73-2.09,5.82-1.57,8.93ZM2007.12,430.12c-1.89,3.37-4.67,6.17-8.03,8.09-3.34-1.9-6.12-4.69-8.01-8.04,3.13-.47,5.97-1.8,8.04-4.3,2.06,2.42,4.88,3.75,8,4.25Z"/>
    <path id="Rot" class="cls-4" d="M2019.76,388.21c0,11.43-9.26,20.69-20.69,20.69s-20.69-9.26-20.69-20.69,9.26-20.69,20.69-20.69,20.69,9.26,20.69,20.69ZM1975.39,420.81c-8.69-6.31-11.94-17.27-3.58-21.5.56-1.47,0-3.2-1.32-4.06-9.25,1.49-13.06-9.29-9.74-19.5,3.32-10.21,12.73-16.69,19.34-10.05,1.58.08,3.04-.98,3.45-2.51-4.28-8.34,4.8-15.29,15.54-15.29,10.74,0,19.81,6.96,15.53,15.29.41,1.52,1.88,2.59,3.45,2.51,6.61-6.64,16.02-.16,19.34,10.06,3.32,10.21-.49,20.99-9.74,19.5-1.32.86-1.88,2.58-1.32,4.06,8.36,4.23,5.11,15.19-3.59,21.5-8.69,6.31-20.11,6.02-21.55-3.24-1.23-.99-3.04-.99-4.27,0-1.44,9.26-12.87,9.55-21.56,3.23ZM2058.71,279.33h37.22c0-15.34-11.39-25.4-11.39-43.35,0-11.74,4.61-19.1,16.86-22.64,3.06,2.78,5.82,6.31,8.08,11.15.11,15.71,2.73,26.5,6.48,34.3,0,0-8.46,6.44-8.46,30.12,0,0-33.58-1.54-37.61,2.84h-5.29v7.58c-8.27,2.72-15.97,2.81-21.48.28,0-6.74,7.23-12.87,7.23-12.87.75.03,1.37.12,2.02.12,3.55,0,6.43-2.88,6.43-6.42,0-.38-.03-.76-.1-1.12ZM2017.52,158.73c-4.01-3.96-4.04-12.46-4.01-13.97.57-.3,1.1-.68,1.57-1.16,2.51-2.51,2.51-6.58,0-9.09-.38-.38-.8-.7-1.24-.97,3.62-10.68,10.68-16.23,13.54-31.39h11.05l26.27,20.61c-4.68,5.28-8.56,11.46-10.36,19.33l-13.99-26.03c-8.98,0-14.48,7.43-9.83,18.51l-3.38,3.4,5.2,5.51c-3.9,7.71-9.1,13.08-14.82,15.25ZM2125.51,343.86c0-6.61,6.49-12.32,7.14-12.87.32.05.66.08.99.08,3.55,0,6.42-2.88,6.42-6.43,0-.97-.21-1.89-.6-2.71,17.62-31.44,12.95-36.01-14.35-58.31-7.47-6.11-9.78-23.96-9.78-40.37-10.85-25.36-40.19-22.42-51.25-47.31l12.82.7c6.58.36,11.19-3.62,13.38-6.89,2.05-3.05.03-7.22-3.27-6.1-1.49,4.11-5.51,7.37-9.95,7.13l-31.84-1.72c-6.33,6.3-4.97,15.41,6.11,20.17v4.75h7.6c2.71,8.59,2.8,16.29.29,21.48-6.06,0-12.89-7.23-12.89-7.23.02-.75.12-1.38.12-2.02,0-3.55-2.88-6.42-6.42-6.42-.5,0-.99.06-1.46.17-3.61-5.73-3.03-17.99-12.37-31.63l7.07-8.6,25.87-8.7c.75-30.33,35.6-37.34,40.95-59.49,7.46,0,12.12-2.21,15.73-9.29.94-1.83.5-6.15-4.17-5.22-2.6,7.35-6.05,8.64-10.87,8.64-12.56,0-22.69-2.11-24.38,3.48-2.84,9.44-15.93,3.52-15.93,3.52l3.2-2.33c.26.03.53.05.81.05,2.42,0,4.39-1.28,4.39-2.85s-1.96-2.85-4.39-2.85c-2.42,0-4.39,1.28-4.39,2.85,0,.1,0,.19.02.29l-3,2.18c-3.87,0-4.55-3.03-4.65-4.47,1.53,0,2.68-1.27,2.68-2.84s-1.15-2.84-2.56-2.84c.06-1.16.71-3.55,3.48-5.75l22.33-17.73c3.24-2.57,9.69-6.02,12.56-7.51-.35-4.86,1.49-11.27,1.49-15.81,0,0,6.57,2.81,9.25,9.2,1.99,4.72.73,7.66-.15,9.97,1.21,1.9,6.28,1.92,6.88-2.96.23-1.92.2-4.19-.53-6.81,8.69.94,20.93,3.92,39.74,2.02-3.81,4.41-8.71,7.61-13.87,9.91,9.37,2.22,20.9,6.83,26.66,16.42-4.51,2.3-9.45,3.8-14.35,4.75,8.99,7.83,12.51,19.55,20.21,24.29-9.98,2.77-18.2,1.99-24.68-.21,3.13,6.4,7.98,13.85,14.63,17.26-9.05,4.07-17.86,6.4-24.66,7.72,2.13,3.56,5.26,7.95,9.08,10.85-7.03.26-12.68,2.22-15.96,3.68-.59,8.21-2.85,25.26,17.97,47.24,27.75,20.98,34.67,36.88,12.8,65.08,0,14.29,2.39,20.04,9.8,34.64-.64,1.43-3.67,8.29-6.7,16.69-3.32,9.2-5.81,19.31-5.81,28.19,0,0-4.71-.03-4.71,4.98v7.6c-8.63,2.69-17.4,2.79-22.52.31ZM2078.11,65.52c3.01,5.01,10.64,0,10.64,0,0,0-9.25-8.77-10.64,0ZM2187.21,145.25c0,12.78-11.56,18.31-11.56,27.86,0,11.3,11.16,16.75,11.16,27.65s-8.86,13.17-14.6,11.23c0,0,3.58-.87,3.58-5.26,0-13.35-28.59-12.65-28.59-33.62,0-10.96,7.78-19.69,7.78-26.16,0-3.29-2.48-7.92-6.71-9.39,5.85-4.15,15.68-1.61,18.21,4.75,2.03-5.29,3.89-13.16,1.5-20.81,13.44,5.15,19.19,13.9,19.22,23.69v.06ZM2004.42,18.67h190.68v219.09c0,71.87-38.25,134.71-95.34,169.15-57.09-34.44-95.34-97.28-95.34-169.15V18.67Z"/>
  </g>
  <g id="Ebene_4" data-name="Ebene 4">
    <g>
      <path class="cls-3" d="M4.4,13.3h16.5l19.8,58.7h.2L60.1,13.3h16.8v74h-12.1v-55.2h-.2c-1.1,5.1-2.7,9.9-4.4,15.1l-14.4,40.1h-11.1l-14.3-40.1c-1.8-5.3-2.9-8.5-4.5-15.6h-.2v55.7H4.4V13.3Z"/>
      <path class="cls-3" d="M92.46,14.3h12.6v10.7h-12.6v-10.7ZM92.56,34.2h12.4v53.1h-12.4v-53.1Z"/>
      <path class="cls-3" d="M118.97,34.2h12.4v7.2c3.4-3.6,9.8-8.2,19.4-8.2s15.3,5.5,15.3,16v38.1h-12.4v-35c0-5.9-2.5-8.6-7.9-8.6s-9.9,2.8-14.4,6.9v36.7h-12.4v-53.1Z"/>
      <path class="cls-3" d="M179.73,14.3h12.6v10.7h-12.6v-10.7ZM179.83,34.2h12.4v53.1h-12.4v-53.1Z"/>
      <path class="cls-3" d="M202.07,80.01l6.7-7.5c4,3.4,9.9,6.3,16.7,6.3s10.6-1.7,10.6-6.1-5.4-5.6-11.8-7.1c-9.1-2.1-20-4.5-20-16.8,0-9.3,8-15.6,19.7-15.6,10.1,0,16.3,2.9,21.8,7.5l-5.9,8c-3.9-3.2-10.2-5.8-15-5.8-6.8,0-9,2.4-9,5.4,0,4.3,5.3,5.6,11.6,7,9.1,2,20.2,4.3,20.2,16.7,0,11.2-10.1,16.4-22.2,16.4-9.8,0-18.6-3.5-23.4-8.4Z"/>
      <path class="cls-3" d="M263.42,73.41v-29.4h-9.2v-9.8h9.2V15.7h12.3v18.5h13.7v9.8h-13.7v26.3c0,5.7,1.7,8,7.8,8,1.8,0,4.1-.3,5.3-.7v9.7c-1.3.3-5.9.7-9,.7-13.5,0-16.4-5-16.4-14.6Z"/>
      <path class="cls-3" d="M295.6,60.8c0-20.2,14.3-27.6,25.3-27.6,11.9,0,23.3,7.1,23.3,28.7v2.9h-36.3c.5,9.6,6.4,13.8,14.2,13.8,6.9,0,10.9-2.3,14.9-6.2l6.5,6.4c-5.5,6.1-12.8,9.6-22.3,9.6-13.3,0-25.6-8.1-25.6-27.6ZM332.9,55.6c-.7-8.1-4.7-12.4-12.1-12.4-6,0-11.5,3.4-12.7,12.4h24.8Z"/>
      <path class="cls-3" d="M355.5,34.2h12.3v8.7h.2c3.3-5.3,9-9.7,19.1-9.7h.8l-.4,11.3c-.6-.1-2.6-.2-3.3-.2-7.9,0-12.9,3.7-16.4,9.4v33.6h-12.3v-53.1Z"/>
      <path class="cls-3" d="M396.95,14.3h12.6v10.7h-12.6v-10.7ZM397.05,34.2h12.4v53.1h-12.4v-53.1Z"/>
      <path class="cls-3" d="M423.04,72.31v-38.1h12.4v35.2c0,5.9,2.5,8.6,7.9,8.6s9.9-2.8,14.4-6.9v-36.9h12.4v53.1h-12.4v-7.2c-3.4,3.6-9.8,8.2-19.4,8.2s-15.3-5.5-15.3-16Z"/>
      <path class="cls-3" d="M484.03,34.2h12.3v7.3c4.1-4.5,10.1-8.3,18.2-8.3,8.9,0,12.4,3.5,14.5,8.7,4.2-4.6,10.5-8.7,18.6-8.7,10.8,0,15.5,6.5,15.5,16v38.1h-12.3v-35c0-5.9-1.7-8.6-7.5-8.6-5,0-9,2.8-13.6,6.9v36.7h-12.3v-35c0-5.9-1.7-8.6-7.5-8.6-4.9,0-9,2.8-13.6,6.9v36.7h-12.3v-53.1Z"/>
      <path class="cls-3" d="M611.13,44h-9.2v-9.8h9.2v-5.4c0-8.9,3.7-15.8,17.2-15.8,2.3,0,6.4.4,7.3.5v9.5c-.8-.2-2.8-.4-4.2-.4-4.4,0-8,1.2-8,6.9v4.7h11.6v9.8h-11.6v43.3h-12.3v-43.3Z"/>
      <path class="cls-3" d="M643.73,72.31v-38.1h12.4v35.2c0,5.9,2.5,8.6,7.9,8.6s9.9-2.8,14.4-6.9v-36.9h12.4v53.1h-12.4v-7.2c-3.4,3.6-9.8,8.2-19.4,8.2s-15.3-5.5-15.3-16ZM651.83,16.8h11.2v12.1h-11.2v-12.1ZM671.53,16.8h11.3v12.1h-11.3v-12.1Z"/>
      <path class="cls-3" d="M704.72,34.2h12.3v8.7h.2c3.3-5.3,9-9.7,19.1-9.7h.8l-.4,11.3c-.6-.1-2.6-.2-3.3-.2-7.9,0-12.9,3.7-16.4,9.4v33.6h-12.3v-53.1Z"/>
      <path class="cls-3" d="M4.4,133.3h12.5v34.4l29.1-34.4h14.8l-25.2,28.5,28.3,45.5h-14.3l-22.2-35.9-10.5,11.6v24.3H4.4v-74Z"/>
      <path class="cls-3" d="M70.61,192.31v-38.1h12.4v35.2c0,5.9,2.5,8.6,7.9,8.6s9.9-2.8,14.4-6.9v-36.9h12.4v53.1h-12.4v-7.2c-3.4,3.6-9.8,8.2-19.4,8.2s-15.3-5.5-15.3-16Z"/>
      <path class="cls-3" d="M131.82,133.3h12.4v74h-12.4v-74Z"/>
      <path class="cls-3" d="M162.51,193.41v-29.4h-9.2v-9.8h9.2v-18.5h12.3v18.5h13.7v9.8h-13.7v26.3c0,5.7,1.7,8,7.8,8,1.8,0,4.1-.3,5.3-.7v9.7c-1.3.3-5.9.7-9,.7-13.5,0-16.4-5-16.4-14.6Z"/>
      <path class="cls-3" d="M197.75,192.31v-38.1h12.4v35.2c0,5.9,2.5,8.6,7.9,8.6s9.9-2.8,14.4-6.9v-36.9h12.4v53.1h-12.4v-7.2c-3.4,3.6-9.8,8.2-19.4,8.2s-15.3-5.5-15.3-16Z"/>
      <path class="cls-3" d="M258.74,154.2h12.3v8.7h.2c3.3-5.3,9-9.7,19.1-9.7h.8l-.4,11.3c-.6-.1-2.6-.2-3.3-.2-7.9,0-12.9,3.7-16.4,9.4v33.6h-12.3v-53.1Z"/>
      <path class="cls-3" d="M329.44,192.31v-38.1h12.4v35.2c0,5.9,2.5,8.6,7.9,8.6s9.9-2.8,14.4-6.9v-36.9h12.4v53.1h-12.4v-7.2c-3.4,3.6-9.8,8.2-19.4,8.2s-15.3-5.5-15.3-16Z"/>
      <path class="cls-3" d="M390.43,154.2h12.4v7.2c3.4-3.6,9.8-8.2,19.4-8.2s15.3,5.5,15.3,16v38.1h-12.4v-35c0-5.9-2.5-8.6-7.9-8.6s-9.9,2.8-14.4,6.9v36.7h-12.4v-53.1Z"/>
      <path class="cls-3" d="M448.61,180.9c0-18.4,9.1-27.7,22.7-27.7,5.7,0,11.3,2.3,15.2,6.7v-26.6h12.3v61c0,6.4.4,10.3,1.6,13h-12.7c-.7-1.5-1.2-4.5-1.2-7.2-3.9,4.5-9,8-16.9,8-12.1,0-21-8.8-21-27.2ZM486.51,191.31v-21.3c-3.3-4.3-8.1-6.6-12.5-6.6-9.3,0-13.1,6-13.1,17.8s4.8,16.8,12.7,16.8c5.1,0,10-3.2,12.9-6.7Z"/>
      <path class="cls-3" d="M538.7,133.3h12.6l9.4,38.3c1.5,5.9,2.9,11.4,3.9,17.2h.2c1-5.7,2.3-11.2,3.8-17.1l8.9-38.4h12l9.2,38.6c1.6,6.3,2.8,10.7,3.9,16.9h.2c1.1-6.4,2.2-10.3,3.6-16.6l9.2-38.9h11.7l-19.5,74h-10.9l-13.3-56.7h-.2l-14,56.7h-11l-19.7-74Z"/>
      <path class="cls-3" d="M637.39,134.3h12.6v10.7h-12.6v-10.7ZM637.49,154.2h12.4v53.1h-12.4v-53.1Z"/>
      <path class="cls-3" d="M659.73,200.01l6.7-7.5c4,3.4,9.9,6.3,16.7,6.3s10.6-1.7,10.6-6.1-5.4-5.6-11.8-7.1c-9.1-2.1-20-4.5-20-16.8,0-9.3,8-15.6,19.7-15.6,10.1,0,16.3,2.9,21.8,7.5l-5.9,8c-3.9-3.2-10.2-5.8-15-5.8-6.8,0-9,2.4-9,5.4,0,4.3,5.3,5.6,11.6,7,9.1,2,20.2,4.3,20.2,16.7,0,11.2-10.1,16.4-22.2,16.4-9.8,0-18.6-3.5-23.4-8.4Z"/>
      <path class="cls-3" d="M712.66,200.01l6.7-7.5c4,3.4,9.9,6.3,16.7,6.3s10.6-1.7,10.6-6.1-5.4-5.6-11.8-7.1c-9.1-2.1-20-4.5-20-16.8,0-9.3,8-15.6,19.7-15.6,10.1,0,16.3,2.9,21.8,7.5l-5.9,8c-3.9-3.2-10.2-5.8-15-5.8-6.8,0-9,2.4-9,5.4,0,4.3,5.3,5.6,11.6,7,9.1,2,20.2,4.3,20.2,16.7,0,11.2-10.1,16.4-22.2,16.4-9.8,0-18.6-3.5-23.4-8.4Z"/>
      <path class="cls-3" d="M766.37,180.8c0-20.2,14.3-27.6,25.3-27.6,11.9,0,23.3,7.1,23.3,28.7v2.9h-36.3c.5,9.6,6.4,13.8,14.2,13.8,6.9,0,10.9-2.3,14.9-6.2l6.5,6.4c-5.5,6.1-12.8,9.6-22.3,9.6-13.3,0-25.6-8.1-25.6-27.6ZM803.67,175.6c-.7-8.1-4.7-12.4-12.1-12.4-6,0-11.5,3.4-12.7,12.4h24.8Z"/>
      <path class="cls-3" d="M826.27,154.2h12.4v7.2c3.4-3.6,9.8-8.2,19.4-8.2s15.3,5.5,15.3,16v38.1h-12.4v-35c0-5.9-2.5-8.6-7.9-8.6s-9.9,2.8-14.4,6.9v36.7h-12.4v-53.1Z"/>
      <path class="cls-3" d="M882.77,200.01l6.7-7.5c4,3.4,9.9,6.3,16.7,6.3s10.6-1.7,10.6-6.1-5.4-5.6-11.8-7.1c-9.1-2.1-20-4.5-20-16.8,0-9.3,8-15.6,19.7-15.6,10.1,0,16.3,2.9,21.8,7.5l-5.9,8c-3.9-3.2-10.2-5.8-15-5.8-6.8,0-9,2.4-9,5.4,0,4.3,5.3,5.6,11.6,7,9.1,2,20.2,4.3,20.2,16.7,0,11.2-10.1,16.4-22.2,16.4-9.8,0-18.6-3.5-23.4-8.4Z"/>
      <path class="cls-3" d="M936.48,180.8c0-20.3,13.7-27.6,25.5-27.6,13.2,0,18.8,7.3,22,15.5l-10.4,3.7c-2.1-6-5.9-8.9-11.8-8.9-7,0-12.9,4.6-12.9,17.3,0,11.3,4.6,17.5,12.7,17.5,5.6,0,9.5-1.7,12.4-9.2l10.2,3.7c-3.8,8.5-10.1,15.6-22.9,15.6s-24.8-8.2-24.8-27.6Z"/>
      <path class="cls-3" d="M994.07,133.3h12.4v28.1c3.4-3.6,9.8-8.2,19.4-8.2s15.3,5.5,15.3,16v38.1h-12.4v-35c0-5.9-2.5-8.6-7.9-8.6s-9.9,2.8-14.4,6.9v36.7h-12.4v-74Z"/>
      <path class="cls-3" d="M1051.28,194.51c0-11.5,9.8-19.2,34.6-22v-1.6c0-5.3-2.8-7.6-8.7-7.6-7.4,0-13.4,3.6-17.9,7.2l-6-7.7c5.7-5.2,14.6-9.6,25.6-9.6,14.2,0,19.1,6.8,19.1,19.2v21.9c0,6.4.4,10.3,1.5,13h-12.4c-.7-2.2-1.2-3.8-1.2-6.8-5.4,5.5-11.7,7.6-19.6,7.6-8.6,0-15-4.8-15-13.6ZM1085.88,192.51v-11.7c-14.7,2-22.5,5.6-22.5,11.4,0,4.2,2.9,6.4,7.4,6.4,6.3,0,11.2-2.4,15.1-6.1Z"/>
      <path class="cls-3" d="M1115.75,164h-9.2v-9.8h9.2v-5.4c0-8.9,3.7-15.8,17.2-15.8,2.3,0,6.4.4,7.3.5v9.5c-.8-.2-2.8-.4-4.2-.4-4.4,0-8,1.2-8,6.9v4.7h11.6v9.8h-11.6v43.3h-12.3v-43.3Z"/>
      <path class="cls-3" d="M1155.57,193.41v-29.4h-9.2v-9.8h9.2v-18.5h12.3v18.5h13.7v9.8h-13.7v26.3c0,5.7,1.7,8,7.8,8,1.8,0,4.1-.3,5.3-.7v9.7c-1.3.3-5.9.7-9,.7-13.5,0-16.4-5-16.4-14.6Z"/>
      <path class="cls-3" d="M0,300.9c0-18.4,9.1-27.7,22.7-27.7,5.7,0,11.3,2.3,15.2,6.7v-26.6h12.3v61c0,6.4.4,10.3,1.6,13h-12.7c-.7-1.5-1.2-4.5-1.2-7.2-3.9,4.5-9,8-16.9,8-12.1,0-21-8.8-21-27.2ZM37.9,311.3v-21.3c-3.3-4.3-8.1-6.6-12.5-6.6-9.3,0-13.1,6-13.1,17.8s4.8,16.8,12.7,16.8c5.1,0,10-3.2,12.9-6.7Z"/>
      <path class="cls-3" d="M61.2,300.8c0-20.2,14.3-27.6,25.3-27.6,11.9,0,23.3,7.1,23.3,28.7v2.9h-36.3c.5,9.6,6.4,13.8,14.2,13.8,6.9,0,10.9-2.3,14.9-6.2l6.5,6.4c-5.5,6.1-12.8,9.6-22.3,9.6-13.3,0-25.6-8.1-25.6-27.6ZM98.5,295.6c-.7-8.1-4.7-12.4-12.1-12.4-6,0-11.5,3.4-12.7,12.4h24.8Z"/>
      <path class="cls-3" d="M117.5,320.01l6.7-7.5c4,3.4,9.9,6.3,16.7,6.3s10.6-1.7,10.6-6.1-5.4-5.6-11.8-7.1c-9.1-2.1-20-4.5-20-16.8,0-9.3,8-15.6,19.7-15.6,10.1,0,16.3,2.9,21.8,7.5l-5.9,8c-3.9-3.2-10.2-5.8-15-5.8-6.8,0-9,2.4-9,5.4,0,4.3,5.3,5.6,11.6,7,9.1,2,20.2,4.3,20.2,16.7,0,11.2-10.1,16.4-22.2,16.4-9.8,0-18.6-3.5-23.4-8.4Z"/>
      <path class="cls-3" d="M205.4,253.3h12.5v62.6h34.1v11.4h-46.6v-74Z"/>
      <path class="cls-3" d="M260.22,314.51c0-11.5,9.8-19.2,34.6-22v-1.6c0-5.3-2.8-7.6-8.7-7.6-7.4,0-13.4,3.6-17.9,7.2l-6-7.7c5.7-5.2,14.6-9.6,25.6-9.6,14.2,0,19.1,6.8,19.1,19.2v21.9c0,6.4.4,10.3,1.5,13h-12.4c-.7-2.2-1.2-3.8-1.2-6.8-5.4,5.5-11.7,7.6-19.6,7.6-8.6,0-15-4.8-15-13.6ZM294.82,312.51v-11.7c-14.7,2-22.5,5.6-22.5,11.4,0,4.2,2.9,6.4,7.4,6.4,6.3,0,11.2-2.4,15.1-6.1Z"/>
      <path class="cls-3" d="M320.43,274.2h12.4v7.2c3.4-3.6,9.8-8.2,19.4-8.2s15.3,5.5,15.3,16v38.1h-12.4v-35c0-5.9-2.5-8.6-7.9-8.6s-9.9,2.8-14.4,6.9v36.7h-12.4v-53.1Z"/>
      <path class="cls-3" d="M378.61,300.9c0-18.4,9.1-27.7,22.7-27.7,5.7,0,11.3,2.3,15.2,6.7v-26.6h12.3v61c0,6.4.4,10.3,1.6,13h-12.7c-.7-1.5-1.2-4.5-1.2-7.2-3.9,4.5-9,8-16.9,8-12.1,0-21-8.8-21-27.2ZM416.52,311.3v-21.3c-3.3-4.3-8.1-6.6-12.5-6.6-9.3,0-13.1,6-13.1,17.8s4.8,16.8,12.7,16.8c5.1,0,10-3.2,12.9-6.7Z"/>
      <path class="cls-3" d="M439.81,300.8c0-20.2,14.3-27.6,25.3-27.6,11.9,0,23.3,7.1,23.3,28.7v2.9h-36.3c.5,9.6,6.4,13.8,14.2,13.8,6.9,0,10.9-2.3,14.9-6.2l6.5,6.4c-5.5,6.1-12.8,9.6-22.3,9.6-13.3,0-25.6-8.1-25.6-27.6ZM477.12,295.6c-.7-8.1-4.7-12.4-12.1-12.4-6,0-11.5,3.4-12.7,12.4h24.8Z"/>
      <path class="cls-3" d="M496.11,320.01l6.7-7.5c4,3.4,9.9,6.3,16.7,6.3s10.6-1.7,10.6-6.1-5.4-5.6-11.8-7.1c-9.1-2.1-20-4.5-20-16.8,0-9.3,8-15.6,19.7-15.6,10.1,0,16.3,2.9,21.8,7.5l-5.9,8c-3.9-3.2-10.2-5.8-15-5.8-6.8,0-9,2.4-9,5.4,0,4.3,5.3,5.6,11.6,7,9.1,2,20.2,4.3,20.2,16.7,0,11.2-10.1,16.4-22.2,16.4-9.8,0-18.6-3.5-23.4-8.4Z"/>
      <path class="cls-3" d="M584.01,253.3h12.7l35,52.8h.2v-52.8h11.6v74h-11.4l-36.3-53.9h-.2v53.9h-11.6v-74Z"/>
      <path class="cls-3" d="M656.12,300.8c0-19.6,12.9-27.6,25.9-27.6s25.9,8,25.9,27.6-13,27.6-25.9,27.6-25.9-8.2-25.9-27.6ZM695.52,300.8c0-9.9-4.2-17.1-13.5-17.1s-13.5,6.4-13.5,17.1c0,10.1,4.1,17.3,13.5,17.3,8.9,0,13.5-6.4,13.5-17.3Z"/>
      <path class="cls-3" d="M719.05,274.2h12.3v8.7h.2c3.3-5.3,9-9.7,19.1-9.7h.8l-.4,11.3c-.6-.1-2.6-.2-3.3-.2-7.9,0-12.9,3.7-16.4,9.4v33.6h-12.3v-53.1Z"/>
      <path class="cls-3" d="M757.37,300.9c0-18.4,9.1-27.7,22.7-27.7,5.7,0,11.3,2.3,15.2,6.7v-26.6h12.3v61c0,6.4.4,10.3,1.6,13h-12.7c-.7-1.5-1.2-4.5-1.2-7.2-3.9,4.5-9,8-16.9,8-12.1,0-21-8.8-21-27.2ZM795.27,311.3v-21.3c-3.3-4.3-8.1-6.6-12.5-6.6-9.3,0-13.1,6-13.1,17.8s4.8,16.8,12.7,16.8c5.1,0,10-3.2,12.9-6.7Z"/>
      <path class="cls-3" d="M821.68,274.2h12.3v8.7h.2c3.3-5.3,9-9.7,19.1-9.7h.8l-.4,11.3c-.6-.1-2.6-.2-3.3-.2-7.9,0-12.9,3.7-16.4,9.4v33.6h-12.3v-53.1Z"/>
      <path class="cls-3" d="M863.01,253.3h12.4v28.1c3.4-3.6,9.8-8.2,19.4-8.2s15.3,5.5,15.3,16v38.1h-12.4v-35c0-5.9-2.5-8.6-7.9-8.6s-9.9,2.8-14.4,6.9v36.7h-12.4v-74Z"/>
      <path class="cls-3" d="M920.97,300.8c0-20.2,14.3-27.6,25.3-27.6,11.9,0,23.3,7.1,23.3,28.7v2.9h-36.3c.5,9.6,6.4,13.8,14.2,13.8,6.9,0,10.9-2.3,14.9-6.2l6.5,6.4c-5.5,6.1-12.8,9.6-22.3,9.6-13.3,0-25.6-8.1-25.6-27.6ZM958.27,295.6c-.7-8.1-4.7-12.4-12.1-12.4-6,0-11.5,3.4-12.7,12.4h24.8Z"/>
      <path class="cls-3" d="M980.87,254.3h12.6v10.7h-12.6v-10.7ZM980.97,274.2h12.4v53.1h-12.4v-53.1Z"/>
      <path class="cls-3" d="M1007.38,274.2h12.4v7.2c3.4-3.6,9.8-8.2,19.4-8.2s15.3,5.5,15.3,16v38.1h-12.4v-35c0-5.9-2.5-8.6-7.9-8.6s-9.9,2.8-14.4,6.9v36.7h-12.4v-53.1Z"/>
      <path class="cls-3" d="M1066.7,291.5h24.7v8.8h-24.7v-8.8Z"/>
      <path class="cls-3" d="M1095.88,253.3h12.6l9.4,38.3c1.5,5.9,2.9,11.4,3.9,17.2h.2c1-5.7,2.3-11.2,3.8-17.1l8.9-38.4h12l9.2,38.6c1.6,6.3,2.8,10.7,3.9,16.9h.2c1.1-6.4,2.2-10.3,3.6-16.6l9.2-38.9h11.7l-19.5,74h-10.9l-13.3-56.7h-.2l-14,56.7h-11l-19.7-74Z"/>
      <path class="cls-3" d="M1187.33,300.8c0-20.2,14.3-27.6,25.3-27.6,11.9,0,23.3,7.1,23.3,28.7v2.9h-36.3c.5,9.6,6.4,13.8,14.2,13.8,6.9,0,10.9-2.3,14.9-6.2l6.5,6.4c-5.5,6.1-12.8,9.6-22.3,9.6-13.3,0-25.6-8.1-25.6-27.6ZM1224.63,295.6c-.7-8.1-4.7-12.4-12.1-12.4-6,0-11.5,3.4-12.7,12.4h24.8Z"/>
      <path class="cls-3" d="M1243.63,320.01l6.7-7.5c4,3.4,9.9,6.3,16.7,6.3s10.6-1.7,10.6-6.1-5.4-5.6-11.8-7.1c-9.1-2.1-20-4.5-20-16.8,0-9.3,8-15.6,19.7-15.6,10.1,0,16.3,2.9,21.8,7.5l-5.9,8c-3.9-3.2-10.2-5.8-15-5.8-6.8,0-9,2.4-9,5.4,0,4.3,5.3,5.6,11.6,7,9.1,2,20.2,4.3,20.2,16.7,0,11.2-10.1,16.4-22.2,16.4-9.8,0-18.6-3.5-23.4-8.4Z"/>
      <path class="cls-3" d="M1304.98,313.41v-29.4h-9.2v-9.8h9.2v-18.5h12.3v18.5h13.7v9.8h-13.7v26.3c0,5.7,1.7,8,7.8,8,1.8,0,4.1-.3,5.3-.7v9.7c-1.3.3-5.9.7-9,.7-13.5,0-16.4-5-16.4-14.6Z"/>
      <path class="cls-3" d="M1347.62,284h-9.2v-9.8h9.2v-5.4c0-8.9,3.7-15.8,17.2-15.8,2.3,0,6.4.4,7.3.5v9.5c-.8-.2-2.8-.4-4.2-.4-4.4,0-8,1.2-8,6.9v4.7h11.6v9.8h-11.6v43.3h-12.3v-43.3Z"/>
      <path class="cls-3" d="M1377.86,314.51c0-11.5,9.8-19.2,34.6-22v-1.6c0-5.3-2.8-7.6-8.7-7.6-7.4,0-13.4,3.6-17.9,7.2l-6-7.7c5.7-5.2,14.6-9.6,25.6-9.6,14.2,0,19.1,6.8,19.1,19.2v21.9c0,6.4.4,10.3,1.5,13h-12.4c-.7-2.2-1.2-3.8-1.2-6.8-5.4,5.5-11.7,7.6-19.6,7.6-8.6,0-15-4.8-15-13.6ZM1412.46,312.51v-11.7c-14.7,2-22.5,5.6-22.5,11.4,0,4.2,2.9,6.4,7.4,6.4,6.3,0,11.2-2.4,15.1-6.1Z"/>
      <path class="cls-3" d="M1438.39,253.3h12.4v74h-12.4v-74Z"/>
      <path class="cls-3" d="M1462.15,300.8c0-20.2,14.3-27.6,25.3-27.6,11.9,0,23.3,7.1,23.3,28.7v2.9h-36.3c.5,9.6,6.4,13.8,14.2,13.8,6.9,0,10.9-2.3,14.9-6.2l6.5,6.4c-5.5,6.1-12.8,9.6-22.3,9.6-13.3,0-25.6-8.1-25.6-27.6ZM1499.45,295.6c-.7-8.1-4.7-12.4-12.1-12.4-6,0-11.5,3.4-12.7,12.4h24.8Z"/>
      <path class="cls-3" d="M1522.05,274.2h12.4v7.2c3.4-3.6,9.8-8.2,19.4-8.2s15.3,5.5,15.3,16v38.1h-12.4v-35c0-5.9-2.5-8.6-7.9-8.6s-9.9,2.8-14.4,6.9v36.7h-12.4v-53.1Z"/>
    </g>
  </g>
</svg>