<svg width="1147" height="980" viewBox="0 0 1147 980" fill="none" xmlns="http://www.w3.org/2000/svg">
<path d="M23.8203 3.4106C24.7623 3.4106 25.526 2.64711 25.526 1.7053C25.526 0.763488 24.7623 0 23.8203 0C22.8783 0 22.1147 0.763488 22.1147 1.7053C22.1147 2.64711 22.8783 3.4106 23.8203 3.4106Z" fill="#BABCD4"/>
<path d="M84.0982 3.4106C85.0402 3.4106 85.8039 2.64711 85.8039 1.7053C85.8039 0.763488 85.0402 0 84.0982 0C83.1562 0 82.3926 0.763488 82.3926 1.7053C82.3926 2.64711 83.1562 3.4106 84.0982 3.4106Z" fill="#BABCD4"/>
<path d="M144.376 3.4106C145.318 3.4106 146.082 2.64711 146.082 1.7053C146.082 0.763488 145.318 0 144.376 0C143.434 0 142.671 0.763488 142.671 1.7053C142.671 2.64711 143.434 3.4106 144.376 3.4106Z" fill="#BABCD4"/>
<path d="M204.656 3.4106C205.598 3.4106 206.361 2.64711 206.361 1.7053C206.361 0.763488 205.598 0 204.656 0C203.714 0 202.95 0.763488 202.95 1.7053C202.95 2.64711 203.714 3.4106 204.656 3.4106Z" fill="#BABCD4"/>
<path d="M264.934 3.4106C265.876 3.4106 266.64 2.64711 266.64 1.7053C266.64 0.763488 265.876 0 264.934 0C263.992 0 263.228 0.763488 263.228 1.7053C263.228 2.64711 263.992 3.4106 264.934 3.4106Z" fill="#BABCD4"/>
<path d="M325.213 3.4106C326.155 3.4106 326.919 2.64711 326.919 1.7053C326.919 0.763488 326.155 0 325.213 0C324.271 0 323.507 0.763488 323.507 1.7053C323.507 2.64711 324.271 3.4106 325.213 3.4106Z" fill="#BABCD4"/>
<path d="M385.491 3.4106C386.433 3.4106 387.197 2.64711 387.197 1.7053C387.197 0.763488 386.433 0 385.491 0C384.549 0 383.785 0.763488 383.785 1.7053C383.785 2.64711 384.549 3.4106 385.491 3.4106Z" fill="#BABCD4"/>
<path d="M445.769 3.4106C446.711 3.4106 447.475 2.64711 447.475 1.7053C447.475 0.763488 446.711 0 445.769 0C444.827 0 444.063 0.763488 444.063 1.7053C444.063 2.64711 444.827 3.4106 445.769 3.4106Z" fill="#BABCD4"/>
<path d="M506.048 3.4106C506.99 3.4106 507.754 2.64711 507.754 1.7053C507.754 0.763488 506.99 0 506.048 0C505.106 0 504.342 0.763488 504.342 1.7053C504.342 2.64711 505.106 3.4106 506.048 3.4106Z" fill="#BABCD4"/>
<path d="M566.326 3.4106C567.268 3.4106 568.032 2.64711 568.032 1.7053C568.032 0.763488 567.268 0 566.326 0C565.384 0 564.621 0.763488 564.621 1.7053C564.621 2.64711 565.384 3.4106 566.326 3.4106Z" fill="#BABCD4"/>
<path d="M626.604 3.4106C627.546 3.4106 628.31 2.64711 628.31 1.7053C628.31 0.763488 627.546 0 626.604 0C625.662 0 624.899 0.763488 624.899 1.7053C624.899 2.64711 625.662 3.4106 626.604 3.4106Z" fill="#BABCD4"/>
<path d="M686.884 3.4106C687.826 3.4106 688.589 2.64711 688.589 1.7053C688.589 0.763488 687.826 0 686.884 0C685.942 0 685.178 0.763488 685.178 1.7053C685.178 2.64711 685.942 3.4106 686.884 3.4106Z" fill="#BABCD4"/>
<path d="M747.162 3.4106C748.104 3.4106 748.867 2.64711 748.867 1.7053C748.867 0.763488 748.104 0 747.162 0C746.22 0 745.456 0.763488 745.456 1.7053C745.456 2.64711 746.22 3.4106 747.162 3.4106Z" fill="#BABCD4"/>
<path d="M807.441 3.4106C808.383 3.4106 809.147 2.64711 809.147 1.7053C809.147 0.763488 808.383 0 807.441 0C806.499 0 805.735 0.763488 805.735 1.7053C805.735 2.64711 806.499 3.4106 807.441 3.4106Z" fill="#BABCD4"/>
<path d="M867.719 3.4106C868.661 3.4106 869.425 2.64711 869.425 1.7053C869.425 0.763488 868.661 0 867.719 0C866.777 0 866.013 0.763488 866.013 1.7053C866.013 2.64711 866.777 3.4106 867.719 3.4106Z" fill="#BABCD4"/>
<path d="M927.997 3.4106C928.939 3.4106 929.703 2.64711 929.703 1.7053C929.703 0.763488 928.939 0 927.997 0C927.055 0 926.292 0.763488 926.292 1.7053C926.292 2.64711 927.055 3.4106 927.997 3.4106Z" fill="#BABCD4"/>
<path d="M988.276 3.4106C989.218 3.4106 989.982 2.64711 989.982 1.7053C989.982 0.763488 989.218 0 988.276 0C987.334 0 986.57 0.763488 986.57 1.7053C986.57 2.64711 987.334 3.4106 988.276 3.4106Z" fill="#BABCD4"/>
<path d="M1048.55 3.4106C1049.5 3.4106 1050.26 2.64711 1050.26 1.7053C1050.26 0.763488 1049.5 0 1048.55 0C1047.61 0 1046.85 0.763488 1046.85 1.7053C1046.85 2.64711 1047.61 3.4106 1048.55 3.4106Z" fill="#BABCD4"/>
<path d="M1108.83 3.4106C1109.78 3.4106 1110.54 2.64711 1110.54 1.7053C1110.54 0.763488 1109.78 0 1108.83 0C1107.89 0 1107.13 0.763488 1107.13 1.7053C1107.13 2.64711 1107.89 3.4106 1108.83 3.4106Z" fill="#BABCD4"/>
<path d="M23.8203 63.6765C24.7623 63.6765 25.526 62.913 25.526 61.9712C25.526 61.0294 24.7623 60.2659 23.8203 60.2659C22.8783 60.2659 22.1147 61.0294 22.1147 61.9712C22.1147 62.913 22.8783 63.6765 23.8203 63.6765Z" fill="#BABCD4"/>
<path d="M84.0982 63.6766C85.0402 63.6766 85.8039 62.9131 85.8039 61.9713C85.8039 61.0295 85.0402 60.266 84.0982 60.266C83.1562 60.266 82.3926 61.0295 82.3926 61.9713C82.3926 62.9131 83.1562 63.6766 84.0982 63.6766Z" fill="#BABCD4"/>
<path d="M144.376 63.6765C145.318 63.6765 146.082 62.913 146.082 61.9712C146.082 61.0294 145.318 60.2659 144.376 60.2659C143.434 60.2659 142.671 61.0294 142.671 61.9712C142.671 62.913 143.434 63.6765 144.376 63.6765Z" fill="#BABCD4"/>
<path d="M204.656 63.6765C205.598 63.6765 206.361 62.913 206.361 61.9712C206.361 61.0294 205.598 60.2659 204.656 60.2659C203.714 60.2659 202.95 61.0294 202.95 61.9712C202.95 62.913 203.714 63.6765 204.656 63.6765Z" fill="#BABCD4"/>
<path d="M264.934 63.6766C265.876 63.6766 266.64 62.9131 266.64 61.9713C266.64 61.0295 265.876 60.266 264.934 60.266C263.992 60.266 263.228 61.0295 263.228 61.9713C263.228 62.9131 263.992 63.6766 264.934 63.6766Z" fill="#BABCD4"/>
<path d="M325.213 63.6765C326.155 63.6765 326.919 62.913 326.919 61.9712C326.919 61.0294 326.155 60.2659 325.213 60.2659C324.271 60.2659 323.507 61.0294 323.507 61.9712C323.507 62.913 324.271 63.6765 325.213 63.6765Z" fill="#BABCD4"/>
<path d="M385.491 63.6766C386.433 63.6766 387.197 62.9131 387.197 61.9713C387.197 61.0295 386.433 60.266 385.491 60.266C384.549 60.266 383.785 61.0295 383.785 61.9713C383.785 62.9131 384.549 63.6766 385.491 63.6766Z" fill="#BABCD4"/>
<path d="M445.769 63.6765C446.711 63.6765 447.475 62.913 447.475 61.9712C447.475 61.0294 446.711 60.2659 445.769 60.2659C444.827 60.2659 444.063 61.0294 444.063 61.9712C444.063 62.913 444.827 63.6765 445.769 63.6765Z" fill="#BABCD4"/>
<path d="M506.048 63.6766C506.99 63.6766 507.754 62.9131 507.754 61.9713C507.754 61.0295 506.99 60.266 506.048 60.266C505.106 60.266 504.342 61.0295 504.342 61.9713C504.342 62.9131 505.106 63.6766 506.048 63.6766Z" fill="#BABCD4"/>
<path d="M566.326 63.6766C567.268 63.6766 568.032 62.9131 568.032 61.9713C568.032 61.0295 567.268 60.266 566.326 60.266C565.384 60.266 564.621 61.0295 564.621 61.9713C564.621 62.9131 565.384 63.6766 566.326 63.6766Z" fill="#BABCD4"/>
<path d="M626.604 63.6765C627.546 63.6765 628.31 62.913 628.31 61.9712C628.31 61.0294 627.546 60.2659 626.604 60.2659C625.662 60.2659 624.899 61.0294 624.899 61.9712C624.899 62.913 625.662 63.6765 626.604 63.6765Z" fill="#BABCD4"/>
<path d="M686.884 63.6766C687.826 63.6766 688.589 62.9131 688.589 61.9713C688.589 61.0295 687.826 60.266 686.884 60.266C685.942 60.266 685.178 61.0295 685.178 61.9713C685.178 62.9131 685.942 63.6766 686.884 63.6766Z" fill="#BABCD4"/>
<path d="M747.162 63.6765C748.104 63.6765 748.867 62.913 748.867 61.9712C748.867 61.0294 748.104 60.2659 747.162 60.2659C746.22 60.2659 745.456 61.0294 745.456 61.9712C745.456 62.913 746.22 63.6765 747.162 63.6765Z" fill="#BABCD4"/>
<path d="M807.441 63.6765C808.383 63.6765 809.147 62.913 809.147 61.9712C809.147 61.0294 808.383 60.2659 807.441 60.2659C806.499 60.2659 805.735 61.0294 805.735 61.9712C805.735 62.913 806.499 63.6765 807.441 63.6765Z" fill="#BABCD4"/>
<path d="M867.719 63.6766C868.661 63.6766 869.425 62.9131 869.425 61.9713C869.425 61.0295 868.661 60.266 867.719 60.266C866.777 60.266 866.013 61.0295 866.013 61.9713C866.013 62.9131 866.777 63.6766 867.719 63.6766Z" fill="#BABCD4"/>
<path d="M927.997 63.6765C928.939 63.6765 929.703 62.913 929.703 61.9712C929.703 61.0294 928.939 60.2659 927.997 60.2659C927.055 60.2659 926.292 61.0294 926.292 61.9712C926.292 62.913 927.055 63.6765 927.997 63.6765Z" fill="#BABCD4"/>
<path d="M988.276 63.6766C989.218 63.6766 989.982 62.9131 989.982 61.9713C989.982 61.0295 989.218 60.266 988.276 60.266C987.334 60.266 986.57 61.0295 986.57 61.9713C986.57 62.9131 987.334 63.6766 988.276 63.6766Z" fill="#BABCD4"/>
<path d="M1048.55 63.6766C1049.5 63.6766 1050.26 62.9131 1050.26 61.9713C1050.26 61.0295 1049.5 60.266 1048.55 60.266C1047.61 60.266 1046.85 61.0295 1046.85 61.9713C1046.85 62.9131 1047.61 63.6766 1048.55 63.6766Z" fill="#BABCD4"/>
<path d="M1108.83 63.6765C1109.78 63.6765 1110.54 62.913 1110.54 61.9712C1110.54 61.0294 1109.78 60.2659 1108.83 60.2659C1107.89 60.2659 1107.13 61.0294 1107.13 61.9712C1107.13 62.913 1107.89 63.6765 1108.83 63.6765Z" fill="#BABCD4"/>
<path d="M23.8203 123.942C24.7623 123.942 25.526 123.179 25.526 122.237C25.526 121.295 24.7623 120.532 23.8203 120.532C22.8783 120.532 22.1147 121.295 22.1147 122.237C22.1147 123.179 22.8783 123.942 23.8203 123.942Z" fill="#BABCD4"/>
<path d="M84.0982 123.943C85.0402 123.943 85.8039 123.179 85.8039 122.237C85.8039 121.295 85.0402 120.532 84.0982 120.532C83.1562 120.532 82.3926 121.295 82.3926 122.237C82.3926 123.179 83.1562 123.943 84.0982 123.943Z" fill="#BABCD4"/>
<path d="M144.376 123.942C145.318 123.942 146.082 123.179 146.082 122.237C146.082 121.295 145.318 120.532 144.376 120.532C143.434 120.532 142.671 121.295 142.671 122.237C142.671 123.179 143.434 123.942 144.376 123.942Z" fill="#BABCD4"/>
<path d="M204.656 123.942C205.598 123.942 206.361 123.179 206.361 122.237C206.361 121.295 205.598 120.532 204.656 120.532C203.714 120.532 202.95 121.295 202.95 122.237C202.95 123.179 203.714 123.942 204.656 123.942Z" fill="#BABCD4"/>
<path d="M264.934 123.943C265.876 123.943 266.64 123.179 266.64 122.237C266.64 121.295 265.876 120.532 264.934 120.532C263.992 120.532 263.228 121.295 263.228 122.237C263.228 123.179 263.992 123.943 264.934 123.943Z" fill="#BABCD4"/>
<path d="M325.213 123.942C326.155 123.942 326.919 123.179 326.919 122.237C326.919 121.295 326.155 120.532 325.213 120.532C324.271 120.532 323.507 121.295 323.507 122.237C323.507 123.179 324.271 123.942 325.213 123.942Z" fill="#BABCD4"/>
<path d="M385.491 123.943C386.433 123.943 387.197 123.179 387.197 122.237C387.197 121.295 386.433 120.532 385.491 120.532C384.549 120.532 383.785 121.295 383.785 122.237C383.785 123.179 384.549 123.943 385.491 123.943Z" fill="#BABCD4"/>
<path d="M445.769 123.942C446.711 123.942 447.475 123.179 447.475 122.237C447.475 121.295 446.711 120.532 445.769 120.532C444.827 120.532 444.063 121.295 444.063 122.237C444.063 123.179 444.827 123.942 445.769 123.942Z" fill="#BABCD4"/>
<path d="M506.048 123.942C506.99 123.942 507.754 123.179 507.754 122.237C507.754 121.295 506.99 120.532 506.048 120.532C505.106 120.532 504.342 121.295 504.342 122.237C504.342 123.179 505.106 123.942 506.048 123.942Z" fill="#BABCD4"/>
<path d="M566.326 123.943C567.268 123.943 568.032 123.179 568.032 122.237C568.032 121.295 567.268 120.532 566.326 120.532C565.384 120.532 564.621 121.295 564.621 122.237C564.621 123.179 565.384 123.943 566.326 123.943Z" fill="#BABCD4"/>
<path d="M626.604 123.942C627.546 123.942 628.31 123.179 628.31 122.237C628.31 121.295 627.546 120.532 626.604 120.532C625.662 120.532 624.899 121.295 624.899 122.237C624.899 123.179 625.662 123.942 626.604 123.942Z" fill="#BABCD4"/>
<path d="M686.884 123.943C687.826 123.943 688.589 123.179 688.589 122.237C688.589 121.295 687.826 120.532 686.884 120.532C685.942 120.532 685.178 121.295 685.178 122.237C685.178 123.179 685.942 123.943 686.884 123.943Z" fill="#BABCD4"/>
<path d="M747.162 123.942C748.104 123.942 748.867 123.179 748.867 122.237C748.867 121.295 748.104 120.532 747.162 120.532C746.22 120.532 745.456 121.295 745.456 122.237C745.456 123.179 746.22 123.942 747.162 123.942Z" fill="#BABCD4"/>
<path d="M807.441 123.942C808.383 123.942 809.147 123.179 809.147 122.237C809.147 121.295 808.383 120.532 807.441 120.532C806.499 120.532 805.735 121.295 805.735 122.237C805.735 123.179 806.499 123.942 807.441 123.942Z" fill="#BABCD4"/>
<path d="M867.719 123.943C868.661 123.943 869.425 123.179 869.425 122.237C869.425 121.295 868.661 120.532 867.719 120.532C866.777 120.532 866.013 121.295 866.013 122.237C866.013 123.179 866.777 123.943 867.719 123.943Z" fill="#BABCD4"/>
<path d="M927.997 123.942C928.939 123.942 929.703 123.179 929.703 122.237C929.703 121.295 928.939 120.532 927.997 120.532C927.055 120.532 926.292 121.295 926.292 122.237C926.292 123.179 927.055 123.942 927.997 123.942Z" fill="#BABCD4"/>
<path d="M988.276 123.943C989.218 123.943 989.982 123.179 989.982 122.237C989.982 121.295 989.218 120.532 988.276 120.532C987.334 120.532 986.57 121.295 986.57 122.237C986.57 123.179 987.334 123.943 988.276 123.943Z" fill="#BABCD4"/>
<path d="M1048.55 123.943C1049.5 123.943 1050.26 123.179 1050.26 122.237C1050.26 121.295 1049.5 120.532 1048.55 120.532C1047.61 120.532 1046.85 121.295 1046.85 122.237C1046.85 123.179 1047.61 123.943 1048.55 123.943Z" fill="#BABCD4"/>
<path d="M1108.83 123.942C1109.78 123.942 1110.54 123.179 1110.54 122.237C1110.54 121.295 1109.78 120.532 1108.83 120.532C1107.89 120.532 1107.13 121.295 1107.13 122.237C1107.13 123.179 1107.89 123.942 1108.83 123.942Z" fill="#BABCD4"/>
<path d="M23.8203 184.209C24.7623 184.209 25.526 183.445 25.526 182.503C25.526 181.561 24.7623 180.798 23.8203 180.798C22.8783 180.798 22.1147 181.561 22.1147 182.503C22.1147 183.445 22.8783 184.209 23.8203 184.209Z" fill="#BABCD4"/>
<path d="M84.0982 184.208C85.0402 184.208 85.8039 183.445 85.8039 182.503C85.8039 181.561 85.0402 180.798 84.0982 180.798C83.1562 180.798 82.3926 181.561 82.3926 182.503C82.3926 183.445 83.1562 184.208 84.0982 184.208Z" fill="#BABCD4"/>
<path d="M144.376 184.209C145.318 184.209 146.082 183.445 146.082 182.503C146.082 181.561 145.318 180.798 144.376 180.798C143.434 180.798 142.671 181.561 142.671 182.503C142.671 183.445 143.434 184.209 144.376 184.209Z" fill="#BABCD4"/>
<path d="M204.656 184.209C205.598 184.209 206.361 183.445 206.361 182.503C206.361 181.561 205.598 180.798 204.656 180.798C203.714 180.798 202.95 181.561 202.95 182.503C202.95 183.445 203.714 184.209 204.656 184.209Z" fill="#BABCD4"/>
<path d="M264.934 184.208C265.876 184.208 266.64 183.445 266.64 182.503C266.64 181.561 265.876 180.798 264.934 180.798C263.992 180.798 263.228 181.561 263.228 182.503C263.228 183.445 263.992 184.208 264.934 184.208Z" fill="#BABCD4"/>
<path d="M325.213 184.209C326.155 184.209 326.919 183.445 326.919 182.503C326.919 181.561 326.155 180.798 325.213 180.798C324.271 180.798 323.507 181.561 323.507 182.503C323.507 183.445 324.271 184.209 325.213 184.209Z" fill="#BABCD4"/>
<path d="M385.491 184.208C386.433 184.208 387.197 183.445 387.197 182.503C387.197 181.561 386.433 180.798 385.491 180.798C384.549 180.798 383.785 181.561 383.785 182.503C383.785 183.445 384.549 184.208 385.491 184.208Z" fill="#BABCD4"/>
<path d="M445.769 184.209C446.711 184.209 447.475 183.445 447.475 182.503C447.475 181.561 446.711 180.798 445.769 180.798C444.827 180.798 444.063 181.561 444.063 182.503C444.063 183.445 444.827 184.209 445.769 184.209Z" fill="#BABCD4"/>
<path d="M506.048 184.208C506.99 184.208 507.754 183.445 507.754 182.503C507.754 181.561 506.99 180.798 506.048 180.798C505.106 180.798 504.342 181.561 504.342 182.503C504.342 183.445 505.106 184.208 506.048 184.208Z" fill="#BABCD4"/>
<path d="M566.326 184.208C567.268 184.208 568.032 183.445 568.032 182.503C568.032 181.561 567.268 180.798 566.326 180.798C565.384 180.798 564.621 181.561 564.621 182.503C564.621 183.445 565.384 184.208 566.326 184.208Z" fill="#BABCD4"/>
<path d="M626.604 184.209C627.546 184.209 628.31 183.445 628.31 182.503C628.31 181.561 627.546 180.798 626.604 180.798C625.662 180.798 624.899 181.561 624.899 182.503C624.899 183.445 625.662 184.209 626.604 184.209Z" fill="#BABCD4"/>
<path d="M686.884 184.208C687.826 184.208 688.589 183.445 688.589 182.503C688.589 181.561 687.826 180.798 686.884 180.798C685.942 180.798 685.178 181.561 685.178 182.503C685.178 183.445 685.942 184.208 686.884 184.208Z" fill="#BABCD4"/>
<path d="M747.162 184.209C748.104 184.209 748.867 183.445 748.867 182.503C748.867 181.561 748.104 180.798 747.162 180.798C746.22 180.798 745.456 181.561 745.456 182.503C745.456 183.445 746.22 184.209 747.162 184.209Z" fill="#BABCD4"/>
<path d="M807.441 184.209C808.383 184.209 809.147 183.445 809.147 182.503C809.147 181.561 808.383 180.798 807.441 180.798C806.499 180.798 805.735 181.561 805.735 182.503C805.735 183.445 806.499 184.209 807.441 184.209Z" fill="#BABCD4"/>
<path d="M867.719 184.208C868.661 184.208 869.425 183.445 869.425 182.503C869.425 181.561 868.661 180.798 867.719 180.798C866.777 180.798 866.013 181.561 866.013 182.503C866.013 183.445 866.777 184.208 867.719 184.208Z" fill="#BABCD4"/>
<path d="M927.997 184.209C928.939 184.209 929.703 183.445 929.703 182.503C929.703 181.561 928.939 180.798 927.997 180.798C927.055 180.798 926.292 181.561 926.292 182.503C926.292 183.445 927.055 184.209 927.997 184.209Z" fill="#BABCD4"/>
<path d="M988.276 184.208C989.218 184.208 989.982 183.445 989.982 182.503C989.982 181.561 989.218 180.798 988.276 180.798C987.334 180.798 986.57 181.561 986.57 182.503C986.57 183.445 987.334 184.208 988.276 184.208Z" fill="#BABCD4"/>
<path d="M1048.55 184.208C1049.5 184.208 1050.26 183.445 1050.26 182.503C1050.26 181.561 1049.5 180.798 1048.55 180.798C1047.61 180.798 1046.85 181.561 1046.85 182.503C1046.85 183.445 1047.61 184.208 1048.55 184.208Z" fill="#BABCD4"/>
<path d="M1108.83 184.209C1109.78 184.209 1110.54 183.445 1110.54 182.503C1110.54 181.561 1109.78 180.798 1108.83 180.798C1107.89 180.798 1107.13 181.561 1107.13 182.503C1107.13 183.445 1107.89 184.209 1108.83 184.209Z" fill="#BABCD4"/>
<path d="M23.8203 244.474C24.7623 244.474 25.526 243.711 25.526 242.769C25.526 241.827 24.7623 241.064 23.8203 241.064C22.8783 241.064 22.1147 241.827 22.1147 242.769C22.1147 243.711 22.8783 244.474 23.8203 244.474Z" fill="#BABCD4"/>
<path d="M84.0982 244.474C85.0402 244.474 85.8039 243.711 85.8039 242.769C85.8039 241.827 85.0402 241.064 84.0982 241.064C83.1562 241.064 82.3926 241.827 82.3926 242.769C82.3926 243.711 83.1562 244.474 84.0982 244.474Z" fill="#BABCD4"/>
<path d="M144.376 244.474C145.318 244.474 146.082 243.711 146.082 242.769C146.082 241.827 145.318 241.064 144.376 241.064C143.434 241.064 142.671 241.827 142.671 242.769C142.671 243.711 143.434 244.474 144.376 244.474Z" fill="#BABCD4"/>
<path d="M204.656 244.474C205.598 244.474 206.361 243.711 206.361 242.769C206.361 241.827 205.598 241.064 204.656 241.064C203.714 241.064 202.95 241.827 202.95 242.769C202.95 243.711 203.714 244.474 204.656 244.474Z" fill="#BABCD4"/>
<path d="M264.934 244.474C265.876 244.474 266.64 243.711 266.64 242.769C266.64 241.827 265.876 241.064 264.934 241.064C263.992 241.064 263.228 241.827 263.228 242.769C263.228 243.711 263.992 244.474 264.934 244.474Z" fill="#BABCD4"/>
<path d="M325.213 244.474C326.155 244.474 326.919 243.711 326.919 242.769C326.919 241.827 326.155 241.064 325.213 241.064C324.271 241.064 323.507 241.827 323.507 242.769C323.507 243.711 324.271 244.474 325.213 244.474Z" fill="#BABCD4"/>
<path d="M385.491 244.474C386.433 244.474 387.197 243.711 387.197 242.769C387.197 241.827 386.433 241.064 385.491 241.064C384.549 241.064 383.785 241.827 383.785 242.769C383.785 243.711 384.549 244.474 385.491 244.474Z" fill="#BABCD4"/>
<path d="M445.769 244.474C446.711 244.474 447.475 243.711 447.475 242.769C447.475 241.827 446.711 241.064 445.769 241.064C444.827 241.064 444.063 241.827 444.063 242.769C444.063 243.711 444.827 244.474 445.769 244.474Z" fill="#BABCD4"/>
<path d="M506.048 244.474C506.99 244.474 507.754 243.711 507.754 242.769C507.754 241.827 506.99 241.064 506.048 241.064C505.106 241.064 504.342 241.827 504.342 242.769C504.342 243.711 505.106 244.474 506.048 244.474Z" fill="#BABCD4"/>
<path d="M566.326 244.474C567.268 244.474 568.032 243.711 568.032 242.769C568.032 241.827 567.268 241.064 566.326 241.064C565.384 241.064 564.621 241.827 564.621 242.769C564.621 243.711 565.384 244.474 566.326 244.474Z" fill="#BABCD4"/>
<path d="M626.604 244.474C627.546 244.474 628.31 243.711 628.31 242.769C628.31 241.827 627.546 241.064 626.604 241.064C625.662 241.064 624.899 241.827 624.899 242.769C624.899 243.711 625.662 244.474 626.604 244.474Z" fill="#BABCD4"/>
<path d="M686.884 244.474C687.826 244.474 688.589 243.711 688.589 242.769C688.589 241.827 687.826 241.064 686.884 241.064C685.942 241.064 685.178 241.827 685.178 242.769C685.178 243.711 685.942 244.474 686.884 244.474Z" fill="#BABCD4"/>
<path d="M747.162 244.474C748.104 244.474 748.867 243.711 748.867 242.769C748.867 241.827 748.104 241.064 747.162 241.064C746.22 241.064 745.456 241.827 745.456 242.769C745.456 243.711 746.22 244.474 747.162 244.474Z" fill="#BABCD4"/>
<path d="M807.441 244.474C808.383 244.474 809.147 243.711 809.147 242.769C809.147 241.827 808.383 241.064 807.441 241.064C806.499 241.064 805.735 241.827 805.735 242.769C805.735 243.711 806.499 244.474 807.441 244.474Z" fill="#BABCD4"/>
<path d="M867.719 244.474C868.661 244.474 869.425 243.711 869.425 242.769C869.425 241.827 868.661 241.064 867.719 241.064C866.777 241.064 866.013 241.827 866.013 242.769C866.013 243.711 866.777 244.474 867.719 244.474Z" fill="#BABCD4"/>
<path d="M927.997 244.474C928.939 244.474 929.703 243.711 929.703 242.769C929.703 241.827 928.939 241.064 927.997 241.064C927.055 241.064 926.292 241.827 926.292 242.769C926.292 243.711 927.055 244.474 927.997 244.474Z" fill="#BABCD4"/>
<path d="M988.276 244.474C989.218 244.474 989.982 243.711 989.982 242.769C989.982 241.827 989.218 241.064 988.276 241.064C987.334 241.064 986.57 241.827 986.57 242.769C986.57 243.711 987.334 244.474 988.276 244.474Z" fill="#BABCD4"/>
<path d="M1048.55 244.474C1049.5 244.474 1050.26 243.711 1050.26 242.769C1050.26 241.827 1049.5 241.064 1048.55 241.064C1047.61 241.064 1046.85 241.827 1046.85 242.769C1046.85 243.711 1047.61 244.474 1048.55 244.474Z" fill="#BABCD4"/>
<path d="M1108.83 244.474C1109.78 244.474 1110.54 243.711 1110.54 242.769C1110.54 241.827 1109.78 241.064 1108.83 241.064C1107.89 241.064 1107.13 241.827 1107.13 242.769C1107.13 243.711 1107.89 244.474 1108.83 244.474Z" fill="#BABCD4"/>
<path d="M23.8203 304.74C24.7623 304.74 25.526 303.977 25.526 303.035C25.526 302.093 24.7623 301.33 23.8203 301.33C22.8783 301.33 22.1147 302.093 22.1147 303.035C22.1147 303.977 22.8783 304.74 23.8203 304.74Z" fill="#BABCD4"/>
<path d="M84.0982 304.74C85.0402 304.74 85.8039 303.977 85.8039 303.035C85.8039 302.093 85.0402 301.33 84.0982 301.33C83.1562 301.33 82.3926 302.093 82.3926 303.035C82.3926 303.977 83.1562 304.74 84.0982 304.74Z" fill="#BABCD4"/>
<path d="M144.376 304.74C145.318 304.74 146.082 303.977 146.082 303.035C146.082 302.093 145.318 301.33 144.376 301.33C143.434 301.33 142.671 302.093 142.671 303.035C142.671 303.977 143.434 304.74 144.376 304.74Z" fill="#BABCD4"/>
<path d="M204.656 304.74C205.598 304.74 206.361 303.977 206.361 303.035C206.361 302.093 205.598 301.33 204.656 301.33C203.714 301.33 202.95 302.093 202.95 303.035C202.95 303.977 203.714 304.74 204.656 304.74Z" fill="#BABCD4"/>
<path d="M264.934 304.74C265.876 304.74 266.64 303.977 266.64 303.035C266.64 302.093 265.876 301.33 264.934 301.33C263.992 301.33 263.228 302.093 263.228 303.035C263.228 303.977 263.992 304.74 264.934 304.74Z" fill="#BABCD4"/>
<path d="M325.213 304.74C326.155 304.74 326.919 303.977 326.919 303.035C326.919 302.093 326.155 301.33 325.213 301.33C324.271 301.33 323.507 302.093 323.507 303.035C323.507 303.977 324.271 304.74 325.213 304.74Z" fill="#BABCD4"/>
<path d="M385.491 304.74C386.433 304.74 387.197 303.977 387.197 303.035C387.197 302.093 386.433 301.33 385.491 301.33C384.549 301.33 383.785 302.093 383.785 303.035C383.785 303.977 384.549 304.74 385.491 304.74Z" fill="#BABCD4"/>
<path d="M445.769 304.74C446.711 304.74 447.475 303.977 447.475 303.035C447.475 302.093 446.711 301.33 445.769 301.33C444.827 301.33 444.063 302.093 444.063 303.035C444.063 303.977 444.827 304.74 445.769 304.74Z" fill="#BABCD4"/>
<path d="M506.048 304.74C506.99 304.74 507.754 303.977 507.754 303.035C507.754 302.093 506.99 301.33 506.048 301.33C505.106 301.33 504.342 302.093 504.342 303.035C504.342 303.977 505.106 304.74 506.048 304.74Z" fill="#BABCD4"/>
<path d="M566.326 304.74C567.268 304.74 568.032 303.977 568.032 303.035C568.032 302.093 567.268 301.33 566.326 301.33C565.384 301.33 564.621 302.093 564.621 303.035C564.621 303.977 565.384 304.74 566.326 304.74Z" fill="#BABCD4"/>
<path d="M626.604 304.74C627.546 304.74 628.31 303.977 628.31 303.035C628.31 302.093 627.546 301.33 626.604 301.33C625.662 301.33 624.899 302.093 624.899 303.035C624.899 303.977 625.662 304.74 626.604 304.74Z" fill="#BABCD4"/>
<path d="M686.884 304.74C687.826 304.74 688.589 303.977 688.589 303.035C688.589 302.093 687.826 301.33 686.884 301.33C685.942 301.33 685.178 302.093 685.178 303.035C685.178 303.977 685.942 304.74 686.884 304.74Z" fill="#BABCD4"/>
<path d="M747.162 304.74C748.104 304.74 748.867 303.977 748.867 303.035C748.867 302.093 748.104 301.33 747.162 301.33C746.22 301.33 745.456 302.093 745.456 303.035C745.456 303.977 746.22 304.74 747.162 304.74Z" fill="#BABCD4"/>
<path d="M807.441 304.74C808.383 304.74 809.147 303.977 809.147 303.035C809.147 302.093 808.383 301.33 807.441 301.33C806.499 301.33 805.735 302.093 805.735 303.035C805.735 303.977 806.499 304.74 807.441 304.74Z" fill="#BABCD4"/>
<path d="M867.719 304.74C868.661 304.74 869.425 303.977 869.425 303.035C869.425 302.093 868.661 301.33 867.719 301.33C866.777 301.33 866.013 302.093 866.013 303.035C866.013 303.977 866.777 304.74 867.719 304.74Z" fill="#BABCD4"/>
<path d="M927.997 304.74C928.939 304.74 929.703 303.977 929.703 303.035C929.703 302.093 928.939 301.33 927.997 301.33C927.055 301.33 926.292 302.093 926.292 303.035C926.292 303.977 927.055 304.74 927.997 304.74Z" fill="#BABCD4"/>
<path d="M988.276 304.74C989.218 304.74 989.982 303.977 989.982 303.035C989.982 302.093 989.218 301.33 988.276 301.33C987.334 301.33 986.57 302.093 986.57 303.035C986.57 303.977 987.334 304.74 988.276 304.74Z" fill="#BABCD4"/>
<path d="M1048.55 304.74C1049.5 304.74 1050.26 303.977 1050.26 303.035C1050.26 302.093 1049.5 301.33 1048.55 301.33C1047.61 301.33 1046.85 302.093 1046.85 303.035C1046.85 303.977 1047.61 304.74 1048.55 304.74Z" fill="#BABCD4"/>
<path d="M1108.83 304.74C1109.78 304.74 1110.54 303.977 1110.54 303.035C1110.54 302.093 1109.78 301.33 1108.83 301.33C1107.89 301.33 1107.13 302.093 1107.13 303.035C1107.13 303.977 1107.89 304.74 1108.83 304.74Z" fill="#BABCD4"/>
<path d="M23.8203 365.006C24.7623 365.006 25.526 364.243 25.526 363.301C25.526 362.359 24.7623 361.596 23.8203 361.596C22.8783 361.596 22.1147 362.359 22.1147 363.301C22.1147 364.243 22.8783 365.006 23.8203 365.006Z" fill="#BABCD4"/>
<path d="M84.0982 365.006C85.0402 365.006 85.8039 364.243 85.8039 363.301C85.8039 362.359 85.0402 361.596 84.0982 361.596C83.1562 361.596 82.3926 362.359 82.3926 363.301C82.3926 364.243 83.1562 365.006 84.0982 365.006Z" fill="#BABCD4"/>
<path d="M144.376 365.006C145.318 365.006 146.082 364.243 146.082 363.301C146.082 362.359 145.318 361.596 144.376 361.596C143.434 361.596 142.671 362.359 142.671 363.301C142.671 364.243 143.434 365.006 144.376 365.006Z" fill="#BABCD4"/>
<path d="M204.656 365.006C205.598 365.006 206.361 364.243 206.361 363.301C206.361 362.359 205.598 361.596 204.656 361.596C203.714 361.596 202.95 362.359 202.95 363.301C202.95 364.243 203.714 365.006 204.656 365.006Z" fill="#BABCD4"/>
<path d="M264.934 365.006C265.876 365.006 266.64 364.243 266.64 363.301C266.64 362.359 265.876 361.596 264.934 361.596C263.992 361.596 263.228 362.359 263.228 363.301C263.228 364.243 263.992 365.006 264.934 365.006Z" fill="#BABCD4"/>
<path d="M325.213 365.006C326.155 365.006 326.919 364.243 326.919 363.301C326.919 362.359 326.155 361.596 325.213 361.596C324.271 361.596 323.507 362.359 323.507 363.301C323.507 364.243 324.271 365.006 325.213 365.006Z" fill="#BABCD4"/>
<path d="M385.491 365.006C386.433 365.006 387.197 364.243 387.197 363.301C387.197 362.359 386.433 361.596 385.491 361.596C384.549 361.596 383.785 362.359 383.785 363.301C383.785 364.243 384.549 365.006 385.491 365.006Z" fill="#BABCD4"/>
<path d="M445.769 365.006C446.711 365.006 447.475 364.243 447.475 363.301C447.475 362.359 446.711 361.596 445.769 361.596C444.827 361.596 444.063 362.359 444.063 363.301C444.063 364.243 444.827 365.006 445.769 365.006Z" fill="#BABCD4"/>
<path d="M506.048 365.006C506.99 365.006 507.754 364.243 507.754 363.301C507.754 362.359 506.99 361.596 506.048 361.596C505.106 361.596 504.342 362.359 504.342 363.301C504.342 364.243 505.106 365.006 506.048 365.006Z" fill="#BABCD4"/>
<path d="M566.326 365.006C567.268 365.006 568.032 364.243 568.032 363.301C568.032 362.359 567.268 361.596 566.326 361.596C565.384 361.596 564.621 362.359 564.621 363.301C564.621 364.243 565.384 365.006 566.326 365.006Z" fill="#BABCD4"/>
<path d="M626.604 365.006C627.546 365.006 628.31 364.243 628.31 363.301C628.31 362.359 627.546 361.596 626.604 361.596C625.662 361.596 624.899 362.359 624.899 363.301C624.899 364.243 625.662 365.006 626.604 365.006Z" fill="#BABCD4"/>
<path d="M686.884 365.006C687.826 365.006 688.589 364.243 688.589 363.301C688.589 362.359 687.826 361.596 686.884 361.596C685.942 361.596 685.178 362.359 685.178 363.301C685.178 364.243 685.942 365.006 686.884 365.006Z" fill="#BABCD4"/>
<path d="M747.162 365.006C748.104 365.006 748.867 364.243 748.867 363.301C748.867 362.359 748.104 361.596 747.162 361.596C746.22 361.596 745.456 362.359 745.456 363.301C745.456 364.243 746.22 365.006 747.162 365.006Z" fill="#BABCD4"/>
<path d="M807.441 365.006C808.383 365.006 809.147 364.243 809.147 363.301C809.147 362.359 808.383 361.596 807.441 361.596C806.499 361.596 805.735 362.359 805.735 363.301C805.735 364.243 806.499 365.006 807.441 365.006Z" fill="#BABCD4"/>
<path d="M867.719 365.006C868.661 365.006 869.425 364.243 869.425 363.301C869.425 362.359 868.661 361.596 867.719 361.596C866.777 361.596 866.013 362.359 866.013 363.301C866.013 364.243 866.777 365.006 867.719 365.006Z" fill="#BABCD4"/>
<path d="M927.997 365.006C928.939 365.006 929.703 364.243 929.703 363.301C929.703 362.359 928.939 361.596 927.997 361.596C927.055 361.596 926.292 362.359 926.292 363.301C926.292 364.243 927.055 365.006 927.997 365.006Z" fill="#BABCD4"/>
<path d="M988.276 365.006C989.218 365.006 989.982 364.243 989.982 363.301C989.982 362.359 989.218 361.596 988.276 361.596C987.334 361.596 986.57 362.359 986.57 363.301C986.57 364.243 987.334 365.006 988.276 365.006Z" fill="#BABCD4"/>
<path d="M1048.55 365.006C1049.5 365.006 1050.26 364.243 1050.26 363.301C1050.26 362.359 1049.5 361.596 1048.55 361.596C1047.61 361.596 1046.85 362.359 1046.85 363.301C1046.85 364.243 1047.61 365.006 1048.55 365.006Z" fill="#BABCD4"/>
<path d="M1108.83 365.006C1109.78 365.006 1110.54 364.243 1110.54 363.301C1110.54 362.359 1109.78 361.596 1108.83 361.596C1107.89 361.596 1107.13 362.359 1107.13 363.301C1107.13 364.243 1107.89 365.006 1108.83 365.006Z" fill="#BABCD4"/>
<path d="M23.8203 425.272C24.7623 425.272 25.526 424.509 25.526 423.567C25.526 422.625 24.7623 421.862 23.8203 421.862C22.8783 421.862 22.1147 422.625 22.1147 423.567C22.1147 424.509 22.8783 425.272 23.8203 425.272Z" fill="#BABCD4"/>
<path d="M84.0982 425.272C85.0402 425.272 85.8039 424.509 85.8039 423.567C85.8039 422.625 85.0402 421.862 84.0982 421.862C83.1562 421.862 82.3926 422.625 82.3926 423.567C82.3926 424.509 83.1562 425.272 84.0982 425.272Z" fill="#BABCD4"/>
<path d="M144.376 425.272C145.318 425.272 146.082 424.509 146.082 423.567C146.082 422.625 145.318 421.862 144.376 421.862C143.434 421.862 142.671 422.625 142.671 423.567C142.671 424.509 143.434 425.272 144.376 425.272Z" fill="#BABCD4"/>
<path d="M204.656 425.272C205.598 425.272 206.361 424.509 206.361 423.567C206.361 422.625 205.598 421.862 204.656 421.862C203.714 421.862 202.95 422.625 202.95 423.567C202.95 424.509 203.714 425.272 204.656 425.272Z" fill="#BABCD4"/>
<path d="M264.934 425.272C265.876 425.272 266.64 424.509 266.64 423.567C266.64 422.625 265.876 421.862 264.934 421.862C263.992 421.862 263.228 422.625 263.228 423.567C263.228 424.509 263.992 425.272 264.934 425.272Z" fill="#BABCD4"/>
<path d="M325.213 425.272C326.155 425.272 326.919 424.509 326.919 423.567C326.919 422.625 326.155 421.862 325.213 421.862C324.271 421.862 323.507 422.625 323.507 423.567C323.507 424.509 324.271 425.272 325.213 425.272Z" fill="#BABCD4"/>
<path d="M385.491 425.272C386.433 425.272 387.197 424.509 387.197 423.567C387.197 422.625 386.433 421.862 385.491 421.862C384.549 421.862 383.785 422.625 383.785 423.567C383.785 424.509 384.549 425.272 385.491 425.272Z" fill="#BABCD4"/>
<path d="M445.769 425.272C446.711 425.272 447.475 424.509 447.475 423.567C447.475 422.625 446.711 421.862 445.769 421.862C444.827 421.862 444.063 422.625 444.063 423.567C444.063 424.509 444.827 425.272 445.769 425.272Z" fill="#BABCD4"/>
<path d="M506.048 425.272C506.99 425.272 507.754 424.509 507.754 423.567C507.754 422.625 506.99 421.862 506.048 421.862C505.106 421.862 504.342 422.625 504.342 423.567C504.342 424.509 505.106 425.272 506.048 425.272Z" fill="#BABCD4"/>
<path d="M566.326 425.272C567.268 425.272 568.032 424.509 568.032 423.567C568.032 422.625 567.268 421.862 566.326 421.862C565.384 421.862 564.621 422.625 564.621 423.567C564.621 424.509 565.384 425.272 566.326 425.272Z" fill="#BABCD4"/>
<path d="M626.604 425.272C627.546 425.272 628.31 424.509 628.31 423.567C628.31 422.625 627.546 421.862 626.604 421.862C625.662 421.862 624.899 422.625 624.899 423.567C624.899 424.509 625.662 425.272 626.604 425.272Z" fill="#BABCD4"/>
<path d="M686.884 425.272C687.826 425.272 688.589 424.509 688.589 423.567C688.589 422.625 687.826 421.862 686.884 421.862C685.942 421.862 685.178 422.625 685.178 423.567C685.178 424.509 685.942 425.272 686.884 425.272Z" fill="#BABCD4"/>
<path d="M747.162 425.272C748.104 425.272 748.867 424.509 748.867 423.567C748.867 422.625 748.104 421.862 747.162 421.862C746.22 421.862 745.456 422.625 745.456 423.567C745.456 424.509 746.22 425.272 747.162 425.272Z" fill="#BABCD4"/>
<path d="M807.441 425.272C808.383 425.272 809.147 424.509 809.147 423.567C809.147 422.625 808.383 421.862 807.441 421.862C806.499 421.862 805.735 422.625 805.735 423.567C805.735 424.509 806.499 425.272 807.441 425.272Z" fill="#BABCD4"/>
<path d="M867.719 425.272C868.661 425.272 869.425 424.509 869.425 423.567C869.425 422.625 868.661 421.862 867.719 421.862C866.777 421.862 866.013 422.625 866.013 423.567C866.013 424.509 866.777 425.272 867.719 425.272Z" fill="#BABCD4"/>
<path d="M927.997 425.272C928.939 425.272 929.703 424.509 929.703 423.567C929.703 422.625 928.939 421.862 927.997 421.862C927.055 421.862 926.292 422.625 926.292 423.567C926.292 424.509 927.055 425.272 927.997 425.272Z" fill="#BABCD4"/>
<path d="M988.276 425.272C989.218 425.272 989.982 424.509 989.982 423.567C989.982 422.625 989.218 421.862 988.276 421.862C987.334 421.862 986.57 422.625 986.57 423.567C986.57 424.509 987.334 425.272 988.276 425.272Z" fill="#BABCD4"/>
<path d="M1048.55 425.272C1049.5 425.272 1050.26 424.509 1050.26 423.567C1050.26 422.625 1049.5 421.862 1048.55 421.862C1047.61 421.862 1046.85 422.625 1046.85 423.567C1046.85 424.509 1047.61 425.272 1048.55 425.272Z" fill="#BABCD4"/>
<path d="M1108.83 425.272C1109.78 425.272 1110.54 424.509 1110.54 423.567C1110.54 422.625 1109.78 421.862 1108.83 421.862C1107.89 421.862 1107.13 422.625 1107.13 423.567C1107.13 424.509 1107.89 425.272 1108.83 425.272Z" fill="#BABCD4"/>
<path d="M23.8203 485.538C24.7623 485.538 25.526 484.775 25.526 483.833C25.526 482.891 24.7623 482.128 23.8203 482.128C22.8783 482.128 22.1147 482.891 22.1147 483.833C22.1147 484.775 22.8783 485.538 23.8203 485.538Z" fill="#BABCD4"/>
<path d="M84.0982 485.538C85.0402 485.538 85.8039 484.775 85.8039 483.833C85.8039 482.891 85.0402 482.128 84.0982 482.128C83.1562 482.128 82.3926 482.891 82.3926 483.833C82.3926 484.775 83.1562 485.538 84.0982 485.538Z" fill="#BABCD4"/>
<path d="M144.376 485.538C145.318 485.538 146.082 484.775 146.082 483.833C146.082 482.891 145.318 482.128 144.376 482.128C143.434 482.128 142.671 482.891 142.671 483.833C142.671 484.775 143.434 485.538 144.376 485.538Z" fill="#BABCD4"/>
<path d="M204.656 485.538C205.598 485.538 206.361 484.775 206.361 483.833C206.361 482.891 205.598 482.128 204.656 482.128C203.714 482.128 202.95 482.891 202.95 483.833C202.95 484.775 203.714 485.538 204.656 485.538Z" fill="#BABCD4"/>
<path d="M264.934 485.538C265.876 485.538 266.64 484.775 266.64 483.833C266.64 482.891 265.876 482.128 264.934 482.128C263.992 482.128 263.228 482.891 263.228 483.833C263.228 484.775 263.992 485.538 264.934 485.538Z" fill="#BABCD4"/>
<path d="M325.213 485.538C326.155 485.538 326.919 484.775 326.919 483.833C326.919 482.891 326.155 482.128 325.213 482.128C324.271 482.128 323.507 482.891 323.507 483.833C323.507 484.775 324.271 485.538 325.213 485.538Z" fill="#BABCD4"/>
<path d="M385.491 485.538C386.433 485.538 387.197 484.775 387.197 483.833C387.197 482.891 386.433 482.128 385.491 482.128C384.549 482.128 383.785 482.891 383.785 483.833C383.785 484.775 384.549 485.538 385.491 485.538Z" fill="#BABCD4"/>
<path d="M445.769 485.538C446.711 485.538 447.475 484.775 447.475 483.833C447.475 482.891 446.711 482.128 445.769 482.128C444.827 482.128 444.063 482.891 444.063 483.833C444.063 484.775 444.827 485.538 445.769 485.538Z" fill="#BABCD4"/>
<path d="M506.048 485.538C506.99 485.538 507.754 484.775 507.754 483.833C507.754 482.891 506.99 482.128 506.048 482.128C505.106 482.128 504.342 482.891 504.342 483.833C504.342 484.775 505.106 485.538 506.048 485.538Z" fill="#BABCD4"/>
<path d="M566.326 485.538C567.268 485.538 568.032 484.775 568.032 483.833C568.032 482.891 567.268 482.128 566.326 482.128C565.384 482.128 564.621 482.891 564.621 483.833C564.621 484.775 565.384 485.538 566.326 485.538Z" fill="#BABCD4"/>
<path d="M626.604 485.538C627.546 485.538 628.31 484.775 628.31 483.833C628.31 482.891 627.546 482.128 626.604 482.128C625.662 482.128 624.899 482.891 624.899 483.833C624.899 484.775 625.662 485.538 626.604 485.538Z" fill="#BABCD4"/>
<path d="M686.884 485.538C687.826 485.538 688.589 484.775 688.589 483.833C688.589 482.891 687.826 482.128 686.884 482.128C685.942 482.128 685.178 482.891 685.178 483.833C685.178 484.775 685.942 485.538 686.884 485.538Z" fill="#BABCD4"/>
<path d="M747.162 485.538C748.104 485.538 748.867 484.775 748.867 483.833C748.867 482.891 748.104 482.128 747.162 482.128C746.22 482.128 745.456 482.891 745.456 483.833C745.456 484.775 746.22 485.538 747.162 485.538Z" fill="#BABCD4"/>
<path d="M807.441 485.538C808.383 485.538 809.147 484.775 809.147 483.833C809.147 482.891 808.383 482.128 807.441 482.128C806.499 482.128 805.735 482.891 805.735 483.833C805.735 484.775 806.499 485.538 807.441 485.538Z" fill="#BABCD4"/>
<path d="M867.719 485.538C868.661 485.538 869.425 484.775 869.425 483.833C869.425 482.891 868.661 482.128 867.719 482.128C866.777 482.128 866.013 482.891 866.013 483.833C866.013 484.775 866.777 485.538 867.719 485.538Z" fill="#BABCD4"/>
<path d="M927.997 485.538C928.939 485.538 929.703 484.775 929.703 483.833C929.703 482.891 928.939 482.128 927.997 482.128C927.055 482.128 926.292 482.891 926.292 483.833C926.292 484.775 927.055 485.538 927.997 485.538Z" fill="#BABCD4"/>
<path d="M988.276 485.538C989.218 485.538 989.982 484.775 989.982 483.833C989.982 482.891 989.218 482.128 988.276 482.128C987.334 482.128 986.57 482.891 986.57 483.833C986.57 484.775 987.334 485.538 988.276 485.538Z" fill="#BABCD4"/>
<path d="M1048.55 485.538C1049.5 485.538 1050.26 484.775 1050.26 483.833C1050.26 482.891 1049.5 482.128 1048.55 482.128C1047.61 482.128 1046.85 482.891 1046.85 483.833C1046.85 484.775 1047.61 485.538 1048.55 485.538Z" fill="#BABCD4"/>
<path d="M1108.83 485.538C1109.78 485.538 1110.54 484.775 1110.54 483.833C1110.54 482.891 1109.78 482.128 1108.83 482.128C1107.89 482.128 1107.13 482.891 1107.13 483.833C1107.13 484.775 1107.89 485.538 1108.83 485.538Z" fill="#BABCD4"/>
<path d="M23.8203 545.804C24.7623 545.804 25.526 545.041 25.526 544.099C25.526 543.157 24.7623 542.394 23.8203 542.394C22.8783 542.394 22.1147 543.157 22.1147 544.099C22.1147 545.041 22.8783 545.804 23.8203 545.804Z" fill="#BABCD4"/>
<path d="M84.0982 545.804C85.0402 545.804 85.8039 545.041 85.8039 544.099C85.8039 543.157 85.0402 542.394 84.0982 542.394C83.1562 542.394 82.3926 543.157 82.3926 544.099C82.3926 545.041 83.1562 545.804 84.0982 545.804Z" fill="#BABCD4"/>
<path d="M144.376 545.804C145.318 545.804 146.082 545.041 146.082 544.099C146.082 543.157 145.318 542.394 144.376 542.394C143.434 542.394 142.671 543.157 142.671 544.099C142.671 545.041 143.434 545.804 144.376 545.804Z" fill="#BABCD4"/>
<path d="M204.656 545.804C205.598 545.804 206.361 545.041 206.361 544.099C206.361 543.157 205.598 542.394 204.656 542.394C203.714 542.394 202.95 543.157 202.95 544.099C202.95 545.041 203.714 545.804 204.656 545.804Z" fill="#BABCD4"/>
<path d="M264.934 545.804C265.876 545.804 266.64 545.041 266.64 544.099C266.64 543.157 265.876 542.394 264.934 542.394C263.992 542.394 263.228 543.157 263.228 544.099C263.228 545.041 263.992 545.804 264.934 545.804Z" fill="#BABCD4"/>
<path d="M325.213 545.804C326.155 545.804 326.919 545.041 326.919 544.099C326.919 543.157 326.155 542.394 325.213 542.394C324.271 542.394 323.507 543.157 323.507 544.099C323.507 545.041 324.271 545.804 325.213 545.804Z" fill="#BABCD4"/>
<path d="M385.491 545.804C386.433 545.804 387.197 545.041 387.197 544.099C387.197 543.157 386.433 542.394 385.491 542.394C384.549 542.394 383.785 543.157 383.785 544.099C383.785 545.041 384.549 545.804 385.491 545.804Z" fill="#BABCD4"/>
<path d="M445.769 545.804C446.711 545.804 447.475 545.041 447.475 544.099C447.475 543.157 446.711 542.394 445.769 542.394C444.827 542.394 444.063 543.157 444.063 544.099C444.063 545.041 444.827 545.804 445.769 545.804Z" fill="#BABCD4"/>
<path d="M506.048 545.804C506.99 545.804 507.754 545.041 507.754 544.099C507.754 543.157 506.99 542.394 506.048 542.394C505.106 542.394 504.342 543.157 504.342 544.099C504.342 545.041 505.106 545.804 506.048 545.804Z" fill="#BABCD4"/>
<path d="M566.326 545.804C567.268 545.804 568.032 545.041 568.032 544.099C568.032 543.157 567.268 542.394 566.326 542.394C565.384 542.394 564.621 543.157 564.621 544.099C564.621 545.041 565.384 545.804 566.326 545.804Z" fill="#BABCD4"/>
<path d="M626.604 545.804C627.546 545.804 628.31 545.041 628.31 544.099C628.31 543.157 627.546 542.394 626.604 542.394C625.662 542.394 624.899 543.157 624.899 544.099C624.899 545.041 625.662 545.804 626.604 545.804Z" fill="#BABCD4"/>
<path d="M686.884 545.804C687.826 545.804 688.589 545.041 688.589 544.099C688.589 543.157 687.826 542.394 686.884 542.394C685.942 542.394 685.178 543.157 685.178 544.099C685.178 545.041 685.942 545.804 686.884 545.804Z" fill="#BABCD4"/>
<path d="M747.162 545.804C748.104 545.804 748.867 545.041 748.867 544.099C748.867 543.157 748.104 542.394 747.162 542.394C746.22 542.394 745.456 543.157 745.456 544.099C745.456 545.041 746.22 545.804 747.162 545.804Z" fill="#BABCD4"/>
<path d="M807.441 545.804C808.383 545.804 809.147 545.041 809.147 544.099C809.147 543.157 808.383 542.394 807.441 542.394C806.499 542.394 805.735 543.157 805.735 544.099C805.735 545.041 806.499 545.804 807.441 545.804Z" fill="#BABCD4"/>
<path d="M867.719 545.804C868.661 545.804 869.425 545.041 869.425 544.099C869.425 543.157 868.661 542.394 867.719 542.394C866.777 542.394 866.013 543.157 866.013 544.099C866.013 545.041 866.777 545.804 867.719 545.804Z" fill="#BABCD4"/>
<path d="M927.997 545.804C928.939 545.804 929.703 545.041 929.703 544.099C929.703 543.157 928.939 542.394 927.997 542.394C927.055 542.394 926.292 543.157 926.292 544.099C926.292 545.041 927.055 545.804 927.997 545.804Z" fill="#BABCD4"/>
<path d="M988.276 545.804C989.218 545.804 989.982 545.041 989.982 544.099C989.982 543.157 989.218 542.394 988.276 542.394C987.334 542.394 986.57 543.157 986.57 544.099C986.57 545.041 987.334 545.804 988.276 545.804Z" fill="#BABCD4"/>
<path d="M1048.55 545.804C1049.5 545.804 1050.26 545.041 1050.26 544.099C1050.26 543.157 1049.5 542.394 1048.55 542.394C1047.61 542.394 1046.85 543.157 1046.85 544.099C1046.85 545.041 1047.61 545.804 1048.55 545.804Z" fill="#BABCD4"/>
<path d="M1108.83 545.804C1109.78 545.804 1110.54 545.041 1110.54 544.099C1110.54 543.157 1109.78 542.394 1108.83 542.394C1107.89 542.394 1107.13 543.157 1107.13 544.099C1107.13 545.041 1107.89 545.804 1108.83 545.804Z" fill="#BABCD4"/>
<path d="M23.8203 606.07C24.7623 606.07 25.526 605.307 25.526 604.365C25.526 603.423 24.7623 602.66 23.8203 602.66C22.8783 602.66 22.1147 603.423 22.1147 604.365C22.1147 605.307 22.8783 606.07 23.8203 606.07Z" fill="#BABCD4"/>
<path d="M84.0982 606.07C85.0402 606.07 85.8039 605.307 85.8039 604.365C85.8039 603.423 85.0402 602.66 84.0982 602.66C83.1562 602.66 82.3926 603.423 82.3926 604.365C82.3926 605.307 83.1562 606.07 84.0982 606.07Z" fill="#BABCD4"/>
<path d="M144.376 606.07C145.318 606.07 146.082 605.307 146.082 604.365C146.082 603.423 145.318 602.66 144.376 602.66C143.434 602.66 142.671 603.423 142.671 604.365C142.671 605.307 143.434 606.07 144.376 606.07Z" fill="#BABCD4"/>
<path d="M204.656 606.07C205.598 606.07 206.361 605.307 206.361 604.365C206.361 603.423 205.598 602.66 204.656 602.66C203.714 602.66 202.95 603.423 202.95 604.365C202.95 605.307 203.714 606.07 204.656 606.07Z" fill="#BABCD4"/>
<path d="M264.934 606.07C265.876 606.07 266.64 605.307 266.64 604.365C266.64 603.423 265.876 602.66 264.934 602.66C263.992 602.66 263.228 603.423 263.228 604.365C263.228 605.307 263.992 606.07 264.934 606.07Z" fill="#BABCD4"/>
<path d="M325.213 606.07C326.155 606.07 326.919 605.307 326.919 604.365C326.919 603.423 326.155 602.66 325.213 602.66C324.271 602.66 323.507 603.423 323.507 604.365C323.507 605.307 324.271 606.07 325.213 606.07Z" fill="#BABCD4"/>
<path d="M385.491 606.07C386.433 606.07 387.197 605.307 387.197 604.365C387.197 603.423 386.433 602.66 385.491 602.66C384.549 602.66 383.785 603.423 383.785 604.365C383.785 605.307 384.549 606.07 385.491 606.07Z" fill="#BABCD4"/>
<path d="M445.769 606.07C446.711 606.07 447.475 605.307 447.475 604.365C447.475 603.423 446.711 602.66 445.769 602.66C444.827 602.66 444.063 603.423 444.063 604.365C444.063 605.307 444.827 606.07 445.769 606.07Z" fill="#BABCD4"/>
<path d="M506.048 606.07C506.99 606.07 507.754 605.307 507.754 604.365C507.754 603.423 506.99 602.66 506.048 602.66C505.106 602.66 504.342 603.423 504.342 604.365C504.342 605.307 505.106 606.07 506.048 606.07Z" fill="#BABCD4"/>
<path d="M566.326 606.07C567.268 606.07 568.032 605.307 568.032 604.365C568.032 603.423 567.268 602.66 566.326 602.66C565.384 602.66 564.621 603.423 564.621 604.365C564.621 605.307 565.384 606.07 566.326 606.07Z" fill="#BABCD4"/>
<path d="M626.604 606.07C627.546 606.07 628.31 605.307 628.31 604.365C628.31 603.423 627.546 602.66 626.604 602.66C625.662 602.66 624.899 603.423 624.899 604.365C624.899 605.307 625.662 606.07 626.604 606.07Z" fill="#BABCD4"/>
<path d="M686.884 606.07C687.826 606.07 688.589 605.307 688.589 604.365C688.589 603.423 687.826 602.66 686.884 602.66C685.942 602.66 685.178 603.423 685.178 604.365C685.178 605.307 685.942 606.07 686.884 606.07Z" fill="#BABCD4"/>
<path d="M747.162 606.07C748.104 606.07 748.867 605.307 748.867 604.365C748.867 603.423 748.104 602.66 747.162 602.66C746.22 602.66 745.456 603.423 745.456 604.365C745.456 605.307 746.22 606.07 747.162 606.07Z" fill="#BABCD4"/>
<path d="M807.441 606.07C808.383 606.07 809.147 605.307 809.147 604.365C809.147 603.423 808.383 602.66 807.441 602.66C806.499 602.66 805.735 603.423 805.735 604.365C805.735 605.307 806.499 606.07 807.441 606.07Z" fill="#BABCD4"/>
<path d="M867.719 606.07C868.661 606.07 869.425 605.307 869.425 604.365C869.425 603.423 868.661 602.66 867.719 602.66C866.777 602.66 866.013 603.423 866.013 604.365C866.013 605.307 866.777 606.07 867.719 606.07Z" fill="#BABCD4"/>
<path d="M927.997 606.07C928.939 606.07 929.703 605.307 929.703 604.365C929.703 603.423 928.939 602.66 927.997 602.66C927.055 602.66 926.292 603.423 926.292 604.365C926.292 605.307 927.055 606.07 927.997 606.07Z" fill="#BABCD4"/>
<path d="M988.276 606.07C989.218 606.07 989.982 605.307 989.982 604.365C989.982 603.423 989.218 602.66 988.276 602.66C987.334 602.66 986.57 603.423 986.57 604.365C986.57 605.307 987.334 606.07 988.276 606.07Z" fill="#BABCD4"/>
<path d="M1048.55 606.07C1049.5 606.07 1050.26 605.307 1050.26 604.365C1050.26 603.423 1049.5 602.66 1048.55 602.66C1047.61 602.66 1046.85 603.423 1046.85 604.365C1046.85 605.307 1047.61 606.07 1048.55 606.07Z" fill="#BABCD4"/>
<path d="M1108.83 606.07C1109.78 606.07 1110.54 605.307 1110.54 604.365C1110.54 603.423 1109.78 602.66 1108.83 602.66C1107.89 602.66 1107.13 603.423 1107.13 604.365C1107.13 605.307 1107.89 606.07 1108.83 606.07Z" fill="#BABCD4"/>
<path d="M23.8203 666.336C24.7623 666.336 25.526 665.573 25.526 664.631C25.526 663.689 24.7623 662.926 23.8203 662.926C22.8783 662.926 22.1147 663.689 22.1147 664.631C22.1147 665.573 22.8783 666.336 23.8203 666.336Z" fill="#BABCD4"/>
<path d="M84.0982 666.336C85.0402 666.336 85.8039 665.573 85.8039 664.631C85.8039 663.689 85.0402 662.926 84.0982 662.926C83.1562 662.926 82.3926 663.689 82.3926 664.631C82.3926 665.573 83.1562 666.336 84.0982 666.336Z" fill="#BABCD4"/>
<path d="M144.376 666.336C145.318 666.336 146.082 665.573 146.082 664.631C146.082 663.689 145.318 662.926 144.376 662.926C143.434 662.926 142.671 663.689 142.671 664.631C142.671 665.573 143.434 666.336 144.376 666.336Z" fill="#BABCD4"/>
<path d="M204.656 666.336C205.598 666.336 206.361 665.573 206.361 664.631C206.361 663.689 205.598 662.926 204.656 662.926C203.714 662.926 202.95 663.689 202.95 664.631C202.95 665.573 203.714 666.336 204.656 666.336Z" fill="#BABCD4"/>
<path d="M264.934 666.336C265.876 666.336 266.64 665.573 266.64 664.631C266.64 663.689 265.876 662.926 264.934 662.926C263.992 662.926 263.228 663.689 263.228 664.631C263.228 665.573 263.992 666.336 264.934 666.336Z" fill="#BABCD4"/>
<path d="M325.213 666.336C326.155 666.336 326.919 665.573 326.919 664.631C326.919 663.689 326.155 662.926 325.213 662.926C324.271 662.926 323.507 663.689 323.507 664.631C323.507 665.573 324.271 666.336 325.213 666.336Z" fill="#BABCD4"/>
<path d="M385.491 666.336C386.433 666.336 387.197 665.573 387.197 664.631C387.197 663.689 386.433 662.926 385.491 662.926C384.549 662.926 383.785 663.689 383.785 664.631C383.785 665.573 384.549 666.336 385.491 666.336Z" fill="#BABCD4"/>
<path d="M445.769 666.336C446.711 666.336 447.475 665.573 447.475 664.631C447.475 663.689 446.711 662.926 445.769 662.926C444.827 662.926 444.063 663.689 444.063 664.631C444.063 665.573 444.827 666.336 445.769 666.336Z" fill="#BABCD4"/>
<path d="M506.048 666.336C506.99 666.336 507.754 665.573 507.754 664.631C507.754 663.689 506.99 662.926 506.048 662.926C505.106 662.926 504.342 663.689 504.342 664.631C504.342 665.573 505.106 666.336 506.048 666.336Z" fill="#BABCD4"/>
<path d="M566.326 666.336C567.268 666.336 568.032 665.573 568.032 664.631C568.032 663.689 567.268 662.926 566.326 662.926C565.384 662.926 564.621 663.689 564.621 664.631C564.621 665.573 565.384 666.336 566.326 666.336Z" fill="#BABCD4"/>
<path d="M626.604 666.336C627.546 666.336 628.31 665.573 628.31 664.631C628.31 663.689 627.546 662.926 626.604 662.926C625.662 662.926 624.899 663.689 624.899 664.631C624.899 665.573 625.662 666.336 626.604 666.336Z" fill="#BABCD4"/>
<path d="M686.884 666.336C687.826 666.336 688.589 665.573 688.589 664.631C688.589 663.689 687.826 662.926 686.884 662.926C685.942 662.926 685.178 663.689 685.178 664.631C685.178 665.573 685.942 666.336 686.884 666.336Z" fill="#BABCD4"/>
<path d="M747.162 666.336C748.104 666.336 748.867 665.573 748.867 664.631C748.867 663.689 748.104 662.926 747.162 662.926C746.22 662.926 745.456 663.689 745.456 664.631C745.456 665.573 746.22 666.336 747.162 666.336Z" fill="#BABCD4"/>
<path d="M807.441 666.336C808.383 666.336 809.147 665.573 809.147 664.631C809.147 663.689 808.383 662.926 807.441 662.926C806.499 662.926 805.735 663.689 805.735 664.631C805.735 665.573 806.499 666.336 807.441 666.336Z" fill="#BABCD4"/>
<path d="M867.719 666.336C868.661 666.336 869.425 665.573 869.425 664.631C869.425 663.689 868.661 662.926 867.719 662.926C866.777 662.926 866.013 663.689 866.013 664.631C866.013 665.573 866.777 666.336 867.719 666.336Z" fill="#BABCD4"/>
<path d="M927.997 666.336C928.939 666.336 929.703 665.573 929.703 664.631C929.703 663.689 928.939 662.926 927.997 662.926C927.055 662.926 926.292 663.689 926.292 664.631C926.292 665.573 927.055 666.336 927.997 666.336Z" fill="#BABCD4"/>
<path d="M988.276 666.336C989.218 666.336 989.982 665.573 989.982 664.631C989.982 663.689 989.218 662.926 988.276 662.926C987.334 662.926 986.57 663.689 986.57 664.631C986.57 665.573 987.334 666.336 988.276 666.336Z" fill="#BABCD4"/>
<path d="M1048.55 666.336C1049.5 666.336 1050.26 665.573 1050.26 664.631C1050.26 663.689 1049.5 662.926 1048.55 662.926C1047.61 662.926 1046.85 663.689 1046.85 664.631C1046.85 665.573 1047.61 666.336 1048.55 666.336Z" fill="#BABCD4"/>
<path d="M1108.83 666.336C1109.78 666.336 1110.54 665.573 1110.54 664.631C1110.54 663.689 1109.78 662.926 1108.83 662.926C1107.89 662.926 1107.13 663.689 1107.13 664.631C1107.13 665.573 1107.89 666.336 1108.83 666.336Z" fill="#BABCD4"/>
<path d="M23.8203 726.602C24.7623 726.602 25.526 725.839 25.526 724.897C25.526 723.955 24.7623 723.191 23.8203 723.191C22.8783 723.191 22.1147 723.955 22.1147 724.897C22.1147 725.839 22.8783 726.602 23.8203 726.602Z" fill="#BABCD4"/>
<path d="M84.0982 726.602C85.0402 726.602 85.8039 725.839 85.8039 724.897C85.8039 723.955 85.0402 723.191 84.0982 723.191C83.1562 723.191 82.3926 723.955 82.3926 724.897C82.3926 725.839 83.1562 726.602 84.0982 726.602Z" fill="#BABCD4"/>
<path d="M144.376 726.602C145.318 726.602 146.082 725.839 146.082 724.897C146.082 723.955 145.318 723.191 144.376 723.191C143.434 723.191 142.671 723.955 142.671 724.897C142.671 725.839 143.434 726.602 144.376 726.602Z" fill="#BABCD4"/>
<path d="M204.656 726.602C205.598 726.602 206.361 725.839 206.361 724.897C206.361 723.955 205.598 723.191 204.656 723.191C203.714 723.191 202.95 723.955 202.95 724.897C202.95 725.839 203.714 726.602 204.656 726.602Z" fill="#BABCD4"/>
<path d="M264.934 726.602C265.876 726.602 266.64 725.839 266.64 724.897C266.64 723.955 265.876 723.191 264.934 723.191C263.992 723.191 263.228 723.955 263.228 724.897C263.228 725.839 263.992 726.602 264.934 726.602Z" fill="#BABCD4"/>
<path d="M325.213 726.602C326.155 726.602 326.919 725.839 326.919 724.897C326.919 723.955 326.155 723.191 325.213 723.191C324.271 723.191 323.507 723.955 323.507 724.897C323.507 725.839 324.271 726.602 325.213 726.602Z" fill="#BABCD4"/>
<path d="M385.491 726.602C386.433 726.602 387.197 725.839 387.197 724.897C387.197 723.955 386.433 723.191 385.491 723.191C384.549 723.191 383.785 723.955 383.785 724.897C383.785 725.839 384.549 726.602 385.491 726.602Z" fill="#BABCD4"/>
<path d="M445.769 726.602C446.711 726.602 447.475 725.839 447.475 724.897C447.475 723.955 446.711 723.191 445.769 723.191C444.827 723.191 444.063 723.955 444.063 724.897C444.063 725.839 444.827 726.602 445.769 726.602Z" fill="#BABCD4"/>
<path d="M506.048 726.602C506.99 726.602 507.754 725.839 507.754 724.897C507.754 723.955 506.99 723.191 506.048 723.191C505.106 723.191 504.342 723.955 504.342 724.897C504.342 725.839 505.106 726.602 506.048 726.602Z" fill="#BABCD4"/>
<path d="M566.326 726.602C567.268 726.602 568.032 725.839 568.032 724.897C568.032 723.955 567.268 723.191 566.326 723.191C565.384 723.191 564.621 723.955 564.621 724.897C564.621 725.839 565.384 726.602 566.326 726.602Z" fill="#BABCD4"/>
<path d="M626.604 726.602C627.546 726.602 628.31 725.839 628.31 724.897C628.31 723.955 627.546 723.191 626.604 723.191C625.662 723.191 624.899 723.955 624.899 724.897C624.899 725.839 625.662 726.602 626.604 726.602Z" fill="#BABCD4"/>
<path d="M686.884 726.602C687.826 726.602 688.589 725.839 688.589 724.897C688.589 723.955 687.826 723.191 686.884 723.191C685.942 723.191 685.178 723.955 685.178 724.897C685.178 725.839 685.942 726.602 686.884 726.602Z" fill="#BABCD4"/>
<path d="M747.162 726.602C748.104 726.602 748.867 725.839 748.867 724.897C748.867 723.955 748.104 723.191 747.162 723.191C746.22 723.191 745.456 723.955 745.456 724.897C745.456 725.839 746.22 726.602 747.162 726.602Z" fill="#BABCD4"/>
<path d="M807.441 726.602C808.383 726.602 809.147 725.839 809.147 724.897C809.147 723.955 808.383 723.191 807.441 723.191C806.499 723.191 805.735 723.955 805.735 724.897C805.735 725.839 806.499 726.602 807.441 726.602Z" fill="#BABCD4"/>
<path d="M867.719 726.602C868.661 726.602 869.425 725.839 869.425 724.897C869.425 723.955 868.661 723.191 867.719 723.191C866.777 723.191 866.013 723.955 866.013 724.897C866.013 725.839 866.777 726.602 867.719 726.602Z" fill="#BABCD4"/>
<path d="M927.997 726.602C928.939 726.602 929.703 725.839 929.703 724.897C929.703 723.955 928.939 723.191 927.997 723.191C927.055 723.191 926.292 723.955 926.292 724.897C926.292 725.839 927.055 726.602 927.997 726.602Z" fill="#BABCD4"/>
<path d="M988.276 726.602C989.218 726.602 989.982 725.839 989.982 724.897C989.982 723.955 989.218 723.191 988.276 723.191C987.334 723.191 986.57 723.955 986.57 724.897C986.57 725.839 987.334 726.602 988.276 726.602Z" fill="#BABCD4"/>
<path d="M1048.55 726.602C1049.5 726.602 1050.26 725.839 1050.26 724.897C1050.26 723.955 1049.5 723.191 1048.55 723.191C1047.61 723.191 1046.85 723.955 1046.85 724.897C1046.85 725.839 1047.61 726.602 1048.55 726.602Z" fill="#BABCD4"/>
<path d="M1108.83 726.602C1109.78 726.602 1110.54 725.839 1110.54 724.897C1110.54 723.955 1109.78 723.191 1108.83 723.191C1107.89 723.191 1107.13 723.955 1107.13 724.897C1107.13 725.839 1107.89 726.602 1108.83 726.602Z" fill="#BABCD4"/>
<path d="M23.8203 786.868C24.7623 786.868 25.526 786.105 25.526 785.163C25.526 784.221 24.7623 783.458 23.8203 783.458C22.8783 783.458 22.1147 784.221 22.1147 785.163C22.1147 786.105 22.8783 786.868 23.8203 786.868Z" fill="#BABCD4"/>
<path d="M84.0982 786.868C85.0402 786.868 85.8039 786.105 85.8039 785.163C85.8039 784.221 85.0402 783.458 84.0982 783.458C83.1562 783.458 82.3926 784.221 82.3926 785.163C82.3926 786.105 83.1562 786.868 84.0982 786.868Z" fill="#BABCD4"/>
<path d="M144.376 786.868C145.318 786.868 146.082 786.105 146.082 785.163C146.082 784.221 145.318 783.458 144.376 783.458C143.434 783.458 142.671 784.221 142.671 785.163C142.671 786.105 143.434 786.868 144.376 786.868Z" fill="#BABCD4"/>
<path d="M204.656 786.868C205.598 786.868 206.361 786.105 206.361 785.163C206.361 784.221 205.598 783.458 204.656 783.458C203.714 783.458 202.95 784.221 202.95 785.163C202.95 786.105 203.714 786.868 204.656 786.868Z" fill="#BABCD4"/>
<path d="M264.934 786.868C265.876 786.868 266.64 786.105 266.64 785.163C266.64 784.221 265.876 783.458 264.934 783.458C263.992 783.458 263.228 784.221 263.228 785.163C263.228 786.105 263.992 786.868 264.934 786.868Z" fill="#BABCD4"/>
<path d="M325.213 786.868C326.155 786.868 326.919 786.105 326.919 785.163C326.919 784.221 326.155 783.458 325.213 783.458C324.271 783.458 323.507 784.221 323.507 785.163C323.507 786.105 324.271 786.868 325.213 786.868Z" fill="#BABCD4"/>
<path d="M385.491 786.868C386.433 786.868 387.197 786.105 387.197 785.163C387.197 784.221 386.433 783.458 385.491 783.458C384.549 783.458 383.785 784.221 383.785 785.163C383.785 786.105 384.549 786.868 385.491 786.868Z" fill="#BABCD4"/>
<path d="M445.769 786.868C446.711 786.868 447.475 786.105 447.475 785.163C447.475 784.221 446.711 783.458 445.769 783.458C444.827 783.458 444.063 784.221 444.063 785.163C444.063 786.105 444.827 786.868 445.769 786.868Z" fill="#BABCD4"/>
<path d="M506.048 786.868C506.99 786.868 507.754 786.105 507.754 785.163C507.754 784.221 506.99 783.457 506.048 783.457C505.106 783.457 504.342 784.221 504.342 785.163C504.342 786.105 505.106 786.868 506.048 786.868Z" fill="#BABCD4"/>
<path d="M566.326 786.868C567.268 786.868 568.032 786.105 568.032 785.163C568.032 784.221 567.268 783.458 566.326 783.458C565.384 783.458 564.621 784.221 564.621 785.163C564.621 786.105 565.384 786.868 566.326 786.868Z" fill="#BABCD4"/>
<path d="M626.604 786.868C627.546 786.868 628.31 786.105 628.31 785.163C628.31 784.221 627.546 783.458 626.604 783.458C625.662 783.458 624.899 784.221 624.899 785.163C624.899 786.105 625.662 786.868 626.604 786.868Z" fill="#BABCD4"/>
<path d="M686.884 786.868C687.826 786.868 688.589 786.105 688.589 785.163C688.589 784.221 687.826 783.458 686.884 783.458C685.942 783.458 685.178 784.221 685.178 785.163C685.178 786.105 685.942 786.868 686.884 786.868Z" fill="#BABCD4"/>
<path d="M747.162 786.868C748.104 786.868 748.867 786.105 748.867 785.163C748.867 784.221 748.104 783.458 747.162 783.458C746.22 783.458 745.456 784.221 745.456 785.163C745.456 786.105 746.22 786.868 747.162 786.868Z" fill="#BABCD4"/>
<path d="M807.441 786.868C808.383 786.868 809.147 786.105 809.147 785.163C809.147 784.221 808.383 783.458 807.441 783.458C806.499 783.458 805.735 784.221 805.735 785.163C805.735 786.105 806.499 786.868 807.441 786.868Z" fill="#BABCD4"/>
<path d="M867.719 786.868C868.661 786.868 869.425 786.105 869.425 785.163C869.425 784.221 868.661 783.458 867.719 783.458C866.777 783.458 866.013 784.221 866.013 785.163C866.013 786.105 866.777 786.868 867.719 786.868Z" fill="#BABCD4"/>
<path d="M927.997 786.868C928.939 786.868 929.703 786.105 929.703 785.163C929.703 784.221 928.939 783.458 927.997 783.458C927.055 783.458 926.292 784.221 926.292 785.163C926.292 786.105 927.055 786.868 927.997 786.868Z" fill="#BABCD4"/>
<path d="M988.276 786.868C989.218 786.868 989.982 786.105 989.982 785.163C989.982 784.221 989.218 783.458 988.276 783.458C987.334 783.458 986.57 784.221 986.57 785.163C986.57 786.105 987.334 786.868 988.276 786.868Z" fill="#BABCD4"/>
<path d="M1048.55 786.868C1049.5 786.868 1050.26 786.105 1050.26 785.163C1050.26 784.221 1049.5 783.458 1048.55 783.458C1047.61 783.458 1046.85 784.221 1046.85 785.163C1046.85 786.105 1047.61 786.868 1048.55 786.868Z" fill="#BABCD4"/>
<path d="M1108.83 786.868C1109.78 786.868 1110.54 786.105 1110.54 785.163C1110.54 784.221 1109.78 783.458 1108.83 783.458C1107.89 783.458 1107.13 784.221 1107.13 785.163C1107.13 786.105 1107.89 786.868 1108.83 786.868Z" fill="#BABCD4"/>
<path d="M23.8203 847.134C24.7623 847.134 25.526 846.37 25.526 845.429C25.526 844.487 24.7623 843.723 23.8203 843.723C22.8783 843.723 22.1147 844.487 22.1147 845.429C22.1147 846.37 22.8783 847.134 23.8203 847.134Z" fill="#BABCD4"/>
<path d="M84.0982 847.134C85.0402 847.134 85.8039 846.37 85.8039 845.429C85.8039 844.487 85.0402 843.723 84.0982 843.723C83.1562 843.723 82.3926 844.487 82.3926 845.429C82.3926 846.37 83.1562 847.134 84.0982 847.134Z" fill="#BABCD4"/>
<path d="M144.376 847.134C145.318 847.134 146.082 846.37 146.082 845.429C146.082 844.487 145.318 843.723 144.376 843.723C143.434 843.723 142.671 844.487 142.671 845.429C142.671 846.37 143.434 847.134 144.376 847.134Z" fill="#BABCD4"/>
<path d="M204.656 847.134C205.598 847.134 206.361 846.37 206.361 845.429C206.361 844.487 205.598 843.723 204.656 843.723C203.714 843.723 202.95 844.487 202.95 845.429C202.95 846.37 203.714 847.134 204.656 847.134Z" fill="#BABCD4"/>
<path d="M264.934 847.134C265.876 847.134 266.64 846.37 266.64 845.429C266.64 844.487 265.876 843.723 264.934 843.723C263.992 843.723 263.228 844.487 263.228 845.429C263.228 846.37 263.992 847.134 264.934 847.134Z" fill="#BABCD4"/>
<path d="M325.213 847.134C326.155 847.134 326.919 846.37 326.919 845.429C326.919 844.487 326.155 843.723 325.213 843.723C324.271 843.723 323.507 844.487 323.507 845.429C323.507 846.37 324.271 847.134 325.213 847.134Z" fill="#BABCD4"/>
<path d="M385.491 847.134C386.433 847.134 387.197 846.37 387.197 845.429C387.197 844.487 386.433 843.723 385.491 843.723C384.549 843.723 383.785 844.487 383.785 845.429C383.785 846.37 384.549 847.134 385.491 847.134Z" fill="#BABCD4"/>
<path d="M445.769 847.134C446.711 847.134 447.475 846.37 447.475 845.429C447.475 844.487 446.711 843.723 445.769 843.723C444.827 843.723 444.063 844.487 444.063 845.429C444.063 846.37 444.827 847.134 445.769 847.134Z" fill="#BABCD4"/>
<path d="M506.048 847.134C506.99 847.134 507.754 846.37 507.754 845.429C507.754 844.487 506.99 843.723 506.048 843.723C505.106 843.723 504.342 844.487 504.342 845.429C504.342 846.37 505.106 847.134 506.048 847.134Z" fill="#BABCD4"/>
<path d="M566.326 847.134C567.268 847.134 568.032 846.37 568.032 845.429C568.032 844.487 567.268 843.723 566.326 843.723C565.384 843.723 564.621 844.487 564.621 845.429C564.621 846.37 565.384 847.134 566.326 847.134Z" fill="#BABCD4"/>
<path d="M626.604 847.134C627.546 847.134 628.31 846.37 628.31 845.429C628.31 844.487 627.546 843.723 626.604 843.723C625.662 843.723 624.899 844.487 624.899 845.429C624.899 846.37 625.662 847.134 626.604 847.134Z" fill="#BABCD4"/>
<path d="M686.884 847.134C687.826 847.134 688.589 846.37 688.589 845.429C688.589 844.487 687.826 843.723 686.884 843.723C685.942 843.723 685.178 844.487 685.178 845.429C685.178 846.37 685.942 847.134 686.884 847.134Z" fill="#BABCD4"/>
<path d="M747.162 847.134C748.104 847.134 748.867 846.37 748.867 845.429C748.867 844.487 748.104 843.723 747.162 843.723C746.22 843.723 745.456 844.487 745.456 845.429C745.456 846.37 746.22 847.134 747.162 847.134Z" fill="#BABCD4"/>
<path d="M807.441 847.134C808.383 847.134 809.147 846.37 809.147 845.429C809.147 844.487 808.383 843.723 807.441 843.723C806.499 843.723 805.735 844.487 805.735 845.429C805.735 846.37 806.499 847.134 807.441 847.134Z" fill="#BABCD4"/>
<path d="M867.719 847.134C868.661 847.134 869.425 846.37 869.425 845.429C869.425 844.487 868.661 843.723 867.719 843.723C866.777 843.723 866.013 844.487 866.013 845.429C866.013 846.37 866.777 847.134 867.719 847.134Z" fill="#BABCD4"/>
<path d="M927.997 847.134C928.939 847.134 929.703 846.37 929.703 845.429C929.703 844.487 928.939 843.723 927.997 843.723C927.055 843.723 926.292 844.487 926.292 845.429C926.292 846.37 927.055 847.134 927.997 847.134Z" fill="#BABCD4"/>
<path d="M988.276 847.134C989.218 847.134 989.982 846.37 989.982 845.429C989.982 844.487 989.218 843.723 988.276 843.723C987.334 843.723 986.57 844.487 986.57 845.429C986.57 846.37 987.334 847.134 988.276 847.134Z" fill="#BABCD4"/>
<path d="M1048.55 847.134C1049.5 847.134 1050.26 846.37 1050.26 845.429C1050.26 844.487 1049.5 843.723 1048.55 843.723C1047.61 843.723 1046.85 844.487 1046.85 845.429C1046.85 846.37 1047.61 847.134 1048.55 847.134Z" fill="#BABCD4"/>
<path d="M1108.83 847.134C1109.78 847.134 1110.54 846.37 1110.54 845.429C1110.54 844.487 1109.78 843.723 1108.83 843.723C1107.89 843.723 1107.13 844.487 1107.13 845.429C1107.13 846.37 1107.89 847.134 1108.83 847.134Z" fill="#BABCD4"/>
<path d="M23.8203 907.4C24.7623 907.4 25.526 906.636 25.526 905.695C25.526 904.753 24.7623 903.989 23.8203 903.989C22.8783 903.989 22.1147 904.753 22.1147 905.695C22.1147 906.636 22.8783 907.4 23.8203 907.4Z" fill="#BABCD4"/>
<path d="M84.0982 907.4C85.0402 907.4 85.8039 906.636 85.8039 905.695C85.8039 904.753 85.0402 903.989 84.0982 903.989C83.1562 903.989 82.3926 904.753 82.3926 905.695C82.3926 906.636 83.1562 907.4 84.0982 907.4Z" fill="#BABCD4"/>
<path d="M144.376 907.4C145.318 907.4 146.082 906.636 146.082 905.695C146.082 904.753 145.318 903.989 144.376 903.989C143.434 903.989 142.671 904.753 142.671 905.695C142.671 906.636 143.434 907.4 144.376 907.4Z" fill="#BABCD4"/>
<path d="M204.656 907.4C205.598 907.4 206.361 906.636 206.361 905.695C206.361 904.753 205.598 903.989 204.656 903.989C203.714 903.989 202.95 904.753 202.95 905.695C202.95 906.636 203.714 907.4 204.656 907.4Z" fill="#BABCD4"/>
<path d="M264.934 907.4C265.876 907.4 266.64 906.636 266.64 905.695C266.64 904.753 265.876 903.989 264.934 903.989C263.992 903.989 263.228 904.753 263.228 905.695C263.228 906.636 263.992 907.4 264.934 907.4Z" fill="#BABCD4"/>
<path d="M325.213 907.4C326.155 907.4 326.919 906.636 326.919 905.695C326.919 904.753 326.155 903.989 325.213 903.989C324.271 903.989 323.507 904.753 323.507 905.695C323.507 906.636 324.271 907.4 325.213 907.4Z" fill="#BABCD4"/>
<path d="M385.491 907.4C386.433 907.4 387.197 906.636 387.197 905.695C387.197 904.753 386.433 903.989 385.491 903.989C384.549 903.989 383.785 904.753 383.785 905.695C383.785 906.636 384.549 907.4 385.491 907.4Z" fill="#BABCD4"/>
<path d="M445.769 907.4C446.711 907.4 447.475 906.636 447.475 905.695C447.475 904.753 446.711 903.989 445.769 903.989C444.827 903.989 444.063 904.753 444.063 905.695C444.063 906.636 444.827 907.4 445.769 907.4Z" fill="#BABCD4"/>
<path d="M506.048 907.4C506.99 907.4 507.754 906.636 507.754 905.695C507.754 904.753 506.99 903.989 506.048 903.989C505.106 903.989 504.342 904.753 504.342 905.695C504.342 906.636 505.106 907.4 506.048 907.4Z" fill="#BABCD4"/>
<path d="M566.326 907.4C567.268 907.4 568.032 906.636 568.032 905.695C568.032 904.753 567.268 903.989 566.326 903.989C565.384 903.989 564.621 904.753 564.621 905.695C564.621 906.636 565.384 907.4 566.326 907.4Z" fill="#BABCD4"/>
<path d="M626.604 907.4C627.546 907.4 628.31 906.636 628.31 905.695C628.31 904.753 627.546 903.989 626.604 903.989C625.662 903.989 624.899 904.753 624.899 905.695C624.899 906.636 625.662 907.4 626.604 907.4Z" fill="#BABCD4"/>
<path d="M686.884 907.4C687.826 907.4 688.589 906.636 688.589 905.695C688.589 904.753 687.826 903.989 686.884 903.989C685.942 903.989 685.178 904.753 685.178 905.695C685.178 906.636 685.942 907.4 686.884 907.4Z" fill="#BABCD4"/>
<path d="M747.162 907.4C748.104 907.4 748.867 906.636 748.867 905.695C748.867 904.753 748.104 903.989 747.162 903.989C746.22 903.989 745.456 904.753 745.456 905.695C745.456 906.636 746.22 907.4 747.162 907.4Z" fill="#BABCD4"/>
<path d="M807.441 907.4C808.383 907.4 809.147 906.636 809.147 905.695C809.147 904.753 808.383 903.989 807.441 903.989C806.499 903.989 805.735 904.753 805.735 905.695C805.735 906.636 806.499 907.4 807.441 907.4Z" fill="#BABCD4"/>
<path d="M867.719 907.4C868.661 907.4 869.425 906.636 869.425 905.695C869.425 904.753 868.661 903.989 867.719 903.989C866.777 903.989 866.013 904.753 866.013 905.695C866.013 906.636 866.777 907.4 867.719 907.4Z" fill="#BABCD4"/>
<path d="M927.997 907.4C928.939 907.4 929.703 906.636 929.703 905.695C929.703 904.753 928.939 903.989 927.997 903.989C927.055 903.989 926.292 904.753 926.292 905.695C926.292 906.636 927.055 907.4 927.997 907.4Z" fill="#BABCD4"/>
<path d="M988.276 907.4C989.218 907.4 989.982 906.636 989.982 905.695C989.982 904.753 989.218 903.989 988.276 903.989C987.334 903.989 986.57 904.753 986.57 905.695C986.57 906.636 987.334 907.4 988.276 907.4Z" fill="#BABCD4"/>
<path d="M1048.55 907.4C1049.5 907.4 1050.26 906.636 1050.26 905.695C1050.26 904.753 1049.5 903.989 1048.55 903.989C1047.61 903.989 1046.85 904.753 1046.85 905.695C1046.85 906.636 1047.61 907.4 1048.55 907.4Z" fill="#BABCD4"/>
<path d="M1108.83 907.4C1109.78 907.4 1110.54 906.636 1110.54 905.695C1110.54 904.753 1109.78 903.989 1108.83 903.989C1107.89 903.989 1107.13 904.753 1107.13 905.695C1107.13 906.636 1107.89 907.4 1108.83 907.4Z" fill="#BABCD4"/>
<path d="M23.8203 967.666C24.7623 967.666 25.526 966.902 25.526 965.961C25.526 965.019 24.7623 964.255 23.8203 964.255C22.8783 964.255 22.1147 965.019 22.1147 965.961C22.1147 966.902 22.8783 967.666 23.8203 967.666Z" fill="#BABCD4"/>
<path d="M84.0982 967.666C85.0402 967.666 85.8039 966.902 85.8039 965.961C85.8039 965.019 85.0402 964.255 84.0982 964.255C83.1562 964.255 82.3926 965.019 82.3926 965.961C82.3926 966.902 83.1562 967.666 84.0982 967.666Z" fill="#BABCD4"/>
<path d="M144.376 967.666C145.318 967.666 146.082 966.902 146.082 965.961C146.082 965.019 145.318 964.255 144.376 964.255C143.434 964.255 142.671 965.019 142.671 965.961C142.671 966.902 143.434 967.666 144.376 967.666Z" fill="#BABCD4"/>
<path d="M204.656 967.666C205.598 967.666 206.361 966.902 206.361 965.961C206.361 965.019 205.598 964.255 204.656 964.255C203.714 964.255 202.95 965.019 202.95 965.961C202.95 966.902 203.714 967.666 204.656 967.666Z" fill="#BABCD4"/>
<path d="M264.934 967.666C265.876 967.666 266.64 966.902 266.64 965.961C266.64 965.019 265.876 964.255 264.934 964.255C263.992 964.255 263.228 965.019 263.228 965.961C263.228 966.902 263.992 967.666 264.934 967.666Z" fill="#BABCD4"/>
<path d="M325.213 967.666C326.155 967.666 326.919 966.902 326.919 965.961C326.919 965.019 326.155 964.255 325.213 964.255C324.271 964.255 323.507 965.019 323.507 965.961C323.507 966.902 324.271 967.666 325.213 967.666Z" fill="#BABCD4"/>
<path d="M385.491 967.666C386.433 967.666 387.197 966.902 387.197 965.961C387.197 965.019 386.433 964.255 385.491 964.255C384.549 964.255 383.785 965.019 383.785 965.961C383.785 966.902 384.549 967.666 385.491 967.666Z" fill="#BABCD4"/>
<path d="M445.769 967.666C446.711 967.666 447.475 966.902 447.475 965.961C447.475 965.019 446.711 964.255 445.769 964.255C444.827 964.255 444.063 965.019 444.063 965.961C444.063 966.902 444.827 967.666 445.769 967.666Z" fill="#BABCD4"/>
<path d="M506.048 967.666C506.99 967.666 507.754 966.902 507.754 965.961C507.754 965.019 506.99 964.255 506.048 964.255C505.106 964.255 504.342 965.019 504.342 965.961C504.342 966.902 505.106 967.666 506.048 967.666Z" fill="#BABCD4"/>
<path d="M566.326 967.666C567.268 967.666 568.032 966.902 568.032 965.961C568.032 965.019 567.268 964.255 566.326 964.255C565.384 964.255 564.621 965.019 564.621 965.961C564.621 966.902 565.384 967.666 566.326 967.666Z" fill="#BABCD4"/>
<path d="M626.604 967.666C627.546 967.666 628.31 966.902 628.31 965.961C628.31 965.019 627.546 964.255 626.604 964.255C625.662 964.255 624.899 965.019 624.899 965.961C624.899 966.902 625.662 967.666 626.604 967.666Z" fill="#BABCD4"/>
<path d="M686.884 967.666C687.826 967.666 688.589 966.902 688.589 965.961C688.589 965.019 687.826 964.255 686.884 964.255C685.942 964.255 685.178 965.019 685.178 965.961C685.178 966.902 685.942 967.666 686.884 967.666Z" fill="#BABCD4"/>
<path d="M747.162 967.666C748.104 967.666 748.867 966.902 748.867 965.961C748.867 965.019 748.104 964.255 747.162 964.255C746.22 964.255 745.456 965.019 745.456 965.961C745.456 966.902 746.22 967.666 747.162 967.666Z" fill="#BABCD4"/>
<path d="M807.441 967.666C808.383 967.666 809.147 966.902 809.147 965.961C809.147 965.019 808.383 964.255 807.441 964.255C806.499 964.255 805.735 965.019 805.735 965.961C805.735 966.902 806.499 967.666 807.441 967.666Z" fill="#BABCD4"/>
<path d="M867.719 967.666C868.661 967.666 869.425 966.902 869.425 965.961C869.425 965.019 868.661 964.255 867.719 964.255C866.777 964.255 866.013 965.019 866.013 965.961C866.013 966.902 866.777 967.666 867.719 967.666Z" fill="#BABCD4"/>
<path d="M927.997 967.666C928.939 967.666 929.703 966.902 929.703 965.961C929.703 965.019 928.939 964.255 927.997 964.255C927.055 964.255 926.292 965.019 926.292 965.961C926.292 966.902 927.055 967.666 927.997 967.666Z" fill="#BABCD4"/>
<path d="M988.276 967.666C989.218 967.666 989.982 966.902 989.982 965.961C989.982 965.019 989.218 964.255 988.276 964.255C987.334 964.255 986.57 965.019 986.57 965.961C986.57 966.902 987.334 967.666 988.276 967.666Z" fill="#BABCD4"/>
<path d="M1048.55 967.666C1049.5 967.666 1050.26 966.902 1050.26 965.961C1050.26 965.019 1049.5 964.255 1048.55 964.255C1047.61 964.255 1046.85 965.019 1046.85 965.961C1046.85 966.902 1047.61 967.666 1048.55 967.666Z" fill="#BABCD4"/>
<path d="M1108.83 967.666C1109.78 967.666 1110.54 966.902 1110.54 965.961C1110.54 965.019 1109.78 964.255 1108.83 964.255C1107.89 964.255 1107.13 965.019 1107.13 965.961C1107.13 966.902 1107.89 967.666 1108.83 967.666Z" fill="#BABCD4"/>
</svg>
