<svg width="485" height="337" viewBox="0 0 485 337" fill="none" xmlns="http://www.w3.org/2000/svg">
<mask id="mask0_7742_6563" style="mask-type:luminance" maskUnits="userSpaceOnUse" x="0" y="0" width="485" height="337">
<path d="M484.499 0H0.822266V337H484.499V0Z" fill="white"/>
</mask>
<g mask="url(#mask0_7742_6563)">
<path d="M189.885 103.234C189.885 103.234 227.917 112.176 235.177 117.936C242.438 123.697 261.55 158.467 261.55 158.467L289.582 131.762L299.39 156.892C299.39 156.892 282.816 180.762 270.825 190.658C263.398 196.788 253.357 200.416 239.413 182.99C225.469 165.564 213.964 152.716 213.964 152.716" fill="#FFED9F"/>
<path d="M266.082 116.95C266.082 116.95 251.863 116.005 241.794 122.815C230.154 130.687 211.53 164.968 202.762 176.953C197.62 183.981 172.219 210.064 172.219 210.064L196.054 224.972L227.086 183.658L261.554 144.798" fill="#B4C7EB"/>
<path d="M215.735 324.886C215.735 324.886 221.649 442.22 221.737 447.399C221.825 452.578 238.103 452.463 238.123 457.724C230.784 457.724 184.608 457.724 184.608 457.724L183.678 445.526L176.277 319.451" fill="#FB7E48"/>
<path d="M171.25 229.805C171.25 229.805 166.607 257.661 172.175 271.46L178.33 438.477H227.088L223.133 221.113" fill="#C37B55"/>
<path d="M174.517 325.697C174.517 325.697 168.631 443.032 168.199 448.211C167.766 453.39 184.055 453.275 183.546 458.535C176.207 458.535 130.031 458.535 130.031 458.535L130.328 446.338L135.606 320.263" fill="#FB7E48"/>
<path d="M139.592 230.617C139.592 230.617 130.811 251.297 136.092 275.264L125.686 439.289H174.444L192.348 221.926" fill="#C37B55"/>
<path d="M146.545 230.617C146.545 230.617 139.167 247.994 142.005 269.351C142.677 274.403 142.776 279.519 142.453 284.608L132.639 439.29" stroke="#4F4949" stroke-miterlimit="10"/>
<path d="M174.588 437.526C174.653 436.737 189.824 258.837 189.824 258.837" stroke="#4F4949" stroke-miterlimit="10"/>
<path d="M141.102 259.425C141.416 259.179 164.54 258.535 171.584 245.47" stroke="#4F4949" stroke-miterlimit="10"/>
<path d="M208.193 245.818C208.193 245.818 211.592 255.835 223.781 256.794" stroke="#4F4949" stroke-miterlimit="10"/>
<path d="M223.579 245.47H135.627" stroke="#4F4949" stroke-miterlimit="10"/>
<path d="M64.7722 166.812C64.7722 166.812 41.0379 193.384 40.7516 195.8C40.5239 197.718 46.1978 194.091 46.1978 194.091C46.1978 194.091 34.4509 208.346 35.5872 209.704C37.253 211.695 46.9962 199.722 46.9962 199.722C46.9962 199.722 37.0053 213.2 38.2223 214.792C39.4392 216.384 51.3486 202.477 51.3486 202.477C51.3486 202.477 41.9627 214.938 43.8336 216.304C45.1195 217.243 55.2412 204.74 55.2412 204.74C55.2412 204.74 47.7726 215.071 49.2907 215.928C50.8088 216.785 70.7401 191.103 85.1524 174.333" fill="#FB7E48"/>
<path d="M46.1992 194.091C46.1992 194.091 50.442 192.8 53.4834 189.504" stroke="#4F4949" stroke-miterlimit="10"/>
<path d="M55.2891 203.082C55.6193 200.601 57.1174 195.383 58.1234 193.211" stroke="#4F4949" stroke-miterlimit="10"/>
<path d="M170.484 102.941C170.484 102.941 143.156 104.517 127.017 111.664C117.159 116.03 103.212 124.16 83.649 140.767C62.4685 158.747 43.6406 189.725 43.6406 189.725L68.9292 200.22C68.9292 200.22 87.1018 176.525 98.2941 167.999C114.48 155.668 142.817 146.892 142.817 146.892" fill="#FFED9F"/>
<path d="M119.375 183.405C128.125 190.408 130.787 194.125 139.655 198.255C148.522 202.385 168.232 207.09 185.676 208.736L190.393 184.997C174.108 180.492 153.151 174.992 153.151 174.992C151.617 174.38 150.059 172.888 148.704 171.918C147.111 170.777 145.538 169.605 143.99 168.399C141.115 166.158 138.441 163.739 135.715 161.314C132.467 158.425 129.043 155.752 125.472 153.315C121.886 150.869 118.143 148.342 113.992 147.1C111.18 146.258 108.309 145.611 105.439 145.026" fill="#FF83A8"/>
<path d="M126.299 135.376L137.995 239.059H223.177L224.532 130.183L190.155 105.143L141.884 110.279" fill="#FFED9F"/>
<path d="M134.158 149.978L142.606 239.108" stroke="#D8BC6C" stroke-miterlimit="10"/>
<path d="M132.707 109.618C135.839 111.714 138.073 114.769 139.442 118.056C140.811 121.342 141.36 124.864 141.557 128.369C141.938 135.15 141.027 141.988 138.874 148.496" stroke="#D8BC6C" stroke-miterlimit="10"/>
<path d="M156.389 104.562C157.751 108.801 160.468 112.526 163.931 115.153C167.393 117.781 171.579 119.319 175.843 119.695" stroke="#D8BC6C" stroke-miterlimit="10"/>
<path d="M185.281 119.695C188.174 118.945 190.822 116.975 192.623 114.232C194.424 111.489 195.364 107.995 195.23 104.544" stroke="#D8BC6C" stroke-miterlimit="10"/>
<path d="M187.957 128.153C187.957 129.274 187.088 130.183 186.015 130.183C184.942 130.183 184.072 129.274 184.072 128.153C184.072 127.032 184.942 126.123 186.015 126.123C187.088 126.123 187.957 127.032 187.957 128.153Z" fill="#D8BC6C"/>
<path d="M188.75 152.951C188.75 154.072 187.881 154.981 186.808 154.981C185.735 154.981 184.865 154.073 184.865 152.951C184.865 151.83 185.735 150.921 186.808 150.921C187.88 150.922 188.75 151.83 188.75 152.951Z" fill="#D8BC6C"/>
<path d="M189.543 177.749C189.543 178.87 188.674 179.779 187.601 179.779C186.528 179.779 185.658 178.87 185.658 177.749C185.658 176.628 186.528 175.719 187.601 175.719C188.674 175.719 189.543 176.628 189.543 177.749Z" fill="#D8BC6C"/>
<path d="M190.333 202.546C190.333 203.667 189.464 204.576 188.392 204.576C187.319 204.576 186.449 203.668 186.449 202.546C186.449 201.425 187.319 200.517 188.392 200.517C189.464 200.516 190.333 201.424 190.333 202.546Z" fill="#D8BC6C"/>
<path d="M191.127 227.344C191.127 228.464 190.258 229.374 189.185 229.374C188.112 229.374 187.242 228.465 187.242 227.344C187.242 226.223 188.112 225.313 189.185 225.313C190.258 225.313 191.127 226.223 191.127 227.344Z" fill="#D8BC6C"/>
<path d="M224.195 113.254C225.056 119.151 224.974 132.788 224.387 141.832" stroke="#D8BC6C" stroke-miterlimit="10"/>
<path d="M179.973 113.031L184.209 239.403" stroke="#4F4949" stroke-width="2" stroke-miterlimit="10"/>
<path d="M193.258 84.1494C193.51 82.5217 195.067 80.8643 196.712 81.7688C198.427 82.7124 199.161 85.2702 198.728 87.303C198.394 88.8667 197.029 90.5187 195.559 90.582C194.929 90.609 194.674 90.1008 194.206 89.6128" fill="#EA6D42"/>
<path d="M196.92 83.7871C195.999 85.032 195.077 86.2769 194.156 87.5217" stroke="#4F4949" stroke-miterlimit="10"/>
<path d="M193.344 83.7667C193.344 83.7667 193.682 82.476 194.669 81.8613" stroke="#4F4949" stroke-miterlimit="10"/>
<path d="M189.7 99.4773L190.295 106.893C190.295 106.893 189.999 110.618 186.699 113.708C183.295 116.895 175.579 117.112 169.795 114.185C164.1 111.303 162.705 106.79 162.705 106.79L165.904 89.6328" fill="#FB7E48"/>
<path d="M170.039 85.5312C170.163 85.7469 169.143 88.0224 167.932 90.5822C169.003 93.4582 170.892 95.9122 172.229 98.3608C174.552 101.564 178.106 105.102 180.861 105.815C184.022 106.388 187.985 105.919 190.155 105.142L189.533 96.7426L170.039 85.5312Z" fill="#4F4949"/>
<path d="M193.981 99.0593C194.271 97.3615 195.176 93.4725 195.223 90.3047C195.269 87.1369 195.372 79.0995 193.821 74.2925C193.218 72.4228 192.456 68.1422 191.303 66.8185C186.876 61.7345 178.749 63.3892 171.092 66.6345C165.171 69.1431 162.257 75.3419 163.42 81.8218C164.255 86.473 166.361 91.9459 169.368 95.5403C172.232 98.9629 178.202 102.167 180.479 103.004C182.755 103.841 193.416 102.36 193.981 99.0593Z" fill="#FB7E48"/>
<path d="M185.975 78.9277C187.248 82.1623 188.872 86.8702 188.29 87.3588C187.708 87.8475 185.045 87.9816 184.076 87.8218" stroke="#4F4949" stroke-miterlimit="10"/>
<path d="M179.966 81.7704C179.912 82.4673 179.329 82.9856 178.662 82.9297C177.996 82.8737 177.499 82.2637 177.553 81.5668C177.606 80.8706 178.19 80.3509 178.857 80.4075C179.523 80.4635 180.02 81.0741 179.966 81.7704Z" fill="#4F4949"/>
<path d="M193.337 80.0359C193.284 80.7321 192.7 81.2518 192.033 81.1952C191.367 81.1392 190.87 80.5293 190.924 79.8324C190.977 79.1361 191.561 78.6171 192.228 78.6731C192.894 78.7297 193.391 79.3397 193.337 80.0359Z" fill="#4F4949"/>
<path d="M189.504 92.2744L184.211 92.2656C184.211 92.2656 184.028 96.5536 186.894 96.8151C189.261 97.0301 189.504 92.2744 189.504 92.2744Z" fill="white"/>
<path d="M194.725 85.5448C194.718 86.8227 193.722 87.8532 192.499 87.8465C191.277 87.8397 190.29 86.7984 190.297 85.5205C190.303 84.2426 191.3 83.212 192.522 83.2188C193.745 83.2248 194.731 84.2662 194.725 85.5448Z" fill="#EA6744"/>
<path d="M181.29 87.257C181.283 88.7135 180.147 89.8883 178.753 89.8809C177.359 89.8735 176.235 88.6859 176.242 87.2294C176.249 85.7729 177.385 84.5981 178.779 84.6055C180.173 84.6129 181.297 85.7998 181.29 87.257Z" fill="#EA6744"/>
<path d="M194.156 75.9875C193.816 75.7793 193.441 75.6835 193.064 75.573C192.705 75.4679 192.349 75.3796 191.981 75.3128C191.575 75.2394 191.162 75.1565 190.751 75.1174C190.534 75.0965 190.283 75.1039 190.071 75.1538C189.838 75.2084 189.675 75.3594 189.495 75.511C189.262 75.7065 189.299 76.1284 189.495 76.3299C189.666 76.5072 189.83 76.6642 190.071 76.7309C190.282 76.7896 190.536 76.8246 190.751 76.8341C191.107 76.8496 191.463 76.8509 191.819 76.8684C192.177 76.8866 192.533 76.8934 192.892 76.8994C193.284 76.9055 193.658 76.9325 194.047 76.8597C194.447 76.7855 194.474 76.1823 194.156 75.9875Z" fill="#4F4949"/>
<path d="M180.211 76.4797C179.869 75.921 178.893 76.0423 178.337 76.0611C177.623 76.0847 176.888 76.2472 176.196 76.4319C175.5 76.6179 174.833 76.8706 174.184 77.1935C173.516 77.5258 172.793 77.8917 172.412 78.5846C172.189 78.989 172.464 79.6839 172.977 79.6145C173.688 79.5188 174.243 79.1299 174.875 78.8037C175.44 78.5125 176.024 78.2483 176.619 78.0319C177.225 77.8109 177.843 77.6693 178.467 77.5143C178.774 77.4381 179.079 77.3599 179.39 77.302C179.711 77.242 180.029 77.1894 180.211 76.8733C180.277 76.7581 180.281 76.595 180.211 76.4797Z" fill="#4F4949"/>
<path d="M186.618 88.9061C184.517 89.1326 182.394 89.9238 181.139 91.6991C180.967 91.9425 180.804 92.2572 180.924 92.5322C181.065 92.8584 181.489 92.8948 181.83 92.8665C183.776 92.7054 185.678 92.0092 187.294 90.8674C188.839 91.8629 191.861 92.9555 192.747 91.9741C193.31 91.3514 190.813 88.4538 186.618 88.9061Z" fill="#4F4949"/>
<path d="M169.816 77.9632C170.632 85.6947 171.039 87.2071 173.709 94.4264C173.937 95.0417 174.178 95.6672 174.579 96.1666C174.963 96.6458 175.472 96.9822 175.974 97.3077C178.447 98.9085 180.804 99.7766 181.842 100.229C182.55 100.538 184.996 100.858 185.365 100.451C185.733 100.043 185.833 98.2924 185.833 98.2924L189.441 98.2399C189.441 98.2399 189.761 100.009 190.343 100.072C190.924 100.136 193.002 97.8456 193.512 97.2882C194.021 96.7308 195.397 90.9324 195.243 87.8441C196.284 92.1685 196.617 96.8346 196.617 97.8456C196.617 98.8566 195.243 100.781 194.725 102.05C194.725 103.554 192.658 108.082 191.816 108.676C190.992 109.258 190.002 109.486 189.028 109.624C187.144 109.893 184.458 110.269 183.094 109.774C181.729 109.279 177.924 106.008 176.473 104.319C175.069 103.587 172.981 103.323 171.858 102.151C170.578 100.815 167.091 93.0696 167.091 93.0696L164.464 97.363C164.464 97.363 160.042 93.4679 159.657 91.3192C159.036 87.8474 158.186 84.5064 158.186 84.5064C158.186 84.5064 158.048 80.4051 157.373 78.8125C156.697 77.2198 156.293 78.0455 156.166 73.5762C156.039 69.1069 162.355 66.6151 166.293 63.9157C170.231 61.2164 184.28 55.6114 187.455 58.3552C190.631 61.0991 193.27 68.2341 193.27 68.2341C193.27 68.2341 194.878 72.2059 194.928 74.5461C194.964 76.1751 194.662 78.1156 194.662 78.1156L193.058 71.4409L189.092 69.8678C189.092 69.8678 186.828 71.662 183.401 72.3798C180.396 73.0087 174.555 72.369 174.555 72.369L169.816 77.9632Z" fill="#4F4949"/>
<path d="M168.888 87.4884C167.835 86.0346 165.359 85.3019 164.018 87.1372C162.619 89.0514 163.053 91.9867 164.495 93.7343C165.604 95.079 167.871 95.9168 169.487 95.1329C170.181 94.7966 170.213 94.1502 170.483 93.4021" fill="#FB7E48"/>
<path d="M164.76 89.2383C166.351 89.9312 167.942 90.6247 169.533 91.3176" stroke="#4F4949" stroke-miterlimit="10"/>
<path d="M165.158 94.3777C166.996 95.7857 168.614 95.8477 169.291 95.5356C169.969 95.2236 170.484 94.1526 170.659 93.4004" stroke="#4F4949" stroke-miterlimit="10"/>
<path d="M158.696 87.2426C159.8 84.8755 161.37 82.7854 162.942 80.727C164.194 79.0872 165.683 77.9131 167.151 76.4822C170.838 72.8898 175.457 70.2922 180.422 69.3856C185.388 68.4791 191.85 69.48 194.27 70.8105C193.653 68.0666 193.014 64.6097 191.66 62.0377C190.456 59.7508 187.161 56.8614 184.584 56.4651C182.007 56.0687 166.633 55.3226 163.823 58.2593C161.014 61.1952 155.376 68.5566 155.073 71.7251C154.77 74.8936 158.696 87.2426 158.696 87.2426Z" fill="#EF9F4A"/>
<path d="M157.521 82.0162C160.502 78.078 163.014 73.7563 166.547 70.3007C168.349 68.5382 170.383 67.0412 172.635 65.9777C175.254 64.7409 178.098 64.1484 180.954 63.9462C184.215 63.7151 187.48 63.9321 190.734 64.1673C190.969 64.1842 191.027 63.775 190.79 63.7326C189.296 63.467 187.78 63.4111 186.267 63.3619C184.809 63.314 183.348 63.2999 181.891 63.3673C179.052 63.4994 176.211 63.9577 173.549 65.03C168.835 66.9287 165.226 70.5851 162.187 74.7006C160.479 77.0144 158.9 79.4482 157.362 81.8888C157.301 81.9872 157.449 82.1112 157.521 82.0162Z" fill="#5F3122"/>
<path d="M155.988 77.387C157.063 75.5679 159.84 70.7171 160.933 69.4729C163.118 66.9838 165.784 64.3215 168.658 62.7747C175.361 59.1681 183.99 59.2577 191.052 61.61C191.245 61.674 191.437 61.7408 191.629 61.8088" stroke="#5F3122" stroke-miterlimit="10"/>
<path d="M173.322 68.2251C178.346 66.8569 183.601 66.4855 188.759 67.0948C190.265 67.2727 191.748 67.5848 193.246 67.816C193.468 67.8503 193.567 67.5275 193.341 67.4554C190.847 66.6614 188.119 66.4309 185.523 66.3669C182.895 66.3022 180.253 66.4902 177.663 66.9593C176.18 67.2282 174.714 67.5848 173.268 68.0222C173.144 68.0599 173.196 68.2595 173.322 68.2251Z" fill="#5F3122"/>
<path d="M128.195 152.184L140.124 147.772" stroke="#4F4949" stroke-miterlimit="10"/>
<path d="M223.803 188.789L224.49 133.567" stroke="#4F4949" stroke-miterlimit="10"/>
</g>
<mask id="mask1_7742_6563" style="mask-type:luminance" maskUnits="userSpaceOnUse" x="0" y="0" width="485" height="337">
<path d="M484.499 0H0.822266V337H484.499V0Z" fill="white"/>
</mask>
<g mask="url(#mask1_7742_6563)">
<path d="M310.334 108.482C291.32 105.143 251.833 104.812 236.329 118.219C227.827 129.909 247.043 125.579 247.043 125.579L297.469 137.706" fill="#4F4949"/>
<path d="M316.197 332.307C316.197 332.307 311.544 425.056 311.203 429.15C310.861 433.244 281.268 427.67 281.268 427.67L285.44 328.013" fill="#914539"/>
<path d="M239.781 332.307C239.781 332.307 244.434 425.056 244.775 429.15C245.117 433.244 274.711 427.67 274.711 427.67L270.539 328.013" fill="#914539"/>
<path d="M239.236 138.837C237.209 145.992 233.285 149.666 233.285 158.77C233.285 164.867 236.928 171.311 239.065 177.611L240.876 205.343C240.876 205.343 251.404 208.02 264.605 208.02C277.807 208.02 298.516 205.418 298.516 205.418C298.516 205.418 300.398 188.041 301.131 178.067C306.122 162.305 305.02 151.42 305.02 151.42L289.584 123.396L276.97 114.935L247.003 124.381" fill="#B4C7EB"/>
<path d="M283.26 116.743C283.26 116.743 293.18 117.602 307.37 127.624C326.528 141.153 375.95 196.436 373.817 195.196L363.879 219.563L299.396 161.177" fill="#B4C7EB"/>
<path d="M279.966 115.922L270.398 139.427L275.164 144.099C279.55 148.399 286.751 145.631 287.427 139.386L289.587 118.33L279.966 115.922Z" fill="white"/>
<path d="M227.414 408.242C227.414 408.242 224.464 286.23 225.597 267.751C228.018 228.252 240.46 204.884 240.46 204.884L298.102 204.959C298.102 204.959 311.441 239.835 314.801 290.883C318.162 341.931 320.326 408.242 320.326 408.242H227.414Z" fill="#3A4F93"/>
<path d="M270.398 139.425L264.748 145.124C260.385 149.524 253.09 146.78 252.41 140.485L250.059 118.716L261.555 116.949" fill="white"/>
<path d="M255.469 98.9025C254.901 97.0915 252.644 95.4253 250.656 96.6783C248.583 97.9845 248.019 100.987 248.881 103.232C249.544 104.96 251.553 106.645 253.459 106.515C254.277 106.459 254.53 105.847 255.06 105.229" fill="#77352C"/>
<path d="M252.11 104.205C252.011 104.712 252.324 105.207 252.809 105.31C253.294 105.414 253.768 105.087 253.867 104.58C253.966 104.073 253.653 103.578 253.168 103.474C252.683 103.371 252.21 103.698 252.11 104.205Z" fill="#4F4949"/>
<path d="M250.688 98.9941C252.062 100.279 253.437 101.564 254.811 102.849" stroke="#4F4949" stroke-miterlimit="10"/>
<path d="M255.324 98.5205C255.324 98.5205 255 97.2008 253.949 96.7998" stroke="#4F4949" stroke-miterlimit="10"/>
<path d="M252.039 91.2106C251.661 90.2508 251.625 89.2344 251.321 88.2834C250.771 86.564 250.381 84.8898 250.078 83.097C249.957 82.3825 249.851 81.6526 249.949 80.9341C250.047 80.217 250.344 79.5477 250.659 78.9027C251.172 77.8492 251.745 76.8187 252.479 75.9195C253.345 74.8593 254.416 74.0054 255.477 73.1609C257.695 71.3956 259.941 69.6129 262.502 68.4617C266.475 66.6763 271.105 66.5482 275.162 68.1112C276.727 68.7138 278.284 69.532 279.67 70.506C280.63 71.1806 281.074 72.1371 281.809 73.0294C283.978 75.6627 285.659 78.3729 286.445 81.8022C287.585 86.7824 286.651 94.5954 283.424 98.9919C282.608 100.103 280.029 103.625 280.029 103.625" fill="#4F4949"/>
<path d="M278.857 71.8682C280.332 66.8395 284.873 62.9566 289.882 62.4417C291.089 62.3176 292.337 62.379 293.467 62.84C294.597 63.3017 295.598 64.2028 296.018 65.3924C296.128 65.7038 296.182 66.0954 295.96 66.3327C295.805 66.4985 295.566 66.5322 295.344 66.5504C294.127 66.6515 292.899 66.5713 291.685 66.7101C287.32 67.2075 283.734 70.3942 280.448 73.4366" fill="#4F4949"/>
<path d="M278.646 73.2658C279.851 72.8553 280.96 72.1955 282.079 71.5761C285.568 69.6444 289.36 68.043 293.308 68.0538C297.256 68.0645 301.392 69.9794 303.246 73.6224C303.654 74.4237 303.773 75.7057 302.943 75.9746C302.523 76.1108 302.084 75.8776 301.695 75.6639C295.417 72.213 287.559 72.1005 281.193 75.37" fill="#4F4949"/>
<path d="M277.959 74.4951C279.106 75.0559 280.347 75.3666 281.57 75.7144C285.38 76.7975 289.195 78.3383 292.069 81.1677C294.944 83.9972 296.709 88.3485 295.68 92.3325C295.453 93.2094 294.701 94.2292 293.919 93.8322C293.524 93.6313 293.355 93.1481 293.212 92.714C290.887 85.7098 285.226 80.0138 278.442 77.851" fill="#4F4949"/>
<path d="M280.944 74.7206C284.671 73.6395 288.607 72.9048 292.397 73.711C296.187 74.5171 299.816 77.1403 300.997 80.9895C301.154 81.4997 301.237 82.1353 300.865 82.504C300.641 82.7264 300.31 82.781 300.001 82.7931C297.748 82.8807 295.788 81.3359 293.857 80.12C289.149 77.1558 283.499 75.857 278.035 76.4838" fill="#4F4949"/>
<path d="M259.791 110.497L259.047 121.878C259.047 121.878 257.539 139.425 270.398 139.425C283.258 139.425 279.949 119.84 279.949 119.84L280.03 101.248" fill="#96501E"/>
<path d="M275.942 98.0176C275.845 98.2157 276.951 100.114 278.253 102.246C277.494 104.842 275.784 107.061 274.92 109.384C273.566 113.026 268.963 118.945 259.318 117.756L259.722 109.931L275.942 98.0176Z" fill="#4F4949"/>
<path d="M254.884 108.723C251.454 102.912 251.653 92.6424 252.273 88.2331C252.987 83.1518 262.7 76.7138 269.56 78.6974C273.413 79.8115 279.615 88.2122 279.62 93.9891C279.624 98.1355 281.029 100.721 279.333 104.593C277.611 108.523 273.359 114.2 267.497 114.817C261.082 115.492 257.568 113.269 254.884 108.723Z" fill="#96501E"/>
<path d="M251.396 88.1137C253.246 86.6127 254.871 84.9587 256.283 82.9988C256.521 82.6678 256.758 82.3214 257.093 82.0996C257.423 81.8799 257.821 81.8011 258.211 81.762C260.382 81.5456 262.539 82.44 264.717 82.3113C265.722 82.252 266.76 81.9797 267.714 82.3153C268.463 82.5795 269.051 83.1848 269.587 83.7914C271.672 86.1504 273.422 88.8127 275.577 91.1049C276.561 92.1517 277.874 92.9659 278.66 94.1804C279.434 95.3754 280.505 96.3372 281.968 96.381L277.961 74.4727L255.446 76.6638L251.396 88.1137Z" fill="#4F4949"/>
<path d="M262.884 96.3379C262.403 97.3644 261.61 101.466 262.528 102.808C263.118 103.67 263.957 103.317 264.606 103.062" stroke="#4F4949" stroke-miterlimit="10"/>
<path d="M271.603 93.352C271.018 92.7919 270.256 92.4381 269.457 92.2925C269.145 92.2359 268.824 92.2096 268.508 92.2608C267.818 92.3734 267.225 92.8364 266.668 93.284" stroke="#4F4949" stroke-miterlimit="10"/>
<path d="M258.536 92.4805C258.248 91.8975 257.701 91.45 257.071 91.2801C256.441 91.1103 255.738 91.2215 255.184 91.5781" stroke="#4F4949" stroke-miterlimit="10"/>
<path d="M269.577 97.1699C269.738 97.7583 270.348 98.098 270.939 97.9289C271.53 97.7597 271.878 97.1457 271.717 96.5573C271.556 95.9689 270.946 95.6292 270.354 95.7983C269.764 95.9675 269.415 96.5815 269.577 97.1699Z" fill="#4F4949"/>
<path d="M254.753 97.1699C254.914 97.7583 255.524 98.098 256.115 97.9289C256.706 97.7597 257.054 97.1457 256.893 96.5573C256.732 95.9689 256.122 95.6292 255.53 95.7983C254.939 95.9675 254.591 96.5815 254.753 97.1699Z" fill="#4F4949"/>
<path d="M261.554 106.221L266.666 106.029C266.666 106.029 267.147 110.082 263.974 109.761C261.432 109.504 261.554 106.221 261.554 106.221Z" fill="white"/>
<path d="M254.041 102.569C254.293 103.866 255.552 104.699 256.854 104.429C258.155 104.16 259.006 102.889 258.753 101.593C258.501 100.296 257.241 99.4627 255.94 99.7323C254.638 100.002 253.788 101.272 254.041 102.569Z" fill="#B23333"/>
<path d="M267.97 102.946C268.276 104.522 269.806 105.534 271.388 105.206C272.969 104.879 274.002 103.336 273.695 101.76C273.389 100.184 271.859 99.1725 270.278 99.5001C268.697 99.8276 267.663 101.37 267.97 102.946Z" fill="#B33333"/>
<path d="M278.08 97.0162C278.851 95.3224 281.137 94.0533 282.769 95.6203C284.471 97.2548 284.564 100.312 283.464 102.386C282.619 103.981 280.556 105.311 278.84 104.865C278.104 104.673 277.96 104.028 277.564 103.33" fill="#914539"/>
<path d="M280.397 102.809C280.416 103.326 280.062 103.763 279.606 103.784C279.151 103.806 278.766 103.405 278.747 102.887C278.728 102.37 279.082 101.934 279.537 101.912C279.993 101.89 280.378 102.292 280.397 102.809Z" fill="#4F4949"/>
<path d="M282.414 97.9014C280.983 98.9413 279.553 99.982 278.123 101.022" stroke="#4F4949" stroke-miterlimit="10"/>
<path d="M280.996 104.516C280.468 104.818 279.993 105.054 279.142 104.925C278.291 104.795 277.755 104.17 277.566 103.326" stroke="#4F4949" stroke-miterlimit="10"/>
<path d="M278.266 96.6643C278.266 96.6643 278.746 95.4154 279.757 95.1943" stroke="#4F4949" stroke-miterlimit="10"/>
<path d="M257.95 80.4515C256.795 79.9722 255.432 80.0821 254.361 80.7399C253.307 81.387 252.589 82.4836 251.929 83.5579C249.543 87.4402 247.389 91.7012 247.202 96.3113C247.165 97.2307 247.452 98.4371 248.331 98.4911C249.045 98.5349 249.516 97.7476 249.805 97.0642C251.022 94.1869 251.962 91.1856 253.245 88.34C254.528 85.4943 256.2 82.7599 258.584 80.839" fill="#4F4949"/>
<path d="M266.851 80.6741C268.916 81.2847 272.876 90.9324 273.836 93.72C274.857 96.6823 276.126 99.5393 277.022 102.55C277.205 103.167 277.55 103.912 278.168 103.887C278.832 103.86 279.096 102.982 279.141 102.289C279.422 97.9285 278.137 93.596 276.276 89.6814C274.079 85.0578 270.847 80.6855 266.291 78.6885" fill="#4F4949"/>
<path d="M276.974 91.2453C276.974 91.2453 272.22 76.9397 266.959 78.6591" stroke="#4C3C3A" stroke-miterlimit="10"/>
<path d="M250.668 85.7068C250.668 85.7068 255.446 76.6658 260.679 77.9646" stroke="#4C3C3A" stroke-miterlimit="10"/>
<path d="M279.176 70.1807C283.624 72.4359 285.06 78.1096 286.465 82.891" stroke="#4C3C3A" stroke-miterlimit="10"/>
<path d="M257.328 81.9726C258.065 81.0054 258.862 80.1413 259.706 79.3945" stroke="#4C3C3A" stroke-miterlimit="10"/>
<path d="M266.344 80.0908C267.238 80.8639 268.021 81.7853 268.656 82.8118" stroke="#4C3C3A" stroke-miterlimit="10"/>
<path d="M270.831 166.271L270.398 139.426" stroke="#4F4949" stroke-miterlimit="10"/>
<path d="M274.195 151.788C274.909 151.788 275.488 151.183 275.488 150.436C275.488 149.69 274.909 149.085 274.195 149.085C273.481 149.085 272.902 149.69 272.902 150.436C272.902 151.183 273.481 151.788 274.195 151.788Z" fill="#6D81E2"/>
<path d="M275.42 161.767C275.42 162.514 274.841 163.119 274.127 163.119C273.413 163.119 272.834 162.514 272.834 161.767C272.834 161.021 273.413 160.416 274.127 160.416C274.841 160.416 275.42 161.021 275.42 161.767Z" fill="#6D81E2"/>
<path d="M232.803 159.044L235.228 147.771" stroke="#4F4949" stroke-miterlimit="10"/>
<path d="M304.253 164.865C305.023 151.418 301.773 146.173 301.773 146.173" stroke="#4F4949" stroke-miterlimit="10"/>
<path d="M251.83 118.561C248.189 114.122 239.86 116.073 236.328 118.217C233.226 120.101 231.893 122.286 230.103 125.925C228.133 129.927 228.123 138.135 229.632 139.404C229.895 140.049 229.619 140.547 230.244 141.678C230.565 142.259 231.644 143.487 231.97 142.913C232.448 143.057 232.892 142.809 233.451 142.327C233.923 141.92 234.938 140.218 234.938 140.218C236.247 139.381 236.24 138.73 237.039 137.494C237.879 136.195 238.287 134.076 238.92 132.667C240.189 129.843 242.234 128.436 242.234 128.436C242.234 128.436 241.256 131.138 242.271 132.546C242.706 133.149 244.851 130.697 245.271 130.086C248.435 125.476 249.771 123.509 251.83 118.561Z" fill="#C1774D"/>
<path d="M242.234 128.434L247.066 124.172" stroke="#4F4949" stroke-miterlimit="10"/>
<path d="M238.037 126.045C238.037 126.045 235.948 128.945 235.22 132.505C234.666 135.211 234.497 137.801 234.94 140.218" stroke="#4F4949" stroke-miterlimit="10"/>
<path d="M233.369 127.439C233.369 127.439 232.155 131.323 231.861 134.008C231.424 137.992 231.97 142.913 231.97 142.913" stroke="#4F4949" stroke-miterlimit="10"/>
<path d="M230.71 128.257C230.71 128.257 229.078 133.5 230.137 141.456" stroke="#4F4949" stroke-miterlimit="10"/>
</g>
<mask id="mask2_7742_6563" style="mask-type:luminance" maskUnits="userSpaceOnUse" x="0" y="0" width="485" height="337">
<path d="M484.499 0H0.822266V337H484.499V0Z" fill="white"/>
</mask>
<g mask="url(#mask2_7742_6563)">
<path d="M117.218 316.216C117.218 316.216 122.523 421.467 122.603 426.113C122.682 430.759 137.283 430.656 137.301 435.375C130.717 435.375 89.296 435.375 89.296 435.375L88.4622 424.434L81.8242 311.342" fill="#FB7E48"/>
<path d="M77.313 230.926C77.313 230.926 73.1489 255.913 78.1424 268.292L83.6634 418.11H127.401L123.852 223.13" fill="#EBDFD1"/>
<path d="M86.7392 316.943C86.7392 316.943 81.4594 422.195 81.0718 426.841C80.6842 431.487 95.2951 431.384 94.8385 436.102C88.2554 436.102 46.834 436.102 46.834 436.102L47.1003 425.161L51.8352 312.069" fill="#FB7E48"/>
<path d="M55.4112 231.656C55.4112 231.656 47.535 250.206 52.2724 271.705L42.9375 418.839H86.6747L102.735 223.859" fill="#EBDFD1"/>
<path d="M61.6475 231.654C61.6475 231.654 55.0295 247.242 57.5756 266.4C58.1779 270.931 58.2669 275.52 57.9774 280.085L49.1738 418.838" stroke="#9E837A" stroke-miterlimit="10"/>
<path d="M86.8027 417.255C86.8608 416.547 100.469 256.967 100.469 256.967" stroke="#9E837A" stroke-miterlimit="10"/>
<path d="M56.9922 257.491C57.2824 257.202 78.6409 256.447 85.1473 241.121" stroke="#9E837A" stroke-miterlimit="10"/>
<path d="M110.355 240.457C110.355 240.457 113.425 253.854 124.434 255.138" stroke="#9E837A" stroke-miterlimit="10"/>
<path d="M122.574 220.321L117.913 243.394C110.121 250.109 60.3281 240.435 60.3281 240.435C60.3281 240.435 68.4455 156.305 68.9272 155.92C69.409 155.534 80.2943 143.916 91.4511 143.015C102.608 142.115 118.923 164.084 118.923 164.084L122.574 220.321Z" fill="#FFFDEE"/>
<path d="M91.3223 204.555C96.9329 200.209 102.776 196.19 108.814 192.522" stroke="#4F4949" stroke-miterlimit="10"/>
<path d="M103.789 199.459C107.565 198.024 111.244 196.311 114.79 194.336" stroke="#4F4949" stroke-miterlimit="10"/>
<path d="M79.0801 151.101C82.4303 153.974 85.3801 157.337 88.9484 159.922C93.0357 162.883 100.309 165.778 104.728 161.781C109.248 157.692 106.161 149.856 104.218 145.288" stroke="#4F4949" stroke-miterlimit="10"/>
<path d="M94.2488 244.97L93.8154 251.343C93.8154 251.343 80.2428 251.78 66.0408 249.758C59.6311 248.845 50.5625 245.611 50.5625 245.611L52.9557 233.777" fill="#4F4949"/>
<path d="M93.8194 249.319C93.8194 249.319 77.2389 249.083 66.4117 247.638C59.9943 246.782 50.9824 243.791 50.9824 243.791" stroke="#843F24" stroke-miterlimit="10"/>
<path d="M93.8157 247.331C93.8157 247.331 77.4029 247.094 66.6853 245.649C60.333 244.793 51.4121 241.803 51.4121 241.803" stroke="#843F24" stroke-miterlimit="10"/>
<path d="M118.122 236.744L113.738 243.393V250.297L125.592 246.757L124.095 234.863" fill="#4F4949"/>
<path d="M100.471 145.114C100.471 145.114 112.28 159.627 113.014 181.551C114.366 221.97 113.737 243.396 113.737 243.396L125.187 240.237C125.187 240.237 124.226 193.634 123.964 187.103C123.632 178.797 127.015 164.086 113.859 151.397C110.681 148.332 105.44 146.45 105.44 146.45" fill="#FF83A8"/>
<path d="M109.089 161.395C109.413 158.073 110.383 157.502 109.676 154.158C108.811 150.067 107.902 148.396 105.44 145.026C102.734 144.625 100.471 145.114 100.471 145.114C100.471 145.114 104.44 150.535 109.089 161.395Z" fill="#4F4949"/>
<path d="M92.225 172.36C87.8526 156.147 77.4084 147.093 77.4084 147.093C77.4084 147.093 59.5711 149.878 55.9016 165.122L51.6523 239.495C51.6523 239.495 72.3717 244.498 94.2526 244.974C94.2526 244.974 96.5975 188.575 92.225 172.36Z" fill="#FF83A8"/>
<path d="M91.011 172.184C91.011 172.937 90.4274 173.547 89.7076 173.547C88.9879 173.547 88.4043 172.937 88.4043 172.184C88.4043 171.432 88.9879 170.822 89.7076 170.822C90.4274 170.822 91.011 171.432 91.011 172.184Z" fill="#4F4949"/>
<path d="M92.7551 191.41C92.7551 192.162 92.1715 192.772 91.4518 192.772C90.7321 192.772 90.1484 192.162 90.1484 191.41C90.1484 190.658 90.7321 190.048 91.4518 190.048C92.1715 190.049 92.7551 190.658 92.7551 191.41Z" fill="#4F4949"/>
<path d="M93.5247 209.173C93.5247 209.925 92.941 210.535 92.2213 210.535C91.5016 210.535 90.918 209.925 90.918 209.173C90.918 208.421 91.5016 207.811 92.2213 207.811C92.941 207.811 93.5247 208.421 93.5247 209.173Z" fill="#4F4949"/>
<path d="M92.2213 229.503C92.9411 229.503 93.5247 228.893 93.5247 228.14C93.5247 227.388 92.9411 226.778 92.2213 226.778C91.5015 226.778 90.918 227.388 90.918 228.14C90.918 228.893 91.5015 229.503 92.2213 229.503Z" fill="#4F4949"/>
<path d="M84.9513 164.103C86.3572 165.142 88.8813 166.036 90.4839 166.695C86.3475 154.417 77.4066 147.093 77.4066 147.093C77.4066 147.093 75.4712 147.961 72.793 149.686C75.4197 152.448 77.2834 154.009 79.3181 157.333C80.3228 158.976 83.428 162.977 84.9513 164.103Z" fill="#4F4949"/>
<path d="M123.968 187.104C123.968 187.104 123.639 174.998 121.596 167.274" stroke="#4F4949" stroke-miterlimit="10"/>
<path d="M113.65 245.466L124.931 242.498" stroke="#843F24" stroke-miterlimit="10"/>
<path d="M113.65 247.637L125.311 244.5" stroke="#843F24" stroke-miterlimit="10"/>
<path d="M112.836 169.223L115.499 167.996" stroke="#4F4949" stroke-miterlimit="10"/>
<path d="M114.053 191.544L116.95 191.265" stroke="#4F4949" stroke-miterlimit="10"/>
<path d="M114.654 208.877L117.552 208.597" stroke="#4F4949" stroke-miterlimit="10"/>
<path d="M115.018 228.066L117.915 227.785" stroke="#4F4949" stroke-miterlimit="10"/>
<path d="M104.973 139.418L103.395 151.376C103.395 151.376 104.473 158.316 98.955 158.769C88.4966 159.628 80.6172 147.532 80.6172 147.532C80.6172 147.532 84.3189 136.711 84.0848 136.449" fill="#F29066"/>
<path d="M87.0315 132.368C87.1702 132.524 86.6291 134.568 85.9668 136.879C87.3121 139.056 89.2977 140.744 90.8087 142.523C92.8408 144.915 97.2403 147.466 103.901 147.532L105.442 138.653L87.0315 132.368Z" fill="#4F4949"/>
<path d="M108.125 136.094C109.28 130.938 107.382 123.479 105.715 119.599C102.578 112.294 94.3046 111.324 86.1576 115.49C81.1596 118.046 79.0237 123.437 80.4612 128.741C81.4936 132.547 83.6876 136.938 86.5452 139.694C89.266 142.318 94.095 145.545 98.8795 145.203C105.018 144.764 107.013 141.057 108.125 136.094Z" fill="#F29066"/>
<path d="M99.7815 128.124C100.303 128.805 100.717 129.694 100.984 130.516C101.363 131.676 101.452 133.255 100.055 133.614C99.4758 133.763 98.8696 133.636 98.2988 133.507" fill="#FB7E48"/>
<path d="M99.7815 128.124C100.303 128.805 100.717 129.694 100.984 130.516C101.363 131.676 101.452 133.255 100.055 133.614C99.4758 133.763 98.8696 133.636 98.2988 133.507" stroke="#4F4949" stroke-miterlimit="10"/>
<path d="M86.6777 128.443C86.7938 127.661 87.1601 126.923 87.6728 126.316C87.8727 126.08 88.0965 125.861 88.3622 125.702C88.9407 125.355 89.6462 125.332 90.3169 125.317" stroke="#4F4949" stroke-miterlimit="10"/>
<path d="M100.834 121.881C101.175 121.365 101.744 121.01 102.36 120.929C102.976 120.848 103.63 121.042 104.113 121.449" stroke="#4F4949" stroke-miterlimit="10"/>
<path d="M92.2227 130.171C92.2214 130.756 91.7461 131.234 91.1618 131.24C90.5769 131.246 90.1042 130.777 90.1055 130.192C90.1068 129.608 90.5821 129.13 91.1663 129.124C91.7506 129.119 92.224 129.588 92.2227 130.171Z" fill="#4F4949"/>
<path d="M104.113 126.365C104.112 126.949 103.637 127.427 103.052 127.433C102.468 127.439 101.995 126.97 101.996 126.386C101.997 125.801 102.473 125.323 103.057 125.317C103.641 125.312 104.115 125.78 104.113 126.365Z" fill="#4F4949"/>
<path d="M101.349 136.093L96.7363 136.432C96.7363 136.432 96.9562 140.683 100.011 140.002C102.395 139.47 101.349 136.093 101.349 136.093Z" fill="white"/>
<path d="M107.163 130.615C107.273 132.113 106.146 133.431 104.644 133.558C103.144 133.686 101.838 132.576 101.728 131.078C101.618 129.58 102.746 128.262 104.247 128.134C105.748 128.007 107.054 129.117 107.163 130.615Z" fill="#EA6744"/>
<path d="M94.9964 134.307C95.1086 135.837 93.9568 137.182 92.4239 137.313C90.8909 137.444 89.5573 136.31 89.4451 134.78C89.3328 133.25 90.4846 131.904 92.0176 131.773C93.5505 131.642 94.8842 132.777 94.9964 134.307Z" fill="#EA6744"/>
<path d="M83.6689 126.855C85.2192 123.967 88.5656 122.956 90.0373 119.989C90.4204 119.218 90.6886 118.379 90.777 117.514C90.8344 116.951 90.8208 116.362 91.0524 115.85C91.5502 114.75 92.9174 114.481 94.0815 114.466C97.4137 114.424 100.623 115.361 103.327 117.504C105.93 119.567 107.341 123.446 107.819 126.642C108.26 129.595 108.643 132.41 108.26 135.396C109.787 132.366 110.749 128.675 111.088 123.047C111.435 117.295 110.265 114.043 107.406 108.95C103.947 102.787 97.1035 99.03 90.2669 99.0031C83.4303 98.9761 76.7671 102.473 72.2767 107.861C66.9247 114.283 62.785 122.038 57.0628 128.181C53.5017 132.004 49.1196 134.857 45.0335 138.055C41.5362 140.793 37.9544 144.395 37.9144 148.961C37.8886 151.852 39.3454 154.561 41.204 156.702C43.0923 158.877 45.7609 160.708 48.5372 160.255C51.0743 159.841 52.9658 157.673 55.2081 156.365C61.6745 152.595 69.8951 156.383 77.0954 154.582C78.0228 154.35 78.9476 154.014 79.704 153.408C80.5095 152.763 81.0796 151.846 81.5207 150.89C83.7192 146.123 82.8499 140.805 82.539 135.738C82.3642 132.892 82.2998 129.407 83.6689 126.855Z" fill="#774A4A"/>
<path d="M85.0143 132.447C83.8231 131.12 81.228 130.633 79.9931 132.554C78.7052 134.559 79.3765 137.392 80.9901 138.97C82.2309 140.184 84.6196 140.794 86.217 139.877C86.9032 139.483 86.8851 138.847 87.105 138.09" fill="#FB7E48"/>
<path d="M80.916 134.541C82.6011 135.072 84.2863 135.603 85.9714 136.134" stroke="#4F4949" stroke-miterlimit="10"/>
<path d="M82.8008 140.217C83.792 140.641 85.1192 140.39 85.9344 140.019C86.7495 139.649 87.1281 138.915 87.1049 138.085" stroke="#4F4949" stroke-miterlimit="10"/>
<path d="M83.6522 140.763C83.4452 142.257 84.6493 143.477 85.9468 142.842C87.3088 142.176 86.8445 139.75 85.6024 139.253C85.3722 139.161 85.1181 139.114 84.8788 139.174" stroke="#FADFC5" stroke-miterlimit="10"/>
<path d="M84.7441 132.178C84.7441 132.178 83.9534 131.174 82.8906 131.271" stroke="#4F4949" stroke-miterlimit="10"/>
<path d="M68.3652 154.488C68.5864 151.866 69.7589 149.429 71.1551 147.237C72.5506 145.045 74.1887 143.027 75.5127 140.786C79.2357 134.485 79.3286 126.809 82.6756 120.341C84.2943 117.212 86.6533 114.41 89.7102 112.848" stroke="#663A3A" stroke-miterlimit="10"/>
<path d="M48.2578 159.946C48.6454 157.418 50.1945 155.264 51.8293 153.357C54.3018 150.474 57.0891 147.886 60.1201 145.659C63.0744 143.489 66.2835 141.64 68.8573 138.992C74.7626 132.918 75.7345 124.016 80.7634 117.419C83.0148 114.465 85.9285 111.658 89.5238 111.284" stroke="#663A3A" stroke-miterlimit="10"/>
<path d="M38.8633 152.033C40.5877 145.433 47.4495 142.886 52.4868 139.695C56.4627 137.176 60.0831 134.026 63.1187 130.341C66.3638 126.403 68.6345 121.751 71.6404 117.628C75.377 112.503 80.0132 107.696 85.9282 105.878" stroke="#663A3A" stroke-miterlimit="10"/>
<path d="M94.5547 105.451C98.1597 105.109 101.843 106.483 104.796 109.273C107.748 112.063 109.949 116.248 110.916 120.91" stroke="#663A3A" stroke-miterlimit="10"/>
</g>
<mask id="mask3_7742_6563" style="mask-type:luminance" maskUnits="userSpaceOnUse" x="0" y="0" width="485" height="337">
<path d="M484.499 0H0.822266V337H484.499V0Z" fill="white"/>
</mask>
<g mask="url(#mask3_7742_6563)">
<path d="M331.438 336.545C331.438 336.545 332.952 440.095 332.875 444.632C332.798 449.168 318.541 449.068 318.523 453.675C324.952 453.675 365.396 453.675 365.396 453.675L366.211 442.991L368.708 334.76" fill="#FB7E48"/>
<path d="M379.897 338.036C379.897 338.036 385.053 440.807 385.431 445.344C385.81 449.88 371.543 449.78 371.989 454.387C378.417 454.387 418.861 454.387 418.861 454.387L418.602 443.704L413.978 333.277" fill="#FB7E48"/>
<path d="M431.529 160.692C431.529 160.692 441.216 120.152 443.169 118.449C444.72 117.096 444.52 126.733 444.52 126.733C444.52 126.733 450.102 107.028 451.967 107.316C454.701 107.738 449.94 124.17 449.94 124.17C449.94 124.17 455.878 106.611 457.996 106.837C460.115 107.064 454.935 126.719 454.935 126.719C454.935 126.719 460.336 110.341 462.643 111.329C464.228 112.009 459.225 129.117 459.225 129.117C459.225 129.117 463.888 115.839 465.539 116.79C467.189 117.741 456.405 152.058 450.189 175.809" fill="#C1774D"/>
<path d="M444.52 126.732C444.52 126.732 445.893 131.568 444.796 136.437" stroke="#4F4949" stroke-miterlimit="10"/>
<path d="M457.798 130.143C455.814 131.926 452.114 136.449 450.799 138.7" stroke="#4F4949" stroke-miterlimit="10"/>
<path d="M334.003 229.457L329.65 237.506C329.65 237.506 328.977 434.825 330.106 434.825C331.235 434.825 370.807 434.825 370.807 434.825L375.019 227.418" fill="#FADFC5"/>
<path d="M397.535 221.724L403.617 237.778C403.617 237.778 412.065 254.876 414.639 272.534C416.023 282.035 415.618 292.316 415.618 292.316L420.426 434.826C420.426 434.826 381.528 436.052 381.528 434.826C381.528 433.599 364.254 223.068 364.254 223.068" fill="#FADFC5"/>
<path d="M398.58 231.772C398.58 231.772 403.012 242.849 405.586 260.508C406.971 270.009 407.784 292.318 407.784 292.318L412.592 434.827" stroke="#A88376" stroke-miterlimit="10"/>
<path d="M373.233 331.336L367.094 253.703" stroke="#A88376" stroke-miterlimit="10"/>
<path d="M374.164 117.767C374.164 117.767 411.396 130.132 415.491 134.023C419.587 137.914 427.592 163.702 427.592 163.702L438.968 130.573L461.079 144.928C461.079 144.928 450.741 182.099 447.576 191.667C444.411 201.236 437.646 212.392 429.268 211.955C420.891 211.519 414.561 201.686 410.652 194.896C407.511 189.44 397.43 166.652 397.43 166.652" fill="#4F4949"/>
<path d="M358.54 118.49C358.54 118.49 333.042 110.513 305.373 107.962C297.049 107.195 279.613 106.382 279.613 106.382L279.963 115.918C279.963 115.918 296.068 119.908 305.373 128.149C314.677 136.392 328.419 155.916 328.419 155.916" fill="#4F4949"/>
<path d="M412.914 148.73L403.623 237.78L329.654 237.507C329.654 237.507 323.467 147.481 322.971 145.549C322.721 144.579 334.513 116.746 334.513 116.746L370.557 119.151" fill="#4F4949"/>
<path d="M364.26 127.207L367.096 237.628" stroke="#773C2C" stroke-miterlimit="10"/>
<path d="M405.349 154.052H381.533V157.967H405.349V154.052Z" stroke="#773C2C" stroke-miterlimit="10"/>
<path d="M381.533 157.966L382.368 171.653L392.85 178.803L404.487 172.39L405.349 157.966" stroke="#773C2C" stroke-miterlimit="10"/>
<path d="M391.324 156.009H395.244" stroke="#773C2C" stroke-miterlimit="10"/>
<path d="M427.589 163.699L419.473 186.148" stroke="#773C2C" stroke-miterlimit="10"/>
<path d="M408.457 190.656L412.915 148.729" stroke="#773C2C" stroke-miterlimit="10"/>
<path d="M380.356 80.1455L384.523 85.2113C384.523 85.2113 396.178 92.7891 395.26 95.9333C394.343 99.0775 388.879 100.209 384.523 100.885C380.166 101.561 368.814 101.373 366.626 99.6625C364.436 97.9519 351.156 80.1455 351.156 80.1455" fill="#B25029"/>
<path d="M350.499 83.4072C348.934 84.8583 347.419 86.3607 345.958 87.9116C345.288 88.622 344.619 89.3586 344.223 90.2416C343.217 92.484 344.229 94.568 344.547 96.7969C344.783 98.4428 343.568 99.9465 342.263 101.02C341.624 101.544 340.918 102.057 340.6 102.808C340.121 103.939 340.668 105.21 341.207 106.315C342.011 107.961 342.965 109.984 341.975 111.777C341.536 112.573 340.792 113.212 340.608 114.11C340.364 115.308 341.198 116.424 341.977 117.339C342.709 118.198 343.448 119.065 344.338 119.742C346.762 121.587 349.96 121.8 352.959 121.788C359.93 121.761 366.996 120.864 373.918 119.987C375.694 119.762 377.491 119.504 379.143 118.787C380.795 118.07 382.313 116.834 383.036 115.124C384.094 112.623 383.286 109.752 382.877 107.05C382.607 105.272 382.519 103.464 382.189 101.696C381.753 99.3547 380.9 97.1245 380.112 94.8861C378.81 91.1852 377.667 87.3933 377.22 83.478" fill="#512D0C"/>
<path d="M356.507 112.437L355.297 121.206L364.258 127.207L378.233 113.419L377.158 107.244L378.461 93.3018L360.636 94.9039" fill="#C1774D"/>
<path d="M373.434 97.2725C373.34 97.505 374.656 99.616 376.199 101.982C375.518 104.994 373.968 107.706 372.966 110.332C371.085 113.851 368.855 117.037 366.214 118.146C363.151 119.175 357.873 119.372 355.615 118.916L356.344 111.849L373.434 97.2725Z" fill="#4F4949"/>
<path d="M351.158 115.055C349.166 112.415 348.582 108.672 348.115 105.533C347.647 102.394 347.421 94.5661 348.321 89.567C348.671 87.6225 348.729 83.04 348.729 83.04C348.729 83.04 361.838 76.5474 369.875 78.657C376.088 80.2874 379.808 86.0198 379.515 92.6243C379.305 97.3646 377.942 103.106 375.433 107.113C373.045 110.928 367.542 114.978 365.392 116.141C363.243 117.303 353.15 117.695 351.158 115.055Z" fill="#C1774D"/>
<path d="M355.385 94.4785C354.888 99.3488 353.758 102.191 354.962 103.891C355.736 104.982 357.065 104.533 358.093 104.205" stroke="#4F4949" stroke-miterlimit="10"/>
<path d="M362.059 98.0004C362.204 98.6845 362.853 99.1152 363.508 98.9622C364.162 98.8099 364.574 98.1319 364.428 97.4477C364.282 96.7636 363.633 96.3329 362.979 96.4859C362.325 96.6383 361.913 97.3163 362.059 98.0004Z" fill="#4F4949"/>
<path d="M348.76 96.2094C348.906 96.8935 349.555 97.3242 350.209 97.1712C350.864 97.0182 351.276 96.3402 351.129 95.6567C350.984 94.9726 350.335 94.5419 349.68 94.6949C349.026 94.8479 348.614 95.526 348.76 96.2094Z" fill="#4F4949"/>
<path d="M353.867 107.549L360.962 106.383C360.962 106.383 361.746 111.01 357.936 111.921C354.789 112.673 353.867 107.549 353.867 107.549Z" fill="white"/>
<path d="M348.137 102.315C348.313 103.584 349.44 104.462 350.653 104.278C351.867 104.094 352.707 102.916 352.531 101.648C352.354 100.38 351.228 99.5015 350.015 99.6855C348.801 99.8702 347.96 101.048 348.137 102.315Z" fill="#EA6744"/>
<path d="M362.511 104.926C362.712 106.372 363.996 107.374 365.38 107.163C366.763 106.953 367.721 105.611 367.52 104.165C367.319 102.72 366.035 101.718 364.651 101.928C363.268 102.139 362.31 103.481 362.511 104.926Z" fill="#EA6744"/>
<path d="M347.838 89.322C348.025 89.7999 348.615 89.8336 349.043 89.9387C349.489 90.0479 349.928 90.1807 350.372 90.2939C350.818 90.4078 351.262 90.5365 351.701 90.6801C351.909 90.7482 352.113 90.7947 352.328 90.8338C352.531 90.8708 352.712 90.9059 352.917 90.8567C353.017 90.8331 353.116 90.7933 353.214 90.763C353.644 90.6302 353.717 90.1288 353.459 89.7951C353.25 89.5249 353.063 89.3719 352.748 89.2411C352.514 89.1441 352.289 89.0733 352.042 89.0221C351.524 88.9149 351.002 88.8306 350.479 88.7592C349.997 88.6938 349.507 88.6878 349.022 88.6844C348.763 88.6824 348.506 88.679 348.253 88.7484C348.038 88.8064 347.725 89.0322 347.838 89.322Z" fill="#4F4949"/>
<path d="M362.045 91.4933C362.31 91.767 362.648 91.769 363 91.7939C363.308 91.8162 363.615 91.8485 363.921 91.8896C364.63 91.986 365.332 92.0575 366.033 92.2206C366.707 92.3769 367.378 92.5791 368.034 92.8043C368.727 93.0422 369.381 93.4014 370.121 93.4237C370.729 93.4419 370.932 92.6823 370.584 92.255C370.078 91.6322 369.272 91.372 368.55 91.1206C367.808 90.8625 367.056 90.6987 366.282 90.5888C365.546 90.4844 364.784 90.3913 364.04 90.4365C363.662 90.4594 363.285 90.5106 362.91 90.5659C362.531 90.6219 362.225 90.6866 361.987 91.0209C361.889 91.157 361.936 91.3821 362.045 91.4933Z" fill="#4F4949"/>
<path d="M381.868 80.2046C383.772 82.3304 382.296 81.9604 383.869 84.4333C385.267 86.6332 384.955 89.4269 384.995 92.0178C384.999 92.3029 385.009 92.592 385.093 92.865C385.228 93.3038 385.542 93.6644 385.843 94.0169C387.505 95.9668 389.025 98.2584 389.023 100.799C389.023 102.002 388.678 103.176 388.375 104.341C388.336 104.489 388.298 104.644 388.327 104.795C388.38 105.068 388.633 105.253 388.863 105.418C390.658 106.695 392.152 108.374 393.2 110.289C393.531 110.892 393.823 111.547 393.802 112.231C393.781 112.877 393.482 113.481 393.184 114.058C392.307 115.76 391.36 117.468 389.969 118.803C388.579 120.137 386.664 121.067 384.727 120.878C383.856 120.793 383.025 120.49 382.204 120.19C381.929 120.089 381.64 119.979 381.455 119.755C381.267 119.528 381.219 119.222 381.172 118.934C380.301 113.593 377.662 108.716 375.66 103.677C375.085 102.23 374.559 100.756 374.26 99.2303C374.035 98.0784 373.942 96.9056 373.755 95.7477C373.428 93.721 372.648 91.7778 372.372 89.7639C372.104 87.8127 371.402 84.4373 370.981 82.4996L350.632 80.5632C350.632 80.5632 349.94 75.0519 353.593 73.1909C357.246 71.33 361.973 68.109 367.756 69.0391C373.539 69.9699 379.53 71.9023 380.042 74.0496C380.553 76.1963 381.868 80.2046 381.868 80.2046Z" fill="#512D0C"/>
<path d="M371.894 100.4C372.873 98.5655 375.586 97.3152 377.398 99.1856C379.287 101.137 379.24 104.559 377.862 106.794C376.802 108.513 374.344 109.848 372.379 109.223C371.536 108.955 371.402 108.223 370.979 107.415" fill="#C1774D"/>
<path d="M374.307 106.831C374.307 107.357 373.899 107.784 373.396 107.784C372.893 107.784 372.484 107.358 372.484 106.831C372.484 106.306 372.892 105.879 373.396 105.879C373.899 105.879 374.307 106.305 374.307 106.831Z" fill="#BC5937" stroke="#4F4949" stroke-miterlimit="10"/>
<path d="M376.874 101.707C375.164 102.764 373.454 103.821 371.744 104.878" stroke="#4F4949" stroke-miterlimit="10"/>
<path d="M378.797 105.201C375.96 109.381 373.67 109.343 372.85 109.1C372.03 108.856 371.296 108.24 370.982 107.411" stroke="#4F4949" stroke-miterlimit="10"/>
<path d="M372.16 99.9806C372.16 99.9806 373.118 98.5915 374.665 98.3232" stroke="#4F4949" stroke-miterlimit="10"/>
<path d="M380.498 72.4813C378.051 70.0893 371.724 66.8716 367.546 67.2841C363.369 67.6966 354.69 69.8412 352.557 71.326C350.424 72.8109 348.73 83.0402 348.73 83.0402L384.525 85.2104C384.525 85.2104 382.944 74.874 380.498 72.4813ZM367.546 81.3734L355.617 80.5922C355.617 80.5922 356.151 74.6441 361.423 75.0391C369.516 75.6457 367.546 81.3734 367.546 81.3734Z" fill="#DB5717"/>
<path d="M349.287 80.1426L384.054 82.5993" stroke="#4F4949" stroke-miterlimit="10"/>
<path d="M364.262 127.207L378.237 113.419L383.358 120.902L375.563 138.573L364.262 127.207Z" fill="#441A0C"/>
<path d="M355.663 119.108L364.263 127.206L356.882 139.836L351.996 123.821L355.663 119.108Z" fill="#441A0C"/>
<path d="M323.42 150.433C323.42 150.433 322.469 137.764 321.359 133.602" stroke="#773C2C" stroke-miterlimit="10"/>
<path d="M436.516 137.705L458.831 152.951" stroke="#773C2C" stroke-miterlimit="10"/>
<path d="M361.988 139.057C362.704 139.057 363.283 138.451 363.283 137.704C363.283 136.957 362.704 136.351 361.988 136.351C361.273 136.351 360.693 136.957 360.693 137.704C360.693 138.451 361.273 139.057 361.988 139.057Z" fill="#773C2C"/>
<path d="M362.309 160.12C363.024 160.12 363.604 159.514 363.604 158.766C363.604 158.019 363.024 157.413 362.309 157.413C361.593 157.413 361.014 158.019 361.014 158.766C361.014 159.514 361.593 160.12 362.309 160.12Z" fill="#773C2C"/>
<path d="M362.625 181.183C363.34 181.183 363.92 180.577 363.92 179.83C363.92 179.082 363.34 178.477 362.625 178.477C361.91 178.477 361.33 179.082 361.33 179.83C361.33 180.577 361.91 181.183 362.625 181.183Z" fill="#773C2C"/>
<path d="M362.943 202.25C363.659 202.25 364.238 201.644 364.238 200.896C364.238 200.149 363.659 199.543 362.943 199.543C362.228 199.543 361.648 200.149 361.648 200.896C361.648 201.644 362.228 202.25 362.943 202.25Z" fill="#773C2C"/>
<path d="M363.266 223.31C363.981 223.31 364.561 222.704 364.561 221.957C364.561 221.209 363.981 220.604 363.266 220.604C362.55 220.604 361.971 221.209 361.971 221.957C361.971 222.704 362.55 223.31 363.266 223.31Z" fill="#773C2C"/>
</g>
<mask id="mask4_7742_6563" style="mask-type:luminance" maskUnits="userSpaceOnUse" x="0" y="0" width="485" height="337">
<path d="M484.499 0H0.822266V337H484.499V0Z" fill="white"/>
</mask>
<g mask="url(#mask4_7742_6563)">
<path d="M278.49 188.113C288.933 188.292 305.988 187.646 312.314 188.297C338.719 191.02 348.345 190.659 364.584 202.098C375.07 209.485 361.03 223.859 361.03 223.859L314.823 217.937L268.652 220.477" fill="#FFB573"/>
<path d="M272.089 223.859L291.318 222.408C291.318 222.408 291.243 199.133 286.291 187.804C276.254 187.632 266.632 187.866 261.291 189.092C248.339 192.064 239.855 196.939 239.855 196.939" fill="#EF6145"/>
<path d="M280.049 188.297C280.049 188.297 286.229 199.448 286.464 223.139" stroke="#4F4949" stroke-miterlimit="10"/>
<path d="M250.216 258.478C250.216 258.478 215.481 271.596 214.092 273.734C212.989 275.431 220.031 274.871 220.031 274.871C220.031 274.871 202.328 282.407 202.774 284.265C203.427 286.989 218.179 280.598 218.179 280.598C218.179 280.598 202.497 288.287 202.91 290.407C203.323 292.527 221.018 285.402 221.018 285.402C221.018 285.402 206.378 292.436 207.515 294.673C208.296 296.21 223.65 289.509 223.65 289.509C223.65 289.509 211.808 295.498 212.847 297.076C213.886 298.653 244.614 284.455 265.999 275.89" fill="#FF7664"/>
<path d="M220.031 274.873C220.031 274.873 224.64 275.797 229.04 274.22" stroke="#4F4949" stroke-miterlimit="10"/>
<path d="M224.461 287.97C225.921 285.793 229.752 281.618 231.71 280.072" stroke="#4F4949" stroke-miterlimit="10"/>
<path d="M324.7 206.191C324.7 206.191 297.82 208.197 288.921 214.782C276.178 224.211 253.355 250.679 253.355 250.679L222.174 269.021L233.486 295.32C233.486 295.32 255.388 287.982 263.652 281.925C271.916 275.869 297.113 251.942 297.113 251.942" fill="#EF9F4A"/>
<path d="M284.926 223.189L282.299 224.694L284.636 226.759L284.926 223.189Z" fill="#F9C973"/>
<path d="M265.588 275.8L262.961 277.303L265.298 279.369L265.588 275.8Z" fill="#F9C973"/>
<path d="M312.961 213.439L310.334 214.944L312.671 217.009L312.961 213.439Z" fill="#F9C973"/>
<path d="M266.531 249.795L268.667 251.991L269.885 249.057L266.531 249.795Z" fill="#F9C973"/>
<path d="M234.096 265.172L232.852 268.02L235.906 268.214L234.096 265.172Z" fill="#F9C973"/>
<path d="M238.443 283.289L240.579 285.485L241.797 282.551L238.443 283.289Z" fill="#F9C973"/>
<path d="M282.279 253.394L282.484 256.518L285.257 255.165L282.279 253.394Z" fill="#F9C973"/>
<path d="M233.453 299.266C233.453 299.266 229.685 321.88 234.204 333.083L239.201 468.671H278.784L275.573 292.21" fill="#5F3122"/>
<path d="M203.535 299.927C203.535 299.927 196.407 316.715 200.694 336.172L192.246 469.332H231.83L246.364 292.871" fill="#5F3122"/>
<path d="M209.178 299.927C209.178 299.927 203.188 314.034 205.492 331.372C206.037 335.473 206.118 339.627 205.856 343.758L197.889 469.333" stroke="#4F4949" stroke-miterlimit="10"/>
<path d="M231.945 467.897C231.998 467.255 244.314 322.832 244.314 322.832" stroke="#4F4949" stroke-miterlimit="10"/>
<path d="M204.758 323.314C205.013 323.114 223.786 322.591 229.505 311.984" stroke="#4F4949" stroke-miterlimit="10"/>
<path d="M263.445 312.268C263.445 312.268 266.204 320.399 276.1 321.178" stroke="#4F4949" stroke-miterlimit="10"/>
<path d="M225.351 200.173C213.015 197.159 198.163 197.338 191.583 201.817C180.967 209.04 158.482 231.186 158.482 231.186L129.441 218.551L115.314 238.675C115.314 238.675 139.992 255.174 153.46 262.206C162.85 267.11 171.939 260.568 182.208 251.449C196.028 239.175 194.067 240.241 194.067 240.241" fill="#FFB573"/>
<path d="M158.479 231.185L168.495 237.266" stroke="#4F4949" stroke-miterlimit="10"/>
<path d="M205.691 234.907L185.616 249.916C185.616 249.916 175.373 238.666 165.236 223.715C165.236 223.715 185.92 203.625 193.195 200.225C201.136 196.514 213.604 195.731 225.185 198.298" fill="#EF6145"/>
<path d="M170.975 218.872L191.165 245.766" stroke="#4F4949" stroke-miterlimit="10"/>
<path d="M224.925 251.345C224.925 251.345 254.794 254.23 256.304 255.614C257.504 256.712 251.859 257.778 251.859 257.778C251.859 257.778 267.248 259.917 267.262 261.473C267.282 263.754 254.435 261.883 254.435 261.883C254.435 261.883 268.267 264.575 268.357 266.329C268.447 268.084 253.144 266.266 253.144 266.266C253.144 266.266 266.028 268.665 265.573 270.666C265.259 272.042 251.88 270.058 251.88 270.058C251.88 270.058 262.36 272.233 261.852 273.696C261.345 275.158 234.413 270.567 215.928 268.406" fill="#F99C8B"/>
<path d="M251.859 257.779C251.859 257.779 248.418 259.491 244.65 259.192" stroke="#4F4949" stroke-miterlimit="10"/>
<path d="M250.938 269.019C249.364 267.62 245.536 265.157 243.695 264.361" stroke="#4F4949" stroke-miterlimit="10"/>
<path d="M162.689 220.993C162.689 220.993 168.748 223.455 178.585 228.295C188.422 233.134 200.997 244.256 213.84 247.855C220.638 249.759 245.99 253.326 245.99 253.326L250.54 278.526C250.54 278.526 220.595 278.557 206.561 275.99C188.364 272.662 168.587 258.556 168.587 258.556" fill="#323C66"/>
<path d="M239.857 252.434L243.219 278.268" stroke="#4F4949" stroke-miterlimit="10"/>
<path d="M276.606 207.984V311.406C276.606 311.406 260.648 313.213 237.07 314.117C211.771 315.086 199.176 314.307 199.176 314.307L198.539 229.375L212.277 207.983L225.105 195.309L268.358 197.27L276.606 207.984Z" fill="#EF6145"/>
<path d="M267.615 231.321C265.851 226.641 261.349 222.653 256.746 223.207C254.433 223.485 252.252 224.432 250.049 225.215C243.775 227.445 237.086 228.394 230.47 227.993C226.354 227.744 221.772 227.111 218.512 229.749C214.908 232.665 214.649 238.317 215.815 242.923C216.166 244.31 216.623 245.685 217.38 246.882C219.887 250.848 225.099 251.947 229.599 251.255C234.098 250.562 238.294 248.478 242.736 247.458C249.048 246.009 255.955 247.051 261.993 244.31C264.862 243.008 267.435 240.574 268.171 237.396C268.621 235.446 268.368 233.32 267.615 231.321Z" fill="#E25442"/>
<path d="M198.619 240.189L205.687 234.905" stroke="#4F4949" stroke-miterlimit="10"/>
<path d="M276.609 223.139V210.067" stroke="#4F4949" stroke-miterlimit="10"/>
<path d="M251.622 202.654C252.624 197.125 251.193 191.681 251.193 191.681" stroke="#4F4949" stroke-miterlimit="10"/>
<path d="M216.033 196.955C218.094 205.392 223.114 211.988 231.497 214.175C238.464 215.993 246.421 214.206 250.54 207.633" stroke="#4F4949" stroke-miterlimit="10"/>
<path d="M249.945 176.157C250.297 174.089 252.471 171.982 254.768 173.132C257.164 174.332 258.188 177.582 257.583 180.165C257.118 182.152 255.211 184.252 253.159 184.332C252.278 184.366 251.923 183.72 251.27 183.101" fill="#F7A166"/>
<path d="M255.062 175.694C253.776 177.276 252.489 178.859 251.203 180.441" stroke="#4F4949" stroke-miterlimit="10"/>
<path d="M250.064 175.672C250.064 175.672 250.537 174.032 251.915 173.251" stroke="#4F4949" stroke-miterlimit="10"/>
<path d="M247.622 193.529L248.218 200.966C248.218 200.966 247.922 204.702 244.612 207.801C241.199 210.997 233.46 211.214 227.661 208.279C221.95 205.389 220.551 200.863 220.551 200.863L223.759 183.657" fill="#FFB573"/>
<path d="M227.906 179.546C228.031 179.762 227.007 182.044 225.793 184.611C226.867 187.495 228.761 189.957 230.103 192.411C232.432 195.624 235.996 199.171 238.759 199.887C241.929 200.461 245.904 199.991 248.079 199.211L247.455 190.788L227.906 179.546Z" fill="#4F4949"/>
<path d="M251.912 193.113C253.535 190.21 254.029 187.236 254.075 184.059C254.122 180.883 253.306 173.097 251.752 168.277C251.147 166.403 250.046 163.429 248.89 162.102C244.451 157.004 236.636 157.343 228.958 160.597C223.021 163.113 220.098 169.329 221.265 175.827C222.102 180.491 224.214 185.98 227.23 189.584C230.102 193.016 236.088 196.229 238.372 197.069C240.655 197.909 250.29 196.017 251.912 193.113Z" fill="#FFB573"/>
<path d="M244.74 175.2C244.74 175.2 246.912 179.321 246.025 181.023C245.456 182.116 244.195 181.884 243.223 181.724" stroke="#4F4949" stroke-miterlimit="10"/>
<path d="M239.267 178.618C239.214 179.317 238.628 179.838 237.96 179.781C237.292 179.725 236.794 179.113 236.848 178.415C236.901 177.717 237.487 177.196 238.155 177.252C238.823 177.308 239.321 177.92 239.267 178.618Z" fill="#4F4949"/>
<path d="M250.926 175.125C250.873 175.824 250.287 176.345 249.618 176.288C248.95 176.232 248.452 175.62 248.506 174.922C248.56 174.223 249.145 173.702 249.813 173.759C250.482 173.815 250.98 174.426 250.926 175.125Z" fill="#4F4949"/>
<path d="M247.449 184.61L242.036 184.625C242.036 184.625 241.831 189.237 244.762 189.505C247.181 189.727 247.449 184.61 247.449 184.61Z" fill="white"/>
<path d="M253.693 181.315C253.685 182.943 252.416 184.256 250.858 184.247C249.301 184.239 248.044 182.912 248.053 181.284C248.061 179.657 249.33 178.344 250.888 178.353C252.445 178.361 253.701 179.687 253.693 181.315Z" fill="#F99564"/>
<path d="M240.197 185.551C240.188 187.488 238.677 189.05 236.824 189.04C234.971 189.03 233.477 187.451 233.486 185.515C233.496 183.579 235.006 182.016 236.859 182.026C238.713 182.037 240.207 183.614 240.197 185.551Z" fill="#F99564"/>
<path d="M252.278 168.341C252.061 167.896 251.317 167.925 250.905 167.885C250.445 167.841 249.984 167.805 249.521 167.818C249.062 167.831 248.602 167.859 248.145 167.903C247.879 167.929 247.624 167.974 247.367 168.051C247.174 168.109 247.002 168.174 246.847 168.316C246.768 168.388 246.696 168.471 246.622 168.548C246.299 168.886 246.495 169.355 246.866 169.516C246.968 169.56 247.044 169.616 247.186 169.656C247.347 169.703 247.509 169.681 247.672 169.668C247.937 169.648 248.194 169.61 248.454 169.558C248.908 169.466 249.374 169.391 249.807 169.334C250.286 169.272 250.76 169.182 251.24 169.128C251.606 169.088 252.596 168.99 252.278 168.341Z" fill="#4F4949"/>
<path d="M238.13 171.035C237.831 170.75 237.456 170.816 237.087 170.878C236.723 170.938 236.356 171.006 235.999 171.101C235.265 171.298 234.545 171.628 233.86 171.963C233.206 172.282 232.582 172.648 231.993 173.086C231.354 173.562 230.597 174.077 230.279 174.856C230.173 175.115 230.15 175.379 230.33 175.616C230.485 175.819 230.769 175.952 231.019 175.861C231.71 175.611 232.215 175.088 232.8 174.649C233.382 174.213 233.987 173.795 234.61 173.424C235.218 173.061 235.852 172.775 236.489 172.474C236.791 172.331 237.09 172.188 237.4 172.063C237.755 171.92 238.07 171.802 238.225 171.414C238.273 171.294 238.218 171.118 238.13 171.035Z" fill="#4F4949"/>
<path d="M222.318 191.408C222.318 191.408 221.016 188.197 220.509 186.917C219.739 184.968 218.388 184.568 217.246 182.851C215.793 180.667 216.648 179.127 214.143 175.912C213.244 174.758 213.708 172.14 213.119 170.757C212.524 169.362 211.359 168.325 210.747 166.935C209.891 164.988 209.51 162.698 210.706 160.806C215.479 153.252 223.743 148.508 232.009 146.427C233.407 146.075 234.793 145.696 236.203 145.404C238.714 144.884 239.572 144.452 242.1 145.193C243.234 145.525 244.796 147.575 245.989 150.319C246.453 151.389 249.257 152.59 249.905 153.519C250.678 154.631 250.545 155.591 251.054 156.792C251.244 157.241 251.601 157.584 251.901 157.961C252.75 159.029 253.166 160.462 253.028 161.843C252.958 162.534 253.041 162.889 253.161 163.572C253.251 164.08 253.78 164.323 253.967 164.801C254.375 165.843 253.736 167.063 253.742 168.701C253.743 169.158 254.035 170.603 254.012 171.06C253.947 172.357 253.154 174.404 253.179 174.492C251.772 167.899 249.367 163.46 246.6 160.489C241.602 164.047 235.735 166.261 229.715 166.861C229.59 167.65 229.453 168.436 229.305 169.22C228.564 173.14 227.538 177 226.239 180.758C225.621 182.545 224.989 184.325 224.317 186.089C223.967 187.009 222.318 191.408 222.318 191.408Z" fill="#4F4949"/>
<path d="M229.843 182.422C228.631 180.746 225.778 179.902 224.232 182.017C222.62 184.223 223.12 187.606 224.782 189.619C226.06 191.169 228.671 192.134 230.535 191.231C231.334 190.843 231.37 190.099 231.682 189.237" fill="#FFB573"/>
<path d="M225.088 184.438C226.921 185.236 228.755 186.035 230.589 186.834" stroke="#4F4949" stroke-miterlimit="10"/>
<path d="M223.648 188.176C227.012 191.904 229.275 191.534 230.056 191.174C230.836 190.814 231.48 190.097 231.681 189.231" stroke="#4F4949" stroke-miterlimit="10"/>
<path d="M229.525 182.047C229.525 182.047 228.391 180.81 226.824 180.769" stroke="#4F4949" stroke-miterlimit="10"/>
<path d="M262.652 235.915C255.093 250.068 246.258 263.478 236.305 275.908" stroke="#4F4949" stroke-miterlimit="10"/>
<path d="M223.171 271.183C228.972 266.651 234.798 262.156 240.605 257.632C242.256 256.346 243.898 255.048 245.542 253.753C245.744 253.594 245.547 253.233 245.342 253.394C239.531 257.92 233.754 262.495 227.979 267.072C226.338 268.373 224.693 269.666 223.047 270.96C222.921 271.059 223.044 271.282 223.171 271.183Z" fill="#4F4949"/>
</g>
<mask id="mask5_7742_6563" style="mask-type:luminance" maskUnits="userSpaceOnUse" x="0" y="0" width="485" height="337">
<path d="M484.499 0H0.822266V337H484.499V0Z" fill="white"/>
</mask>
<g mask="url(#mask5_7742_6563)">
<path d="M293.209 232.377C293.219 232.217 293.229 232.058 293.239 231.898C293.746 236.838 294.267 241.844 295.994 246.472" stroke="#9E612B" stroke-miterlimit="10"/>
<path d="M342.523 208.651L343.215 193.127L320.265 202.435L319.783 206.981L314.189 207.19L327.996 248.448L348.401 210.807L342.523 208.651Z" fill="#FF7664"/>
<path d="M397.541 252.313C397.541 252.313 420.16 213.739 422.707 212.643C424.73 211.773 421.524 221.657 421.524 221.657C421.524 221.657 433.42 203.205 435.257 204.136C437.949 205.5 427.919 220.853 427.919 220.853C427.919 220.853 439.515 204.737 441.632 205.691C443.75 206.644 432.284 225.182 432.284 225.182C432.284 225.182 442.958 210.104 445.033 211.909C446.459 213.15 435.969 229.117 435.969 229.117C435.969 229.117 444.916 216.989 446.325 218.532C447.733 220.076 425.917 251.851 412.107 274.265" fill="#FF7664"/>
<path d="M421.524 221.658C421.524 221.658 421.438 227.12 418.789 231.774" stroke="#4F4949" stroke-miterlimit="10"/>
<path d="M434.176 229.693C431.572 230.861 426.343 234.275 424.285 236.152" stroke="#4F4949" stroke-miterlimit="10"/>
<path d="M299.621 287.102C299.621 287.102 320.735 250.206 346.946 209.796C346.946 209.796 352.391 210.996 363.435 215.286C378.823 221.263 393.261 250.206 393.261 250.206L409.726 224.241L438.632 241.965C438.632 241.965 420.499 276.288 410.322 288.057C404.541 294.74 392.58 298.962 380.247 286.513C375.382 281.602 361.294 266.806 361.294 266.806" fill="#EF9F4A"/>
<path d="M380.271 261.697C382.909 259.056 385.994 257.025 389.295 255.754" stroke="#9E612B" stroke-miterlimit="10"/>
<path d="M383.584 263.731L393.259 250.207" stroke="#4F4949" stroke-miterlimit="10"/>
<path d="M333.065 258.963L314.188 207.191L305.022 209.175L296.869 231.899C291.773 244.747 292.085 259.324 298.201 268.174L299.623 287.102C299.623 287.102 280.933 309.776 284.135 341.905C287.337 374.035 295.663 476.447 295.663 476.447H371.879C371.879 476.447 380.845 353.619 377.643 328.852C374.44 304.086 359.833 286.859 359.833 286.859L361.538 269.725C369.713 257.725 370.356 248.86 366.184 233.632" fill="#EF9F4A"/>
<path d="M300.032 239.935L297.399 238.441L297.004 241.613L300.032 239.935Z" fill="#F9C973"/>
<path d="M309.774 256.939L307.146 258.444L309.484 260.508L309.774 256.939Z" fill="#F9C973"/>
<path d="M346.352 221.659L343.725 223.164L346.062 225.229L346.352 221.659Z" fill="#F9C973"/>
<path d="M303.082 216.172L300.455 217.676L302.792 219.741L303.082 216.172Z" fill="#F9C973"/>
<path d="M327.014 274.266L324.387 275.77L326.724 277.834L327.014 274.266Z" fill="#F9C973"/>
<path d="M306.332 336.652L303.705 338.157L306.042 340.221L306.332 336.652Z" fill="#F9C973"/>
<path d="M341.008 334.869L338.381 336.374L340.718 338.438L341.008 334.869Z" fill="#F9C973"/>
<path d="M365.479 329.553L362.852 331.057L365.189 333.122L365.479 329.553Z" fill="#F9C973"/>
<path d="M364.166 215.997L361.539 217.501L363.876 219.567L364.166 215.997Z" fill="#F9C973"/>
<path d="M319.521 233.101L319.271 236.221L322.209 235.323L319.521 233.101Z" fill="#F9C973"/>
<path d="M327.955 248.262L330.09 250.457L331.309 247.523L327.955 248.262Z" fill="#F9C973"/>
<path d="M379.299 239.289L378.055 242.137L381.11 242.331L379.299 239.289Z" fill="#F9C973"/>
<path d="M424.999 247.47L423.754 250.318L426.809 250.511L424.999 247.47Z" fill="#F9C973"/>
<path d="M369.039 261.196L371.174 263.391L372.393 260.457L369.039 261.196Z" fill="#F9C973"/>
<path d="M393.904 285.623L396.04 287.819L397.258 284.885L393.904 285.623Z" fill="#F9C973"/>
<path d="M409.75 231.17L411.886 233.366L413.103 230.432L409.75 231.17Z" fill="#F9C973"/>
<path d="M392.428 264.462L395.129 265.818L395.372 262.629L392.428 264.462Z" fill="#F9C973"/>
<path d="M340.607 292.932L340.812 296.056L343.586 294.704L340.607 292.932Z" fill="#F9C973"/>
<path d="M300.281 301.16L300.486 304.283L303.26 302.932L300.281 301.16Z" fill="#F9C973"/>
<path d="M357.146 297.65L357.352 300.774L360.125 299.423L357.146 297.65Z" fill="#F9C973"/>
<path d="M343.844 261.101L344.049 264.225L346.823 262.873L343.844 261.101Z" fill="#F9C973"/>
<path d="M323.205 307.248L323.41 310.371L326.184 309.02L323.205 307.248Z" fill="#F9C973"/>
<path d="M409.934 250.583L410.138 253.706L412.912 252.355L409.934 250.583Z" fill="#F9C973"/>
<path d="M354.797 240.08L356.933 242.275L358.15 239.341L354.797 240.08Z" fill="#F9C973"/>
<path d="M409.75 270.34L411.886 272.536L413.103 269.602L409.75 270.34Z" fill="#F9C973"/>
<path d="M353.805 216.201C350.716 224.334 346.841 232.141 342.257 239.464C337.692 246.76 332.44 253.556 327.197 260.338C319.805 269.901 310.079 280.675 299.621 287.103" stroke="#9E612B" stroke-miterlimit="10"/>
<path d="M348.785 245.728C344.576 250.825 340.049 255.628 335.206 260.069C330.368 264.508 325.234 268.589 319.895 272.346C316.753 274.556 313.546 276.67 310.315 278.736C310.143 278.846 310.298 279.123 310.472 279.018C316.267 275.548 321.841 271.674 327.159 267.45C332.212 263.435 337.007 259.067 341.488 254.367C344.08 251.648 346.569 248.823 348.956 245.907C349.057 245.784 348.887 245.605 348.785 245.728Z" fill="#9E612B"/>
<path d="M361.536 269.726C347.557 278.376 321.239 286.286 299.621 287.102" stroke="#9E612B" stroke-miterlimit="10"/>
<path d="M354.607 282.906C352.055 283.685 349.417 284.153 346.786 284.528C343.603 284.982 340.399 285.275 337.194 285.494C330.927 285.921 324.636 286.067 318.356 286.013C315.963 285.992 313.568 285.966 311.177 285.843C310.927 285.83 310.929 286.232 311.177 286.249C316.18 286.57 321.209 286.547 326.218 286.445C332.734 286.313 339.274 285.982 345.743 285.123C348.761 284.723 351.794 284.225 354.718 283.328C354.976 283.249 354.867 282.827 354.607 282.906Z" fill="#9E612B"/>
<path d="M302.918 294.636C307.076 298.987 311.395 303.17 315.862 307.174C320.334 311.182 324.951 315.012 329.698 318.657C334.493 322.339 339.421 325.833 344.466 329.131C349.536 332.446 354.728 335.556 360.023 338.462C365.345 341.383 370.77 344.089 376.293 346.568C376.953 346.865 377.615 347.158 378.278 347.448C378.494 347.543 378.656 347.146 378.439 347.049C372.938 344.582 367.517 341.912 362.194 339.051C356.893 336.202 351.694 333.147 346.605 329.903C341.561 326.688 336.631 323.279 331.829 319.683C326.994 316.061 322.288 312.249 317.731 308.254C313.254 304.329 308.919 300.228 304.743 295.957C304.222 295.424 303.704 294.89 303.189 294.353C303.014 294.171 302.743 294.454 302.918 294.636Z" fill="#9E612B"/>
<path d="M288.09 308.833C291.687 321.272 296.126 333.415 301.585 345.094C306.372 355.337 311.926 365.193 318.217 374.506C323.741 382.683 329.841 390.434 336.462 397.666C342.281 404.023 348.501 409.972 355.067 415.477C360.655 420.162 366.49 424.515 372.527 428.546C373.207 429 373.892 429.448 374.575 429.897C374.831 430.065 375.067 429.642 374.812 429.475C368.854 425.564 363.09 421.308 357.548 416.779C351.062 411.477 344.889 405.751 339.093 399.638C332.487 392.669 326.375 385.193 320.806 377.297C314.467 368.308 308.841 358.78 303.928 348.866C298.309 337.527 293.635 325.702 289.747 313.6C289.233 312.002 288.745 310.394 288.266 308.783C288.231 308.667 288.057 308.716 288.09 308.833Z" fill="#9E612B"/>
<path d="M299.621 287.102C311.118 316.725 350.537 358.413 377.692 373.127" stroke="#9E612B" stroke-miterlimit="10"/>
<path d="M339.021 272.13C343.482 272.649 348.005 272.653 352.44 271.899C352.651 271.863 352.604 271.48 352.389 271.506C347.948 272.026 343.474 272.193 339.021 271.751C338.788 271.727 338.792 272.103 339.021 272.13Z" fill="#9E612B"/>
<path d="M307.484 286.35C323.068 298.934 341.386 307.796 360.65 312.069" stroke="#9E612B" stroke-miterlimit="10"/>
<path d="M294.424 294.509C305.009 324.919 320.362 353.51 339.684 378.795" stroke="#9E612B" stroke-miterlimit="10"/>
<path d="M314.514 218.912C316.641 232.061 317.89 240.473 319.677 253.676" stroke="#9E612B" stroke-miterlimit="10"/>
<path d="M329.756 221.726C329.161 221.726 328.544 221.693 327.903 221.624C323.042 221.095 319.377 218.387 317.303 213.793C315.774 210.405 315.664 207.196 315.66 207.061L318.07 206.984L316.865 207.023L318.07 206.982C318.071 207.011 318.18 209.87 319.517 212.79C321.24 216.553 324.146 218.682 328.153 219.118C339.119 220.313 341.941 208.986 342.055 208.503L344.396 209.104C344.365 209.236 341.303 221.726 329.756 221.726Z" fill="#FADFC5"/>
<path d="M319.676 213.115C319.428 214.195 318.368 214.671 317.451 214.101C317.696 213.017 318.76 212.551 319.676 213.115Z" fill="#8E6E54"/>
<path d="M319.308 211.452C318.8 212.553 317.563 212.949 316.557 212.322C317.062 211.216 318.301 210.83 319.308 211.452Z" fill="#8E6E54"/>
<path d="M324.185 217.954C324.669 218.941 324.161 220.019 323.112 220.207C322.622 219.219 323.14 218.145 324.185 217.954Z" fill="#8E6E54"/>
<path d="M322.706 216.992C322.95 218.071 322.21 218.993 321.148 218.914C320.899 217.831 321.647 216.917 322.706 216.992Z" fill="#8E6E54"/>
<path d="M329.154 219.191C330.056 219.784 330.15 220.988 329.342 221.719C328.436 221.128 328.352 219.923 329.154 219.191Z" fill="#8E6E54"/>
<path d="M331.528 219.078C332.482 219.569 332.693 220.754 331.96 221.562C331.001 221.075 330.801 219.888 331.528 219.078Z" fill="#8E6E54"/>
<path d="M333.697 218.549C334.714 218.868 335.108 219.999 334.512 220.921C333.49 220.606 333.106 219.471 333.697 218.549Z" fill="#8E6E54"/>
<path d="M337.695 216.084C338.731 215.874 339.57 216.684 339.436 217.782C338.398 217.997 337.566 217.179 337.695 216.084Z" fill="#8E6E54"/>
<path d="M339.027 214.618C339.987 214.149 340.996 214.72 341.132 215.821C340.171 216.296 339.167 215.715 339.027 214.618Z" fill="#8E6E54"/>
<path d="M341.561 210.065C342.456 209.479 343.519 209.918 343.775 210.992C342.879 211.585 341.82 211.135 341.561 210.065Z" fill="#8E6E54"/>
<path d="M346.946 209.796C340.21 219.081 299.621 287.102 299.621 287.102" stroke="#4F4949" stroke-miterlimit="10"/>
<path d="M361.539 269.724C369.714 257.724 370.357 248.859 366.186 233.631" stroke="#4F4949" stroke-miterlimit="10"/>
<path d="M314.189 207.19L326.717 241.802" stroke="#4F4949" stroke-miterlimit="10"/>
<path d="M306.588 204.948C308.032 202.283 310.028 199.896 312.432 197.955L314.18 198.2C314.18 198.2 317.041 201.741 317.837 206.524C317.837 206.524 315.864 209.669 311.977 208.838C308.089 208.008 306.588 204.948 306.588 204.948Z" fill="#441A0C"/>
<path d="M315.081 197.622C314.938 198.739 313.955 199.522 312.887 199.374C311.818 199.224 311.068 198.197 311.211 197.081C311.354 195.964 312.336 195.179 313.405 195.329C314.474 195.478 315.224 196.505 315.081 197.622Z" fill="#7F683B"/>
<path d="M311.232 200.219C310.392 202.624 309.664 204.95 308.461 207.189C308.809 204.675 309.62 202.163 311.232 200.219Z" fill="#8E6E54"/>
<path d="M314.127 201.495C315.443 203.399 316.011 205.878 315.655 208.198C315.106 205.908 314.628 203.796 314.127 201.495Z" fill="#8E6E54"/>
<path d="M313.625 204.123C314.096 205.704 314.013 207.388 313.382 208.907C313.129 207.267 313.211 205.726 313.625 204.123Z" fill="#8E6E54"/>
<path d="M311.653 203.879C311.772 205.525 311.468 207.052 310.721 208.507C310.593 206.888 310.914 205.306 311.653 203.879Z" fill="#8E6E54"/>
<path d="M338.809 189.33C338.692 189.546 339.839 191.715 341.193 194.151C340.231 197.004 338.228 199.392 337.162 201.937C335.491 205.926 330.101 212.291 319.416 210.496L320.216 201.802L338.809 189.33Z" fill="#4F4949"/>
<path d="M314.197 200.309C310.638 193.671 312.647 185.775 313.529 180.896C315.191 171.707 325.076 167.498 335.414 169.913C341.755 171.394 345.585 176.91 345.332 183.342C345.151 187.958 344.362 192.588 342.3 196.817C340.206 201.109 333.968 206.09 328.753 206.782C321.624 207.728 316.981 205.502 314.197 200.309Z" fill="#FF7664"/>
<path d="M342.721 189.719C338.662 185.024 334.273 178.308 333.445 171.347C333.445 171.347 317.388 173.581 312.763 185.025C312.763 185.025 308.625 172.136 317.373 165.152C326.122 158.168 332.537 158.27 335.453 158.574C338.37 158.879 342.94 160.809 342.94 160.809C342.94 160.809 351.492 164.264 353.728 172.391C355.964 180.518 353.242 192.9 344.311 194.582" fill="#7F683B"/>
<path d="M342.154 168.102C344.32 169.534 346.785 170.471 349.325 170.825" stroke="#4F4949" stroke-miterlimit="10"/>
<path d="M335.512 170.056C337.38 173.215 339.301 176.392 341.856 178.975C344.941 182.096 348.909 184.253 353.125 185.102" stroke="#4F4949" stroke-miterlimit="10"/>
<path d="M338.006 170.218C342.463 173.671 348.481 175.17 354.11 174.231" stroke="#4F4949" stroke-miterlimit="10"/>
<path d="M311.984 176.032C312.171 174.995 313.03 174.255 313.858 173.651C318.828 170.026 324.795 167.914 330.848 167.636" stroke="#4F4949" stroke-miterlimit="10"/>
<path d="M313.387 169.226C317.704 167.162 322.579 166.391 327.288 167.028" stroke="#4F4949" stroke-miterlimit="10"/>
<path d="M347.478 163.452C347.382 164.908 346.579 166.233 345.55 167.219C344.522 168.206 343.274 168.902 342.043 169.588C340.315 170.549 338.55 171.524 336.621 171.869C332.9 172.535 328.502 172.832 325.514 170.419C324.223 169.376 322.874 166.017 322.536 164.089C322.243 162.411 321.904 161.192 322.617 159.658C323.015 158.802 323.673 158.105 324.39 157.52C327.432 155.034 331.786 154.434 335.341 156.01C336.461 156.506 337.492 157.194 338.588 157.747C344.063 156.324 347.478 160.708 347.478 163.452Z" fill="#7F683B"/>
<path d="M332.658 159.412C336.423 160.633 339.746 164.429 341.722 169.767" stroke="#4F4949" stroke-miterlimit="10"/>
<path d="M335.672 158.668C337.161 158.958 339.535 159.761 341.21 161.337C342.885 162.914 343.974 165.289 344.62 168" stroke="#4F4949" stroke-miterlimit="10"/>
<path d="M343.088 159.632C344.07 160.221 344.858 161.204 345.371 162.339C345.885 163.474 346.133 164.756 346.176 166.036" stroke="#4F4949" stroke-miterlimit="10"/>
<path d="M328.707 159.771C327.128 162.294 326.239 165.246 326.107 168.405" stroke="#4F4949" stroke-miterlimit="10"/>
<path d="M328.426 155.925C329.136 156.447 329.937 156.833 330.6 157.419C331.263 158.005 331.791 158.873 331.677 159.773" stroke="#4F4949" stroke-miterlimit="10"/>
<path d="M332.482 155.895C333.372 156.742 333.812 158.076 333.612 159.318" stroke="#4F4949" stroke-miterlimit="10"/>
<path d="M338.591 157.747C338.591 157.747 331.916 160.412 326.85 159.673" stroke="#4F4949" stroke-miterlimit="10"/>
<path d="M322.188 161.842C322.228 162.351 323.099 171.929 329.479 172.244C335.858 172.559 343.233 171.532 347.734 163.74" stroke="#4F4949" stroke-miterlimit="10"/>
<path d="M322.439 186.737C321.858 187.857 320.792 192.385 321.754 193.924C322.372 194.912 323.322 194.562 324.056 194.309" stroke="#4F4949" stroke-miterlimit="10"/>
<path d="M335.05 185.022C334.714 184.167 334.106 183.433 333.366 182.89C333.078 182.678 332.766 182.493 332.423 182.388C331.676 182.159 330.868 182.333 330.104 182.507" stroke="#4F4949" stroke-miterlimit="10"/>
<path d="M319.678 182.316C319.382 181.652 318.794 181.128 318.1 180.908C317.406 180.688 316.617 180.777 315.984 181.147" stroke="#4F4949" stroke-miterlimit="10"/>
<path d="M330.93 188.096C331.084 188.759 331.748 189.167 332.414 189.008C333.079 188.848 333.494 188.182 333.341 187.519C333.187 186.855 332.523 186.448 331.858 186.607C331.192 186.766 330.777 187.433 330.93 188.096Z" fill="#4F4949"/>
<path d="M315.257 187.35C315.41 188.013 316.074 188.421 316.74 188.262C317.405 188.102 317.821 187.436 317.667 186.772C317.514 186.109 316.849 185.701 316.184 185.861C315.518 186.02 315.103 186.688 315.257 187.35Z" fill="#4F4949"/>
<path d="M321.998 197.743L327.324 196.817C327.324 196.817 328.181 201.708 324.535 201.803C321.689 201.876 321.998 197.743 321.998 197.743Z" fill="white"/>
<path d="M314.224 193.329C314.448 194.785 315.812 195.774 317.273 195.537C318.735 195.301 319.738 193.928 319.516 192.471C319.293 191.015 317.927 190.026 316.467 190.263C315.005 190.5 314.001 191.872 314.224 193.329Z" fill="#EA6153"/>
<path d="M329.331 194.323C329.601 196.092 331.26 197.294 333.035 197.006C334.81 196.719 336.029 195.051 335.758 193.281C335.487 191.512 333.829 190.31 332.054 190.598C330.279 190.886 329.06 192.554 329.331 194.323Z" fill="#EA6153"/>
<path d="M341.122 188.845C342.129 187.001 344.95 185.709 346.852 187.541C348.836 189.451 348.811 192.86 347.389 195.11C346.295 196.841 343.742 198.213 341.688 197.626C340.807 197.374 340.662 196.646 340.215 195.848" fill="#FF7664"/>
<path d="M346.322 190.062C344.547 191.144 342.772 192.226 340.996 193.308" stroke="#4F4949" stroke-miterlimit="10"/>
<path d="M344.311 197.349C343.659 197.658 343.074 197.895 342.052 197.706C341.029 197.517 340.409 196.791 340.219 195.842" stroke="#4F4949" stroke-miterlimit="10"/>
<path d="M341.361 188.465C341.361 188.465 341.998 187.099 343.23 186.907" stroke="#4F4949" stroke-miterlimit="10"/>
<path d="M337.555 206.052C338.648 203.209 340.322 200.566 342.459 198.309H344.222C344.222 198.309 347.507 201.421 348.904 206.052C348.904 206.052 347.348 209.442 343.389 209.159C339.431 208.875 337.555 206.052 337.555 206.052Z" fill="#441A0C"/>
<path d="M345.041 197.614C345.041 198.741 344.167 199.655 343.089 199.655C342.011 199.655 341.137 198.741 341.137 197.614C341.137 196.487 342.011 195.574 343.089 195.574C344.166 195.574 345.041 196.487 345.041 197.614Z" fill="#7F683B"/>
<path d="M341.56 200.724C341.034 203.223 340.607 205.63 339.699 208.017C339.726 205.477 340.21 202.875 341.56 200.724Z" fill="#8E6E54"/>
<path d="M344.586 201.586C346.132 203.29 347.01 205.669 346.951 208.017C346.118 205.824 345.375 203.797 344.586 201.586Z" fill="#8E6E54"/>
<path d="M344.793 209.037C344.337 207.446 344.216 205.908 344.426 204.262C345.096 205.763 345.222 207.444 344.793 209.037Z" fill="#8E6E54"/>
<path d="M342.437 204.292C342.765 205.907 342.658 207.462 342.101 209.009C341.768 207.422 341.886 205.81 342.437 204.292Z" fill="#8E6E54"/>
<path d="M296.866 231.898C293.742 239.773 292.65 248.297 293.682 255.754" stroke="#4F4949" stroke-miterlimit="10"/>
<path d="M379.791 214.128C373.619 207.75 364.927 201.84 357.224 197.91L348.896 209.796C348.896 209.796 363.616 230.702 372.029 234.454C373.537 235.126 370.555 228.714 370.555 228.714C370.555 228.714 382.12 237.046 383.501 235.984C384.382 235.308 383.004 233.657 381.167 232.008C384.009 234.74 385.629 236.055 387.589 235.229C387.85 235.119 386.424 231.432 383.859 228.744C385.885 231.372 387.119 232.805 389.002 232.387C389.574 232.26 388.26 229.213 386.938 227.341C387.542 228.419 388.142 229.059 389.104 228.687C390.054 228.32 384.649 219.149 379.791 214.128Z" fill="#FFB573"/>
<path d="M370.556 228.713L365.699 226.742" stroke="#4F4949" stroke-miterlimit="10"/>
<path d="M382.351 232.83L372.809 223.241" stroke="#4F4949" stroke-miterlimit="10"/>
<path d="M377.148 219.799L385.649 230.701" stroke="#4F4949" stroke-miterlimit="10"/>
<path d="M379.457 216.869L387.325 227.639" stroke="#4F4949" stroke-miterlimit="10"/>
<path d="M348.479 209.157C349.202 210.391 350.067 211.548 350.893 212.71C351.71 213.857 352.544 214.991 353.392 216.113C355.029 218.277 356.687 220.433 358.475 222.463C358.676 222.692 358.975 222.36 358.795 222.128C357.146 220.004 355.442 217.926 353.798 215.797C352.937 214.682 352.084 213.559 351.241 212.43C350.388 211.287 349.587 210.093 348.705 208.976C348.599 208.843 348.394 209.013 348.479 209.157Z" fill="#4F4949"/>
</g>
<mask id="mask6_7742_6563" style="mask-type:luminance" maskUnits="userSpaceOnUse" x="0" y="0" width="485" height="337">
<path d="M484.498 0H0.822266V337H484.498V0Z" fill="white"/>
</mask>
<g mask="url(#mask6_7742_6563)">
<path d="M183.859 251.65L177.967 265.958" stroke="#4F4949" stroke-miterlimit="10"/>
<path d="M81.5625 272.8C87.137 282.739 98.2274 284.048 108.99 269.897C119.753 255.745 124.382 247.586 124.382 247.586L142.611 217.578C142.611 217.578 130.932 213.98 122.54 215.095C119.952 215.439 115.293 217.423 112.94 220.128C103.871 230.548 95.7536 243.79 95.7536 243.79" fill="#323C66"/>
<path d="M117.434 308.7L114.654 246.407L128.907 215.717L154.738 218.871L174.001 226.623L181.601 304.637L117.434 308.7Z" fill="#323C66"/>
<path d="M144.815 202.722C145.109 205.786 144.729 208.919 143.71 211.81C143.487 212.441 143.214 213.09 142.704 213.5C142.165 213.932 141.451 214.028 140.773 214.083C139.151 214.216 137.161 214.405 135.621 213.816C133.928 213.168 132.488 212.627 130.661 212.415C128.861 212.205 127.006 212.035 125.39 211.18C123.775 210.325 122.436 208.59 122.59 206.704C122.819 203.925 125.913 202.388 126.871 199.785C127.563 197.907 127.034 195.783 127.362 193.8C127.532 192.767 127.935 191.788 128.438 190.882C129.129 189.639 130.017 188.516 131.055 187.573C132.158 186.57 133.473 185.713 134.11 184.337C134.504 183.486 134.594 182.523 134.781 181.599C135.608 177.523 138.449 174.085 141.924 172.043C145.021 170.224 149.236 168.944 152.821 169.237C156.494 169.537 160.062 168.55 163.749 169.62C167.09 170.589 170.399 173.261 172.735 175.909C174.955 178.425 176.569 181.644 176.732 185.062C176.816 186.837 176.551 188.775 177.492 190.255C178.584 191.973 180.851 192.359 182.325 193.73C184.27 195.538 184.447 198.644 184.082 201.337C183.906 202.636 183.646 204.006 184.115 205.223C184.36 205.86 184.787 206.398 185.162 206.963C186.387 208.809 187.115 211.259 186.685 213.502C186.272 215.657 184.275 217.522 182.277 218.09C179.755 218.807 177.204 217.744 174.662 217.851C172.802 217.93 171.028 218.597 169.183 218.799C167.324 219.004 165.391 218.727 163.603 218.185C162.45 217.834 161.385 217.229 160.331 216.628C158.749 215.727 157.063 214.711 156.326 212.993" fill="#6C1B33"/>
<path d="M140.243 194.06C138.915 196.271 138.237 198.854 138.258 201.465C138.264 202.193 138.313 202.922 138.255 203.649C138.195 204.405 137.963 205.117 137.676 205.81C137.163 207.043 136.639 208.227 136.388 209.557C136.248 210.295 136.17 211.05 136.161 211.802C136.152 212.514 136.134 213.371 136.378 214.045C136.462 214.276 136.798 214.254 136.804 213.985C136.817 213.338 136.673 212.682 136.662 212.03C136.65 211.347 136.693 210.661 136.795 209.987C136.998 208.637 137.474 207.421 137.986 206.174C138.22 205.604 138.439 205.024 138.556 204.414C138.68 203.762 138.676 203.1 138.645 202.438C138.578 201.047 138.567 199.691 138.829 198.316C139.108 196.847 139.628 195.418 140.327 194.111C140.356 194.054 140.276 194.005 140.243 194.06Z" fill="#8E3C57"/>
<path d="M140.477 184.82C139.891 185.533 139.175 186.194 138.762 187.041C138.355 187.876 138.296 188.827 138.138 189.734C137.792 191.711 136.488 193.056 135.316 194.554C134.791 195.226 134.301 195.932 133.97 196.731C133.589 197.652 133.428 198.649 133.374 199.646C133.317 200.684 133.369 201.723 133.391 202.762C133.414 203.858 133.492 205.069 133.014 206.08C132.518 207.127 131.721 207.992 131.197 209.029C130.697 210.021 130.388 211.084 130.407 212.212C130.41 212.409 130.693 212.408 130.699 212.212C130.735 211.137 131.091 210.117 131.58 209.179C132.052 208.275 132.697 207.498 133.198 206.617C133.695 205.742 133.786 204.8 133.791 203.802C133.797 202.76 133.726 201.72 133.719 200.678C133.712 199.652 133.764 198.616 134.033 197.624C134.28 196.715 134.729 195.912 135.271 195.163C136.273 193.781 137.572 192.551 138.132 190.874C138.47 189.866 138.438 188.775 138.72 187.752C139.034 186.614 139.889 185.825 140.604 184.955C140.68 184.862 140.553 184.727 140.477 184.82Z" fill="#8E3C57"/>
<path d="M145.157 178.023C148.256 174.731 152.66 173.005 157.064 173.274C159.394 173.416 161.694 174.09 163.769 175.203C165.707 176.243 167.537 177.669 168.803 179.544C170.16 181.555 170.584 183.965 171.2 186.289C171.816 188.61 172.824 190.709 174.217 192.627C174.894 193.559 175.628 194.443 176.401 195.29C177.145 196.107 177.961 196.885 178.519 197.861C179.78 200.068 178.541 202.496 178.859 204.852C179.028 206.112 179.519 207.31 179.847 208.528C180.199 209.835 180.348 211.159 179.985 212.484C179.364 214.756 177.758 216.583 175.677 217.487C175.394 217.611 175.493 218.079 175.808 217.985C177.727 217.413 179.262 215.794 180.102 213.937C180.57 212.905 180.847 211.785 180.811 210.638C180.775 209.469 180.446 208.347 180.108 207.241C179.734 206.016 179.355 204.821 179.428 203.518C179.498 202.274 179.808 201.043 179.721 199.791C179.55 197.305 177.603 195.76 176.123 194.037C174.5 192.148 173.041 190.022 172.211 187.616C171.382 185.215 171.091 182.617 169.921 180.347C168.879 178.324 167.197 176.741 165.339 175.554C163.322 174.266 161.049 173.402 158.709 173.05C154.305 172.389 149.649 173.621 146.255 176.686C145.831 177.07 145.43 177.479 145.05 177.911C144.984 177.986 145.088 178.096 145.157 178.023Z" fill="#8E3C57"/>
<path d="M172.922 192.956C173.732 194.674 175.145 195.914 176.184 197.463C176.739 198.29 177.207 199.23 177.297 200.251C177.377 201.165 177.114 202.035 176.786 202.87C176.469 203.678 176.09 204.466 175.885 205.316C175.668 206.213 175.731 207.078 175.963 207.965C176.222 208.958 176.503 209.913 176.558 210.949C176.612 211.955 176.508 212.967 176.21 213.927C175.908 214.901 175.403 215.795 174.693 216.504C174.166 217.03 173.536 217.443 172.93 217.863C172.709 218.015 172.899 218.35 173.135 218.231C174.516 217.534 175.654 216.541 176.33 215.07C177.14 213.306 177.254 211.276 176.852 209.381C176.628 208.327 176.159 207.306 176.23 206.204C176.294 205.206 176.728 204.273 177.094 203.366C177.416 202.569 177.718 201.747 177.766 200.873C177.816 199.94 177.545 199.029 177.129 198.213C176.092 196.183 174.189 194.841 173.143 192.822C173.064 192.668 172.849 192.803 172.922 192.956Z" fill="#8E3C57"/>
<path d="M169.856 218.909C171.849 216.862 171.251 213.856 170.348 211.431C169.833 210.047 169.3 208.687 169.006 207.228C168.712 205.771 168.606 204.275 168.679 202.789C168.762 201.106 169.093 199.453 169.622 197.862C169.73 197.536 169.244 197.405 169.131 197.721C168.189 200.351 167.93 203.24 168.285 206.018C168.466 207.43 168.818 208.797 169.309 210.124C169.791 211.425 170.358 212.71 170.62 214.085C170.926 215.691 170.673 217.41 169.647 218.689C169.525 218.84 169.718 219.051 169.856 218.909Z" fill="#8E3C57"/>
<path d="M164.615 212.866L163.098 224.679C163.098 224.679 161.382 227.99 153 226.812C144.618 225.635 140.686 217.059 140.686 217.059C140.686 217.059 143.987 204.756 143.808 204.426" fill="#F99C8B"/>
<path d="M147.808 200.984C147.914 201.181 146.874 203.146 145.646 205.355C146.518 207.943 148.164 210.193 149.3 212.414C150.828 215.401 155.913 220.226 163.585 220.892L165.281 212.202L147.808 200.984Z" fill="#4F4949"/>
<path d="M168.792 210.607C172.018 204.589 171.529 197.761 170.729 193.336C169.222 185.004 160.26 181.189 150.887 183.379C145.138 184.722 141.666 189.722 141.895 195.554C142.06 199.739 143.283 204.826 145.575 208.4C147.758 211.803 152.175 214.443 155.944 215.658C162.17 217.665 166.268 215.316 168.792 210.607Z" fill="#F99C8B"/>
<path d="M141.941 199.754C143.37 199.341 144.551 198.229 145.332 196.91C146.113 195.592 146.532 194.075 146.827 192.555C146.998 191.675 147.135 190.77 147.54 189.978C147.945 189.187 148.687 188.514 149.545 188.493C150.286 188.475 150.962 188.934 151.494 189.472C152.027 190.009 152.472 190.643 153.056 191.118C154.208 192.056 156.836 192.498 157.195 191.614C157.554 190.731 155.991 189.87 155.755 187.795C156.891 190.079 160.77 192.168 161.803 191.494C162.836 190.819 159.456 188.319 159.808 186.482C161.151 188.809 164.099 191.747 165.869 191.305C167.639 190.863 165.148 187.871 165.278 186.288C166.352 187.121 170.062 188.784 171.32 197.08C171.612 195.16 172.703 194.768 171.971 190.548C171.16 185.878 169.858 183.869 166.508 180.665C164.815 179.046 162.829 177.699 160.606 177.104C157.96 176.395 155.146 176.794 152.526 177.602C151.147 178.027 149.79 178.569 148.579 179.377C147.693 179.967 146.895 180.693 146.155 181.472C145.225 182.451 144.382 183.517 143.614 184.638C142.683 185.997 141.854 187.452 141.351 189.038C140.427 191.958 140.657 195.121 140.899 198.186" fill="#6C1B33"/>
<path d="M144.109 182.017C145.728 183.892 146.553 186.555 146.757 189.038C146.977 191.723 146.354 194.381 144.99 196.663C144.277 197.856 143.428 198.954 142.638 200.091C142.499 200.292 142.811 200.542 142.967 200.356C144.663 198.349 146.251 196.217 146.93 193.586C147.631 190.865 147.42 188.043 146.469 185.419C145.981 184.076 145.292 182.825 144.262 181.857C144.158 181.759 144.015 181.908 144.109 182.017Z" fill="#8E3C57"/>
<path d="M162.646 196.971C163.385 198.038 164.884 202.274 163.854 203.63C163.193 204.502 162.071 204.119 161.203 203.84" stroke="#4F4949" stroke-miterlimit="10"/>
<path d="M151.215 197.08C151.519 196.305 152.071 195.639 152.741 195.147C153.003 194.955 153.286 194.787 153.596 194.691C154.273 194.484 155.006 194.641 155.699 194.8" stroke="#4F4949" stroke-miterlimit="10"/>
<path d="M165.148 194.624C165.417 194.023 165.95 193.547 166.579 193.348C167.209 193.148 167.923 193.229 168.497 193.565" stroke="#4F4949" stroke-miterlimit="10"/>
<path d="M158.156 200.016C158.016 200.617 157.415 200.987 156.811 200.842C156.207 200.697 155.832 200.093 155.97 199.492C156.109 198.89 156.711 198.52 157.315 198.665C157.918 198.811 158.294 199.415 158.156 200.016Z" fill="#4F4949"/>
<path d="M169.16 199.191C169.02 199.792 168.419 200.162 167.815 200.017C167.211 199.872 166.835 199.268 166.974 198.666C167.113 198.065 167.715 197.695 168.319 197.84C168.922 197.985 169.299 198.59 169.16 199.191Z" fill="#4F4949"/>
<path d="M163.924 207.35L159.095 206.51C159.095 206.51 158.318 210.944 161.624 211.03C164.204 211.097 163.924 207.35 163.924 207.35Z" fill="white"/>
<path d="M170.095 204.608C169.893 205.929 168.655 206.826 167.33 206.611C166.006 206.396 165.096 205.152 165.298 203.831C165.499 202.511 166.738 201.614 168.062 201.829C169.388 202.043 170.297 203.288 170.095 204.608Z" fill="#EF897B"/>
<path d="M158.1 204.842C157.855 206.447 156.351 207.536 154.742 207.276C153.133 207.015 152.027 205.503 152.272 203.899C152.518 202.295 154.021 201.205 155.631 201.466C157.24 201.726 158.346 203.238 158.1 204.842Z" fill="#EF897B"/>
<path d="M160.782 200.57C160.782 202.982 158.912 204.937 156.604 204.937C154.297 204.937 152.426 202.982 152.426 200.57C152.426 198.158 154.297 196.203 156.604 196.203C158.912 196.203 160.782 198.158 160.782 200.57Z" stroke="#323C66" stroke-miterlimit="10"/>
<path d="M171.811 198.589C171.991 200.806 170.624 202.738 168.757 202.903C166.891 203.068 165.232 201.404 165.053 199.186C164.874 196.968 166.241 195.037 168.107 194.872C169.974 194.707 171.632 196.371 171.811 198.589Z" stroke="#323C66" stroke-miterlimit="10"/>
<path d="M152.497 199.754L143.406 199.429" stroke="#323C66" stroke-miterlimit="10"/>
<path d="M160.646 199.493L165.05 199.186" stroke="#323C66" stroke-miterlimit="10"/>
<path d="M145.707 200.543C144.794 198.871 142.237 197.699 140.512 199.36C138.713 201.092 138.736 204.183 140.024 206.223C141.016 207.793 143.331 209.037 145.192 208.504C145.992 208.275 146.123 207.616 146.528 206.893" fill="#F99C8B"/>
<path d="M140.994 201.645C142.604 202.626 144.213 203.607 145.823 204.589" stroke="#4F4949" stroke-miterlimit="10"/>
<path d="M141.594 207.974C142.514 208.666 143.94 208.749 144.867 208.577C145.794 208.406 146.356 207.748 146.529 206.888" stroke="#4F4949" stroke-miterlimit="10"/>
<path d="M145.489 200.197C145.489 200.197 144.912 198.959 143.795 198.785" stroke="#4F4949" stroke-miterlimit="10"/>
<path d="M147.635 178.86C153.432 175.24 160.994 176.463 165.985 181.032C167.401 182.328 168.59 183.875 169.53 185.576C169.67 185.83 170.031 185.606 169.904 185.348C166.778 179.018 159.523 175.367 152.836 176.474C150.932 176.789 149.105 177.501 147.462 178.551C147.275 178.671 147.446 178.979 147.635 178.86Z" fill="#8E3C57"/>
<path d="M176.345 226.886L166.501 222.229L168.178 250.288L139.599 243.985L136.333 215.717L125.431 214.555C127.359 238.186 129.127 265.41 114.893 269.007L111.637 465.667L154.964 467.617L154.69 365.612L159.842 467.617L195.308 464.263L176.345 226.886Z" fill="#5C9570"/>
<path d="M115.311 261.144L122.535 250.678" stroke="#4F4949" stroke-miterlimit="10"/>
<path d="M132.275 215.283L136.361 248.447L171.353 255.137L169.317 223.561" stroke="#AABBF7" stroke-miterlimit="10"/>
<path d="M117.289 211.457C120.338 212.03 123.357 213.101 126.37 213.84C127.908 214.217 130.286 214.971 131.77 215.544C133.143 216.073 134.892 216.712 135.668 218.088C136.095 218.843 136.011 219.4 135.103 219.419C133.955 219.443 132.806 219.356 131.67 219.158" fill="#FB7E48"/>
<path d="M93.791 226.984L114.738 228.718C120.779 231.112 126.52 229.461 127.055 229.805C127.055 229.805 130.534 230.559 133.152 232.123C134.779 233.096 136.142 234.627 138.006 234.837C139.065 234.956 139.464 234.671 139.422 234.151C139.876 234.415 140.341 234.578 140.808 234.577C141.961 234.574 139.66 230.367 139.66 230.367C139.66 230.367 140.457 233.707 141.68 233.255C142.235 233.05 142.083 231.886 141.592 230.415C141.001 228.644 140.618 227.986 140.618 227.986C140.618 227.986 141.321 226.246 138.987 222.526C138.028 220.997 134.929 218.377 129.844 216.36C122.092 213.286 113.279 208.685 94.8461 206.05" fill="#FB7E48"/>
<path d="M139.423 234.152C139.423 234.152 135.138 228.066 129.438 226.701" stroke="#4F4949" stroke-miterlimit="10"/>
<path d="M140.875 233.018C140.875 233.018 139.614 230.39 138.109 228.47C135.933 225.693 132.978 223.183 130.361 222.085" stroke="#4F4949" stroke-miterlimit="10"/>
<path d="M140.688 228.142C140.688 228.142 138.479 222.585 131.42 218.874" stroke="#4F4949" stroke-miterlimit="10"/>
<path d="M135.604 219.437L132.352 217.111" stroke="#4F4949" stroke-miterlimit="10"/>
<path d="M109.82 230.19C109.82 230.491 113.862 232.832 113.862 232.832L121.257 233.78C121.257 233.78 126.431 213.1 125.983 213.126C125.536 213.152 119.823 211.892 119.823 211.892" fill="#4F4949"/>
<path d="M57.0918 161.574C51.7785 172.853 51.2522 186.454 53.7261 198.757C54.8966 204.58 59.2206 214.183 62.8837 219.707C66.5989 225.309 70.1794 227.522 79.2687 229.677C91.409 232.555 99.8894 232.833 113.864 232.833L119.825 211.893L85.1534 203.465L75.91 171.806" fill="#FF83A8"/>
<path d="M119.821 211.892L85.1496 203.464L75.9062 171.805" stroke="#4F4949" stroke-miterlimit="10"/>
<path d="M53.7246 198.756C54.8951 204.579 59.2192 214.182 62.8822 219.705C66.5975 225.307 70.178 227.521 79.2672 229.676C91.4075 232.553 99.888 232.831 113.862 232.831" stroke="#4F4949" stroke-miterlimit="10"/>
<path d="M121.9 212.34L116.678 233.191" stroke="#843F24" stroke-miterlimit="10"/>
<path d="M124.38 212.854L119.291 233.527" stroke="#843F24" stroke-miterlimit="10"/>
<path d="M78.3945 171.314C78.3945 171.314 79.0749 176.414 78.5545 180.866" stroke="#4F4949" stroke-miterlimit="10"/>
<path d="M136.994 264.363L171.581 269.86" stroke="#AABBF7" stroke-miterlimit="10"/>
<path d="M136.777 258.677L171.358 263.729L172.114 284.386C172.114 284.386 159.074 291.934 155.928 291.307C152.783 290.68 137.645 281.294 137.645 281.294L136.777 258.677Z" stroke="#4F4949" stroke-miterlimit="10"/>
<path d="M154.959 370.881L155.701 316.225" stroke="#4F4949" stroke-miterlimit="10"/>
<path d="M93.8206 242.723C93.8206 242.723 81.6971 212.263 79.9803 211.173C78.617 210.307 79.8585 217.806 79.8585 217.806C79.8585 217.806 73.283 203.108 71.8597 203.562C69.7722 204.227 75.3383 216.472 75.3383 216.472C75.3383 216.472 68.7275 203.493 67.0984 203.929C65.4701 204.367 71.7256 219.075 71.7256 219.075C71.7256 219.075 65.6661 206.952 63.9765 208.007C62.815 208.732 68.6456 221.474 68.6456 221.474C68.6456 221.474 63.5115 211.681 62.3294 212.626C61.1479 213.572 73.4281 239.039 80.9535 256.817" fill="#F99C8B"/>
<path d="M79.8551 217.807C79.8551 217.807 79.327 221.751 80.7316 225.417" stroke="#4F4949" stroke-miterlimit="10"/>
<path d="M69.877 222.103C71.6272 223.251 75.0246 226.328 76.304 227.923" stroke="#4F4949" stroke-miterlimit="10"/>
<path d="M95.7568 243.789L87.0248 224.688L67.6777 240.803C67.6777 240.803 76.0686 262.997 81.565 272.798" fill="#323C66"/>
<path d="M95.752 243.789L102.16 257.82" stroke="#4F4949" stroke-miterlimit="10"/>
<path d="M70.2168 247.326L90.2062 231.65" stroke="#4F4949" stroke-miterlimit="10"/>
<path d="M119.822 265.957L121.934 466.128" stroke="#AABBF7" stroke-miterlimit="10"/>
</g>
</svg>
