<svg width="667" height="980" viewBox="0 0 667 980" fill="none" xmlns="http://www.w3.org/2000/svg">
<g opacity="0.75">
<path fill-rule="evenodd" clip-rule="evenodd" d="M370.796 864.738C318.242 880.305 264.976 882.325 211.092 872.702C178.684 866.916 147.664 856.916 117.524 843.848C83.3286 829.015 51.8489 809.769 22.3363 787.081C-11.8054 760.833 -42.0876 730.569 -69.4361 697.536C-93.6937 668.238 -114.371 636.439 -130.088 601.549C-137.188 585.792 -144.009 569.996 -150.022 553.763C-153.688 543.861 -157.587 534.066 -160.443 523.891C-165.244 506.763 -167.331 489.119 -170.429 471.657C-174.837 446.814 -174.346 421.954 -173.191 396.959C-171.526 360.976 -162.839 326.803 -148.992 293.61C-139.247 270.251 -126.184 249.098 -110.253 229.677C-94.2178 210.128 -74.8965 194.42 -52.1683 183.078C-17.3238 165.687 19.232 162 57.3297 168.631C80.6463 172.691 101.808 181.222 119.599 196.87C133.478 209.076 143.733 223.733 150.285 241.495C160.065 268.017 170.917 294.174 183.869 319.399C198.135 347.182 213.061 374.547 230.628 400.435C259.384 442.808 297.36 473.253 345.89 490.132C364.061 496.449 382.364 502.394 400.649 508.388C417.622 513.944 433.915 520.902 449.516 529.701C479.964 546.869 502.823 571.551 516.237 603.214C535.269 648.144 538.152 694.318 519.869 740.918C501.825 786.911 470.924 820.825 427.208 843.394C419.531 847.357 412.141 852.11 404.091 855.059C393.26 859.016 381.919 861.578 370.796 864.738Z" fill="#D8B192" fill-opacity="0.75"/>
<path fill-rule="evenodd" clip-rule="evenodd" d="M85.5482 324.784C85.4164 324.321 85.3025 323.852 85.1501 323.398C76.9622 299.072 74.3133 273.88 73.6392 248.413C72.9249 221.31 75.7826 194.628 85.8168 169.261C94.5175 147.265 105.921 127.006 123.527 110.328C143.552 91.3638 166.526 78.0431 193.02 71.4551C219.718 64.8155 246.931 63.479 274.315 67.7291C303.164 72.2059 329.743 82.5903 355.328 96.425C380.351 109.953 403.713 125.905 425.866 143.504C441.236 155.714 455.045 169.748 467.385 185.3C477.83 198.462 488.698 211.236 497.931 225.329C509.288 242.666 518.741 260.823 524.05 280.982C526.38 289.826 529.013 298.582 531.52 307.376C540.562 339.109 542.707 371.535 539.723 404.178C536.47 439.785 523.898 472.416 504.222 502.161C488.864 525.392 468.255 543.235 444.489 557.518C442.458 558.742 440.174 559.66 437.889 560.322C424.941 564.078 412.071 568.19 398.954 571.227C391.567 572.935 383.766 573.412 376.146 573.432C347.019 573.528 318.782 568.638 291.811 557.296C281.211 552.832 270.513 548.625 259.999 543.988C247.164 538.327 236.146 529.545 224.803 521.61C202.372 505.913 181.95 487.664 163.761 467.108C143.338 444.026 125.217 419.098 111.472 391.603C100.816 370.276 89.9433 348.691 85.5482 324.784Z" fill="#E7E5D9" fill-opacity="0.9"/>
</g>
</svg>
