<svg width="81" height="81" viewBox="0 0 81 81" fill="none" xmlns="http://www.w3.org/2000/svg">
<circle cx="40.5" cy="40.5" r="40.5" fill="#2F804A"/>
<path fill-rule="evenodd" clip-rule="evenodd" d="M43.202 48.6405C43.1999 50.5913 41.6243 52.1757 39.684 52.1757C37.7438 52.1757 36.1661 50.5913 36.1661 48.6405C36.1475 47.6215 36.1372 47.0085 36.1372 46.7828C36.1372 44.4985 36.5142 42.6222 37.2721 41.1414C38.0219 39.671 39.5234 38.0101 41.7829 36.1607C44.0444 34.3216 45.3956 33.1142 45.8363 32.5385C46.5202 31.6335 46.86 30.6332 46.86 29.548C46.86 28.0486 46.2586 26.7563 45.0475 25.6897C43.8467 24.6128 42.2236 24.0764 40.1804 24.0764C38.2093 24.0764 36.5677 24.6418 35.2372 25.7643C33.9148 26.8971 33.0044 28.614 32.5081 30.9252C32.2856 32.6959 30.782 34.0648 28.9613 34.0648C26.9881 34.0648 25.3877 32.4577 25.3877 30.4737C25.3877 30.3184 25.3959 30.1693 25.4145 30.0202C25.6204 26.7087 27.019 23.9087 29.6183 21.5975C32.2176 19.2842 35.6326 18.1348 39.8529 18.1348C44.2998 18.1348 47.8363 19.3049 50.4624 21.6347C53.0885 23.9646 54.4026 26.6714 54.4026 29.7758C54.4026 31.4823 53.9248 33.1142 52.9588 34.6426C51.9928 36.169 49.9372 38.2565 46.7756 40.897C45.1443 42.2556 44.1309 43.3594 43.7355 44.1878C43.3421 45.0183 43.1649 46.4991 43.202 48.6405ZM39.684 54.8224C41.8941 54.8224 43.684 56.6241 43.684 58.8442C43.684 61.0664 41.8941 62.8661 39.684 62.8661C37.474 62.8661 35.6841 61.0664 35.6841 58.8442C35.6841 56.6241 37.474 54.8224 39.684 54.8224Z" fill="white"/>
</svg>
