<svg width="24" height="24" viewBox="0 0 24 24" fill="none" xmlns="http://www.w3.org/2000/svg">
<rect width="24" height="24" rx="4" fill="white"/>
<path d="M11 7H13C13 6.44772 12.5523 6 12 6C11.4477 6 11 6.44772 11 7ZM10 7C10 5.89543 10.8954 5 12 5C13.1046 5 14 5.89543 14 7H18C18.2761 7 18.5 7.22386 18.5 7.5C18.5 7.77614 18.2761 8 18 8H17.4364L16.2313 16.8378C16.0624 18.0765 15.0044 19 13.7542 19H10.2458C8.99561 19 7.93762 18.0765 7.76871 16.8378L6.56355 8H6C5.72386 8 5.5 7.77614 5.5 7.5C5.5 7.22386 5.72386 7 6 7H10ZM11 10.5C11 10.2239 10.7761 10 10.5 10C10.2239 10 10 10.2239 10 10.5V15.5C10 15.7761 10.2239 16 10.5 16C10.7761 16 11 15.7761 11 15.5V10.5ZM13.5 10C13.7761 10 14 10.2239 14 10.5V15.5C14 15.7761 13.7761 16 13.5 16C13.2239 16 13 15.7761 13 15.5V10.5C13 10.2239 13.2239 10 13.5 10ZM8.75954 16.7027C8.86089 17.4459 9.49568 18 10.2458 18H13.7542C14.5043 18 15.1391 17.4459 15.2405 16.7027L16.4272 8H7.57281L8.75954 16.7027Z" fill="#242424"/>
</svg>
