<svg width="340" height="68" viewBox="0 0 340 68" fill="none" xmlns="http://www.w3.org/2000/svg">
<path d="M85.6011 42.6924C85.0092 42.6924 84.5018 42.186 84.5018 41.5952V24.3418L82.4723 24.0042C81.8321 23.9198 81.373 23.3652 81.373 22.7382V22.6177C81.373 22.0269 81.8804 21.5205 82.4723 21.5205H87.0508C87.6427 21.5205 88.1501 22.0269 88.1501 22.6177V41.5952C88.1501 42.186 87.6427 42.6924 87.0508 42.6924H85.6011ZM86.2293 17.5779C84.7918 17.5779 83.7287 16.4325 83.7287 14.9977C83.7287 13.5147 84.828 12.3813 86.2655 12.3813C87.7514 12.3813 88.8507 13.4785 88.8507 14.9977C88.8628 16.4445 87.7514 17.5779 86.2293 17.5779Z" fill="#464646"/>
<path d="M95.9899 42.693C95.398 42.693 94.8906 42.1866 94.8906 41.5958V22.6183C94.8906 22.0275 95.398 21.5211 95.9899 21.5211H96.6302C97.2704 21.5211 97.814 21.9913 97.9469 22.5821L98.2852 24.1495C100.146 22.2927 102.272 20.9785 104.772 20.9785C107.817 20.9785 109.894 22.5459 109.894 26.1389V41.6079C109.894 42.1987 109.387 42.7051 108.795 42.7051H107.357C106.766 42.7051 106.258 42.1987 106.258 41.6079V27.2602C106.258 24.8488 105.582 24.1736 103.673 24.1736C101.982 24.1736 100.073 25.3552 98.5509 26.7055V41.5838C98.5509 42.1746 98.0436 42.681 97.4516 42.681H95.9899V42.693Z" fill="#464646"/>
<path d="M116.248 24.4751C115.656 24.4751 115.148 23.9687 115.148 23.3779V22.6183C115.148 22.0275 115.656 21.5211 116.248 21.5211H117.564V17.1686C117.564 16.5296 118.036 15.987 118.628 15.8182L120.15 15.5168C120.705 15.3962 121.213 15.8182 121.213 16.3608V21.5211H124.474C125.066 21.5211 125.574 22.0275 125.574 22.6183V23.3779C125.574 23.9687 125.066 24.4751 124.474 24.4751H121.213V38.3888C121.213 39.7391 121.768 40.3299 122.952 40.3299C123.46 40.3299 123.882 40.2455 124.269 40.125C124.825 39.9562 125.417 40.2938 125.586 40.8484L125.755 41.4874C125.876 42.0782 125.586 42.669 124.994 42.886C124.317 43.091 123.556 43.2718 122.662 43.2718C119.787 43.2718 117.577 42.1264 117.577 38.7505V24.4751H116.248Z" fill="#464646"/>
<path d="M137.317 43.247C131.772 43.247 128.631 40.0278 128.631 32.0823C128.631 24.0524 131.929 20.9658 136.93 20.9658C141.967 20.9658 144.855 23.8354 144.855 31.4915V32.2511C144.855 32.6369 144.553 32.9263 144.178 32.9263H132.533C132.617 38.7136 133.886 40.1604 137.401 40.1604C139.225 40.1604 140.409 39.6058 141.508 38.8462C142.016 38.4604 142.741 38.593 143.079 39.0512L143.755 39.9434C144.094 40.4136 144.009 41.125 143.502 41.4626C141.762 42.6924 139.986 43.247 137.317 43.247ZM136.845 23.8354C134.393 23.8354 132.859 25.1013 132.569 30.1773H141.001C141.001 25.3184 139.902 23.8354 136.845 23.8354Z" fill="#464646"/>
<path d="M152.019 42.6927C151.427 42.6927 150.92 42.1863 150.92 41.5955V22.6179C150.92 22.0271 151.427 21.5207 152.019 21.5207H152.659C153.3 21.5207 153.843 21.991 153.976 22.6179L154.363 24.5229C155.933 22.5817 157.878 21.147 160.33 21.147C160.451 21.147 160.632 21.147 160.753 21.1952C160.922 21.2434 161.091 21.4002 161.055 21.581L160.753 24.535C160.705 24.8364 160.415 25.0896 160.077 25.0414C159.859 24.9931 159.606 24.9931 159.4 24.9931C157.455 24.9931 156.139 25.7165 154.568 27.1513V41.6075C154.568 42.1983 154.061 42.7047 153.469 42.7047H152.019V42.6927Z" fill="#464646"/>
<path d="M167.603 42.693C167.011 42.693 166.504 42.1866 166.504 41.5958V14.6607C166.504 14.0699 167.011 13.5635 167.603 13.5635H169.294C169.886 13.5635 170.394 14.0699 170.394 14.6607V41.5958C170.394 42.1866 169.886 42.693 169.294 42.693H167.603ZM181.29 42.693C180.614 42.693 179.973 42.3072 179.635 41.7646L171.167 27.8147C170.829 27.2601 170.865 26.5005 171.251 25.9942L179.297 14.4557C179.683 13.9011 180.36 13.5635 181.036 13.5635H183.114C183.585 13.5635 183.839 14.0699 183.585 14.4557L174.984 26.6693L184.008 41.7646C184.262 42.1866 183.96 42.693 183.453 42.693H181.29Z" fill="#464646"/>
<path d="M193.465 43.248C190.421 43.248 188.041 41.5118 188.041 37.8345V22.6187C188.041 22.0279 188.548 21.5215 189.14 21.5215H190.578C191.17 21.5215 191.677 22.0279 191.677 22.6187V36.7011C191.677 39.1969 192.523 40.0409 194.431 40.0409C196.123 40.0409 197.947 38.8955 199.517 37.5089V22.6187C199.517 22.0279 200.025 21.5215 200.617 21.5215H202.054C202.646 21.5215 203.153 22.0279 203.153 22.6187V41.5962C203.153 42.187 202.646 42.6934 202.054 42.6934H201.414C200.774 42.6934 200.23 42.2232 200.097 41.6324L199.759 40.065C197.995 41.8856 195.966 43.248 193.465 43.248Z" fill="#464646"/>
<path d="M214.594 43.1146C211.888 43.1146 210.74 41.6798 210.74 37.9542V13.1773C210.74 12.5865 211.248 12.0801 211.84 12.0801H213.277C213.869 12.0801 214.376 12.5865 214.376 13.1773V38.6294C214.376 39.6904 214.848 40.1124 215.862 40.1124C216.031 40.1124 216.2 40.1124 216.333 40.0642C216.551 40.0642 216.756 40.1968 216.805 40.4018L217.022 41.6316C217.155 42.2223 216.768 42.8131 216.176 42.9458C215.657 43.0302 215.113 43.1146 214.594 43.1146Z" fill="#464646"/>
<path d="M221.468 24.4751C220.876 24.4751 220.369 23.9687 220.369 23.3779V22.6183C220.369 22.0275 220.876 21.5211 221.468 21.5211H222.785V17.1686C222.785 16.5296 223.256 15.987 223.848 15.8182L225.37 15.5168C225.926 15.3962 226.433 15.8182 226.433 16.3608V21.5211H229.695C230.287 21.5211 230.794 22.0275 230.794 22.6183V23.3779C230.794 23.9687 230.287 24.4751 229.695 24.4751H226.433V38.3888C226.433 39.7391 226.989 40.3299 228.173 40.3299C228.68 40.3299 229.103 40.2455 229.49 40.125C230.045 39.9562 230.637 40.2938 230.806 40.8484L230.976 41.4874C231.096 42.0782 230.806 42.669 230.215 42.886C229.538 43.091 228.777 43.2718 227.883 43.2718C225.008 43.2718 222.797 42.1264 222.797 38.7505V24.4751H221.468Z" fill="#464646"/>
<path d="M241.75 43.248C238.706 43.248 236.326 41.5118 236.326 37.8345V22.6187C236.326 22.0279 236.834 21.5215 237.425 21.5215H238.863C239.455 21.5215 239.962 22.0279 239.962 22.6187V36.7011C239.962 39.1969 240.808 40.0409 242.717 40.0409C244.408 40.0409 246.232 38.8955 247.802 37.5089V22.6187C247.802 22.0279 248.31 21.5215 248.902 21.5215H250.339C250.931 21.5215 251.439 22.0279 251.439 22.6187V41.5962C251.439 42.187 250.931 42.6934 250.339 42.6934H249.699C249.059 42.6934 248.515 42.2232 248.382 41.6324L248.044 40.065C246.28 41.8856 244.251 43.248 241.75 43.248Z" fill="#464646"/>
<path d="M260.052 42.6927C259.461 42.6927 258.953 42.1863 258.953 41.5955V22.6179C258.953 22.0271 259.461 21.5207 260.052 21.5207H260.693C261.333 21.5207 261.877 21.991 262.009 22.6179L262.396 24.5229C263.966 22.5817 265.911 21.147 268.364 21.147C268.497 21.147 268.666 21.147 268.786 21.1952C268.956 21.2434 269.125 21.4002 269.088 21.581L268.786 24.535C268.738 24.8364 268.448 25.0896 268.11 25.0414C267.893 24.9931 267.639 24.9931 267.433 24.9931C265.489 24.9931 264.172 25.7165 262.601 27.1513V41.6075C262.601 42.1983 262.094 42.7047 261.502 42.7047H260.052V42.6927Z" fill="#464646"/>
<path d="M291.606 43.247C286.061 43.247 282.92 40.0278 282.92 32.0823C282.92 24.0524 286.23 20.9658 291.219 20.9658C296.257 20.9658 299.144 23.8354 299.144 31.4915V32.2511C299.144 32.6369 298.842 32.9263 298.467 32.9263H286.822C286.906 38.7136 288.175 40.1604 291.69 40.1604C293.514 40.1604 294.698 39.6058 295.797 38.8462C296.305 38.4604 297.03 38.593 297.368 39.0512L298.044 39.9434C298.383 40.4136 298.298 41.125 297.791 41.4626C296.051 42.6924 294.275 43.247 291.606 43.247ZM291.147 23.8354C288.694 23.8354 287.16 25.1013 286.87 30.1773H295.302C295.29 25.3184 294.191 23.8354 291.147 23.8354Z" fill="#464646"/>
<path d="M305.209 43.0787C303.602 43.0787 302.334 41.8127 302.334 40.1609C302.334 38.5091 303.602 37.2432 305.209 37.2432C306.864 37.2432 308.084 38.5091 308.084 40.1609C308.084 41.8007 306.864 43.0787 305.209 43.0787Z" fill="#464646"/>
<path d="M321.89 42.6924C321.274 42.6924 320.694 42.2824 320.537 41.6675L312.697 15.4799C312.576 14.9494 312.939 14.4551 313.482 14.4551H315.5C316.116 14.4551 316.696 14.865 316.853 15.4799L321.25 31.0574C322.035 33.8908 322.446 35.6873 322.808 37.532H322.893C323.388 35.6511 323.714 34.0476 324.572 31.0092L328.885 15.4799C329.054 14.865 329.622 14.4551 330.238 14.4551H331.965C332.497 14.4551 332.871 14.9494 332.75 15.4799L324.91 41.6675C324.741 42.2824 324.173 42.6924 323.557 42.6924H321.89Z" fill="#464646"/>
<path d="M337.111 43.0787C335.505 43.0787 334.236 41.8127 334.236 40.1609C334.236 38.5091 335.505 37.2432 337.111 37.2432C338.766 37.2432 339.987 38.5091 339.987 40.1609C339.987 41.8007 338.754 43.0787 337.111 43.0787Z" fill="#464646"/>
<path d="M181.12 67.7822C180.891 67.7822 180.697 67.5893 180.697 67.3602V56.9069C180.697 56.6778 180.891 56.4849 181.12 56.4849H184.031C186.411 56.4849 187.281 57.7267 187.281 59.4991C187.281 60.6807 186.979 61.3197 185.904 61.7778C187.003 62.0913 187.8 62.9474 187.8 64.6112C187.8 66.8538 186.315 67.7822 184.213 67.7822H181.12ZM182.195 61.2715H184.068C185.396 61.2715 185.698 60.7168 185.698 59.5353C185.698 58.3537 185.324 57.7508 183.983 57.7508H182.195V61.2715ZM182.207 66.5283H184.044C185.626 66.5283 186.182 65.9254 186.182 64.5389C186.182 63.1764 185.674 62.5495 184.116 62.5495H182.207V66.5283Z" fill="#F7934A"/>
<path d="M191.135 67.7834C190.906 67.7834 190.725 67.6025 190.725 67.3734V67.3372C190.725 67.1202 190.906 66.9273 191.123 66.8911L191.884 66.8067V57.4385L191.123 57.3421C190.894 57.3059 190.725 57.125 190.725 56.896V56.8598C190.725 56.6428 190.906 56.4619 191.123 56.4619H194.143C194.361 56.4619 194.542 56.6428 194.542 56.8598V56.896C194.542 57.125 194.373 57.3059 194.143 57.3421L193.382 57.4385V66.8067L194.143 66.8911C194.361 66.9273 194.542 67.1202 194.542 67.3372V67.3734C194.542 67.6025 194.361 67.7834 194.143 67.7834H191.135Z" fill="#F7934A"/>
<path d="M198.626 67.7822C198.396 67.7822 198.203 67.5893 198.203 67.3602V56.9069C198.203 56.6778 198.396 56.4849 198.626 56.4849H199.278C199.508 56.4849 199.701 56.6778 199.701 56.9069V66.48H203.132C203.361 66.48 203.555 66.673 203.555 66.902V67.3602C203.555 67.5893 203.361 67.7822 203.132 67.7822H198.626Z" fill="#F7934A"/>
<path d="M207.226 67.7822C206.996 67.7822 206.803 67.5893 206.803 67.3602V56.9069C206.803 56.6778 206.996 56.4849 207.226 56.4849H209.69C212.77 56.4849 214.196 57.8955 214.196 62.2119C214.196 66.5765 212.795 67.7942 209.774 67.7942H207.226V67.7822ZM208.301 66.4921H209.799C211.985 66.4921 212.565 65.407 212.565 62.1396C212.565 58.8721 212.058 57.7388 209.835 57.7388H208.301V66.4921Z" fill="#F7934A"/>
<path d="M220.901 67.9992C219.319 67.9992 217.809 67.1673 217.809 64.5389V56.9069C217.809 56.6778 218.002 56.4849 218.231 56.4849H218.884C219.113 56.4849 219.307 56.6778 219.307 56.9069V64.2736C219.307 65.9375 219.621 66.685 221.046 66.685C222.23 66.685 223.051 66.0942 223.535 65.6361V56.9069C223.535 56.6778 223.728 56.4849 223.957 56.4849H224.61C224.839 56.4849 225.033 56.6778 225.033 56.9069V67.3602C225.033 67.5893 224.839 67.7822 224.61 67.7822H224.344C224.102 67.7822 223.873 67.6013 223.812 67.3723L223.643 66.7332C223.039 67.3843 222.121 67.9992 220.901 67.9992Z" fill="#F7934A"/>
<path d="M229.718 67.783C229.488 67.783 229.295 67.5901 229.295 67.361V56.9077C229.295 56.6786 229.488 56.4857 229.718 56.4857H230.394C230.66 56.4857 230.877 56.6063 230.998 56.8595L233.97 62.912C234.284 63.539 234.828 64.9255 235.069 65.6972H235.106C235.021 64.9376 234.924 63.6957 234.924 62.478V56.8956C234.924 56.6665 235.118 56.4736 235.347 56.4736H235.891C236.12 56.4736 236.314 56.6665 236.314 56.8956V67.349C236.314 67.578 236.12 67.771 235.891 67.771H235.166C234.924 67.771 234.695 67.6504 234.562 67.3972L231.844 61.8631C231.119 60.368 230.926 59.7772 230.563 58.7283H230.527C230.612 59.5361 230.672 60.8021 230.672 62.1042V67.3369C230.672 67.566 230.479 67.7589 230.249 67.7589H229.718V67.783Z" fill="#F7934A"/>
<path d="M247.055 67.7829C246.813 67.7829 246.584 67.6021 246.523 67.373L246.427 66.963C245.835 67.5177 244.965 67.9999 244.023 67.9999C241.413 67.9999 240 65.9985 240 62.1764C240 58.4991 241.329 56.2686 244.313 56.2686C245.376 56.2686 246.233 56.5097 247.007 57.0884C247.188 57.2211 247.236 57.4984 247.103 57.6913L246.837 58.0891C246.705 58.27 246.439 58.3303 246.245 58.1856C245.617 57.7636 245.098 57.5828 244.337 57.5828C242.247 57.5828 241.655 58.9814 241.655 62.1162C241.655 65.2871 242.259 66.7822 244.144 66.7822C244.929 66.7822 245.678 66.4325 246.27 65.89V63.0687H244.578C244.349 63.0687 244.156 62.8757 244.156 62.6467V62.2006C244.156 61.9715 244.349 61.7786 244.578 61.7786H247.321C247.55 61.7786 247.743 61.9715 247.743 62.2006V67.373C247.743 67.6021 247.55 67.795 247.321 67.795H247.055V67.7829Z" fill="#F7934A"/>
<path d="M84.5966 67.7822C84.3671 67.7822 84.1738 67.5893 84.1738 67.3602V56.9069C84.1738 56.6778 84.3671 56.4849 84.5966 56.4849H89.5495C89.7791 56.4849 89.9724 56.6778 89.9724 56.9069V57.353C89.9724 57.582 89.7791 57.775 89.5495 57.775H85.6839V61.2232H88.7281C88.9576 61.2232 89.1509 61.4161 89.1509 61.6452V62.0913C89.1509 62.3204 88.9576 62.5133 88.7281 62.5133H85.6839V66.468H89.767C89.9965 66.468 90.1898 66.6609 90.1898 66.89V67.3481C90.1898 67.5772 89.9965 67.7701 89.767 67.7701H84.5966V67.7822Z" fill="#81D889"/>
<path d="M94.163 67.7822C93.9335 67.7822 93.7402 67.5893 93.7402 67.3602V56.9069C93.7402 56.6778 93.9335 56.4849 94.163 56.4849H96.8932C99.0435 56.4849 100.396 57.4976 100.396 59.6317C100.396 61.3559 99.6837 62.236 98.2462 62.6339C98.826 62.8509 99.2609 63.3694 99.6716 64.5389L100.686 67.3964C100.771 67.5893 100.626 67.7942 100.409 67.7942H99.5992C99.3576 67.7942 99.1039 67.6254 99.0193 67.3964L98.0287 64.6112C97.5334 63.2367 97.0623 62.9474 96.3013 62.9474H95.2382V67.3602C95.2382 67.5893 95.0449 67.7822 94.8154 67.7822H94.163ZM95.2503 61.7176H96.8328C98.3428 61.7176 98.826 61.0665 98.826 59.6558C98.826 58.3416 98.3307 57.787 96.8328 57.787H95.2503V61.7176Z" fill="#81D889"/>
<path d="M103.624 67.7822C103.394 67.7822 103.201 67.5893 103.201 67.3602V67.0588C103.201 66.7935 103.286 66.48 103.394 66.251L107.997 57.787H103.95C103.721 57.787 103.527 57.5941 103.527 57.365V56.9069C103.527 56.6778 103.721 56.4849 103.95 56.4849H109.338C109.567 56.4849 109.761 56.6778 109.761 56.9069V57.2565C109.761 57.5218 109.676 57.8352 109.567 58.0643L105.001 66.48H109.326C109.555 66.48 109.749 66.673 109.749 66.902V67.3602C109.749 67.5893 109.555 67.7822 109.326 67.7822H103.624Z" fill="#81D889"/>
<path d="M113.071 67.7834C112.841 67.7834 112.66 67.6025 112.66 67.3734V67.3372C112.66 67.1202 112.841 66.9273 113.059 66.8911L113.82 66.8067V57.4385L113.059 57.3421C112.829 57.3059 112.66 57.125 112.66 56.896V56.8598C112.66 56.6428 112.841 56.4619 113.059 56.4619H116.079C116.296 56.4619 116.478 56.6428 116.478 56.8598V56.896C116.478 57.125 116.308 57.3059 116.079 57.3421L115.318 57.4385V66.8067L116.079 66.8911C116.296 66.9273 116.478 67.1202 116.478 67.3372V67.3734C116.478 67.6025 116.296 67.7834 116.079 67.7834H113.071Z" fill="#81D889"/>
<path d="M120.56 67.7822C120.33 67.7822 120.137 67.5893 120.137 67.3602V56.9069C120.137 56.6778 120.33 56.4849 120.56 56.4849H125.512C125.742 56.4849 125.935 56.6778 125.935 56.9069V57.353C125.935 57.582 125.742 57.775 125.512 57.775H121.647V61.2232H124.691C124.921 61.2232 125.114 61.4161 125.114 61.6452V62.0913C125.114 62.3204 124.921 62.5133 124.691 62.5133H121.647V66.468H125.73C125.959 66.468 126.153 66.6609 126.153 66.89V67.3481C126.153 67.5772 125.959 67.7701 125.73 67.7701H120.56V67.7822Z" fill="#81D889"/>
<path d="M130.14 67.7822C129.91 67.7822 129.717 67.5893 129.717 67.3602V56.9069C129.717 56.6778 129.91 56.4849 130.14 56.4849H130.792C131.021 56.4849 131.215 56.6778 131.215 56.9069V61.1027H135.298V56.9069C135.298 56.6778 135.491 56.4849 135.721 56.4849H136.373C136.603 56.4849 136.796 56.6778 136.796 56.9069V67.3602C136.796 67.5893 136.603 67.7822 136.373 67.7822H135.721C135.491 67.7822 135.298 67.5893 135.298 67.3602V62.441H131.215V67.3602C131.215 67.5893 131.021 67.7822 130.792 67.7822H130.14Z" fill="#81D889"/>
<path d="M144.044 67.9992C142.461 67.9992 140.951 67.1673 140.951 64.5389V56.9069C140.951 56.6778 141.144 56.4849 141.374 56.4849H142.026C142.256 56.4849 142.449 56.6778 142.449 56.9069V64.2736C142.449 65.9375 142.763 66.685 144.189 66.685C145.373 66.685 146.194 66.0942 146.677 65.6361V56.9069C146.677 56.6778 146.87 56.4849 147.1 56.4849H147.752C147.982 56.4849 148.175 56.6778 148.175 56.9069V67.3602C148.175 67.5893 147.982 67.7822 147.752 67.7822H147.487C147.245 67.7822 147.015 67.6013 146.955 67.3723L146.786 66.7332C146.182 67.3843 145.264 67.9992 144.044 67.9992Z" fill="#81D889"/>
<path d="M152.862 67.783C152.633 67.783 152.439 67.5901 152.439 67.361V56.9077C152.439 56.6786 152.633 56.4857 152.862 56.4857H153.539C153.805 56.4857 154.022 56.6063 154.143 56.8595L157.115 62.912C157.429 63.539 157.972 64.9255 158.214 65.6972H158.25C158.165 64.9376 158.069 63.6957 158.069 62.478V56.8956C158.069 56.6665 158.262 56.4736 158.492 56.4736H159.035C159.265 56.4736 159.458 56.6665 159.458 56.8956V67.349C159.458 67.578 159.265 67.771 159.035 67.771H158.31C158.069 67.771 157.839 67.6504 157.706 67.3972L154.988 61.8631C154.264 60.368 154.07 59.7772 153.708 58.7283H153.672C153.756 59.5361 153.817 60.8021 153.817 62.1042V67.3369C153.817 67.566 153.623 67.7589 153.394 67.7589H152.862V67.783Z" fill="#81D889"/>
<path d="M170.196 67.7829C169.954 67.7829 169.724 67.6021 169.664 67.373L169.567 66.963C168.975 67.5177 168.106 67.9999 167.163 67.9999C164.554 67.9999 163.141 65.9985 163.141 62.1764C163.141 58.4991 164.469 56.2686 167.453 56.2686C168.516 56.2686 169.374 56.5097 170.147 57.0884C170.328 57.2211 170.377 57.4984 170.244 57.6913L169.978 58.0891C169.845 58.27 169.579 58.3303 169.386 58.1856C168.758 57.7636 168.239 57.5828 167.477 57.5828C165.388 57.5828 164.796 58.9814 164.796 62.1162C164.796 65.2871 165.4 66.7822 167.284 66.7822C168.069 66.7822 168.818 66.4325 169.41 65.89V63.0687H167.719C167.49 63.0687 167.296 62.8757 167.296 62.6467V62.2006C167.296 61.9715 167.49 61.7786 167.719 61.7786H170.461C170.691 61.7786 170.884 61.9715 170.884 62.2006V67.373C170.884 67.6021 170.691 67.795 170.461 67.795H170.196V67.7829Z" fill="#81D889"/>
<path d="M255.608 67.7834C255.378 67.7834 255.197 67.6025 255.197 67.3734V67.3372C255.197 67.1202 255.378 66.9273 255.596 66.8911L256.357 66.8067V57.4385L255.596 57.3421C255.366 57.3059 255.197 57.125 255.197 56.896V56.8598C255.197 56.6428 255.378 56.4619 255.596 56.4619H258.616C258.833 56.4619 259.015 56.6428 259.015 56.8598V56.896C259.015 57.125 258.846 57.3059 258.616 57.3421L257.855 57.4385V66.8067L258.616 66.8911C258.833 66.9273 259.015 67.1202 259.015 67.3372V67.3734C259.015 67.6025 258.833 67.7834 258.616 67.7834H255.608Z" fill="#47C4DF"/>
<path d="M263.099 67.783C262.869 67.783 262.676 67.5901 262.676 67.361V56.9077C262.676 56.6786 262.869 56.4857 263.099 56.4857H263.775C264.041 56.4857 264.258 56.6063 264.379 56.8595L267.351 62.912C267.665 63.539 268.209 64.9255 268.45 65.6972H268.486C268.402 64.9376 268.305 63.6957 268.305 62.478V56.8956C268.305 56.6665 268.498 56.4736 268.728 56.4736H269.272C269.501 56.4736 269.694 56.6665 269.694 56.8956V67.349C269.694 67.578 269.501 67.771 269.272 67.771H268.547C268.305 67.771 268.076 67.6504 267.943 67.3972L265.225 61.8631C264.5 60.368 264.307 59.7772 263.944 58.7283H263.908C263.993 59.5361 264.053 60.8021 264.053 62.1042V67.3369C264.053 67.566 263.86 67.7589 263.63 67.7589H263.099V67.783Z" fill="#47C4DF"/>
<path d="M274.345 67.783C274.115 67.783 273.922 67.5901 273.922 67.361V56.9077C273.922 56.6786 274.115 56.4857 274.345 56.4857H274.997C275.227 56.4857 275.42 56.6786 275.42 56.9077V67.361C275.42 67.5901 275.227 67.783 274.997 67.783H274.345ZM279.66 67.783C279.394 67.783 279.153 67.6383 279.02 67.4213L275.734 62.0077C275.601 61.7907 275.613 61.5014 275.77 61.3085L278.899 56.8233C279.044 56.6063 279.31 56.4736 279.575 56.4736H280.385C280.566 56.4736 280.663 56.6665 280.566 56.8233L277.232 61.5616L280.735 67.4213C280.832 67.5901 280.723 67.783 280.518 67.783H279.66Z" fill="#47C4DF"/>
<path d="M284.395 67.7822C284.166 67.7822 283.973 67.5893 283.973 67.3602V56.9069C283.973 56.6778 284.166 56.4849 284.395 56.4849H285.048C285.277 56.4849 285.471 56.6778 285.471 56.9069V66.48H288.901C289.131 66.48 289.324 66.673 289.324 66.902V67.3602C289.324 67.5893 289.131 67.7822 288.901 67.7822H284.395Z" fill="#47C4DF"/>
<path d="M295.739 67.9992C294.157 67.9992 292.646 67.1673 292.646 64.5389V56.9069C292.646 56.6778 292.84 56.4849 293.069 56.4849H293.722C293.951 56.4849 294.144 56.6778 294.144 56.9069V64.2736C294.144 65.9375 294.459 66.685 295.884 66.685C297.068 66.685 297.889 66.0942 298.373 65.6361V56.9069C298.373 56.6778 298.566 56.4849 298.795 56.4849H299.448C299.677 56.4849 299.87 56.6778 299.87 56.9069V67.3602C299.87 67.5893 299.677 67.7822 299.448 67.7822H299.182C298.94 67.7822 298.711 67.6013 298.65 67.3723L298.481 66.7332C297.877 67.3843 296.959 67.9992 295.739 67.9992Z" fill="#47C4DF"/>
<path d="M306.659 67.9999C305.487 67.9999 304.388 67.6503 303.603 67.1198C303.41 66.9872 303.337 66.7098 303.47 66.5169L303.687 66.1432C303.82 65.9503 304.086 65.8779 304.267 66.0105C305.004 66.5049 305.596 66.7098 306.55 66.7098C308.061 66.7098 308.628 66.0226 308.628 64.8531C308.628 63.4786 307.855 63.0807 306.478 62.5502C304.606 61.8268 303.748 61.0793 303.748 59.1863C303.748 57.2452 304.968 56.2686 306.937 56.2686C307.976 56.2686 308.677 56.4615 309.305 56.8232C309.498 56.9317 309.583 57.1969 309.474 57.414L309.256 57.836C309.136 58.0289 308.882 58.1133 308.677 58.0047C308.169 57.7033 307.674 57.5586 307.022 57.5586C305.934 57.5586 305.246 58.0048 305.246 59.1381C305.246 60.2835 305.693 60.609 307.058 61.1395C308.822 61.8147 310.199 62.502 310.199 64.7687C310.175 66.4446 309.341 67.9999 306.659 67.9999Z" fill="#47C4DF"/>
<path d="M313.676 67.7834C313.447 67.7834 313.266 67.6025 313.266 67.3734V67.3372C313.266 67.1202 313.447 66.9273 313.664 66.8911L314.425 66.8067V57.4385L313.664 57.3421C313.435 57.3059 313.266 57.125 313.266 56.896V56.8598C313.266 56.6428 313.447 56.4619 313.664 56.4619H316.684C316.902 56.4619 317.083 56.6428 317.083 56.8598V56.896C317.083 57.125 316.914 57.3059 316.684 57.3421L315.923 57.4385V66.8067L316.684 66.8911C316.902 66.9273 317.083 67.1202 317.083 67.3372V67.3734C317.083 67.6025 316.902 67.7834 316.684 67.7834H313.676Z" fill="#47C4DF"/>
<path d="M324.429 67.9999C321.615 67.9999 320.201 66.0829 320.201 62.1764C320.201 58.3544 321.663 56.2686 324.393 56.2686C327.123 56.2686 328.597 58.3062 328.597 62.092C328.609 66.0226 327.244 67.9999 324.429 67.9999ZM324.417 66.8063C326.29 66.8063 326.978 65.3233 326.978 62.1885C326.978 59.0175 326.29 57.4984 324.417 57.4984C322.545 57.4984 321.832 58.9814 321.832 62.1162C321.832 65.2751 322.545 66.8063 324.417 66.8063Z" fill="#47C4DF"/>
<path d="M332.704 67.783C332.475 67.783 332.281 67.5901 332.281 67.361V56.9077C332.281 56.6786 332.475 56.4857 332.704 56.4857H333.381C333.646 56.4857 333.852 56.6063 333.985 56.8595L336.956 62.912C337.27 63.539 337.814 64.9255 338.056 65.6972H338.092C338.007 64.9376 337.911 63.6957 337.911 62.478V56.8956C337.911 56.6665 338.104 56.4736 338.333 56.4736H338.877C339.107 56.4736 339.3 56.6665 339.3 56.8956V67.349C339.3 67.578 339.107 67.771 338.877 67.771H338.152C337.911 67.771 337.681 67.6504 337.548 67.3972L334.83 61.8631C334.105 60.368 333.912 59.7772 333.55 58.7283H333.513C333.598 59.5361 333.658 60.8021 333.658 62.1042V67.3369C333.658 67.566 333.465 67.7589 333.236 67.7589H332.704V67.783Z" fill="#47C4DF"/>
<path d="M25.8759 59.4647V23.7883C25.8759 21.7989 27.543 20.1712 29.5846 20.1712H33.8247C35.8663 20.1712 37.5334 21.7868 37.5334 23.7883V34.5189L43.8513 22.8961C44.8419 21.2322 46.6781 20.1833 48.5626 20.1833H53.4189C54.4095 20.1833 55.2913 20.6776 55.7625 21.5216C56.2336 22.3415 56.2215 23.3301 55.7383 24.162L46.4003 39.9687L51.9572 50.205C56.898 44.8758 59.9302 37.7381 59.9302 29.9011C59.9302 13.3832 46.5211 0 29.9711 0C27.0115 0 24.1484 0.434049 21.4425 1.22981C22.7834 2.92983 23.5807 5.0639 23.5807 7.40294C23.5807 12.9491 19.0868 17.4343 13.5299 17.4343C10.0025 17.4343 6.97031 15.6981 5.19451 13.0817C1.92076 17.8804 0 23.6677 0 29.9132C0 38.4615 3.27375 45.4546 8.20249 50.5305V28.9728L6.6079 28.5508C4.67506 28.1288 3.33415 26.3685 3.33415 24.4514V23.4507C3.33415 21.606 4.84418 20.0989 6.69246 20.0989H16.7674C18.6157 20.0989 20.1257 21.606 20.1257 23.4507V58.0902C22.0223 58.7413 23.9431 59.1874 25.8759 59.4647Z" fill="url(#paint0_linear_9021_5460)"/>
<path d="M37.5449 58.8257C39.369 58.3554 41.1207 57.7164 42.7878 56.9207L37.5449 46.2744V58.8257Z" fill="url(#paint1_linear_9021_5460)"/>
<defs>
<linearGradient id="paint0_linear_9021_5460" x1="0.0134091" y1="29.727" x2="59.9362" y2="29.727" gradientUnits="userSpaceOnUse">
<stop offset="0.1589" stop-color="#F7934A"/>
<stop offset="0.4034" stop-color="#A8C174"/>
<stop offset="0.5391" stop-color="#81D889"/>
<stop offset="0.6349" stop-color="#69D0AC"/>
<stop offset="0.7308" stop-color="#57C9C8"/>
<stop offset="0.8148" stop-color="#4BC5D9"/>
<stop offset="0.8776" stop-color="#47C4DF"/>
</linearGradient>
<linearGradient id="paint1_linear_9021_5460" x1="37.5414" y1="52.5534" x2="42.7799" y2="52.5534" gradientUnits="userSpaceOnUse">
<stop offset="0.0882" stop-color="#81D889"/>
<stop offset="0.3041" stop-color="#77D498"/>
<stop offset="0.72" stop-color="#5CCBC0"/>
<stop offset="1" stop-color="#47C4DF"/>
</linearGradient>
</defs>
</svg>
