<?xml version="1.0" encoding="UTF-8"?>
<svg id="Ebene_1" data-name="Ebene 1" xmlns="http://www.w3.org/2000/svg" xmlns:xlink="http://www.w3.org/1999/xlink" viewBox="0 0 841.89 198">
  <defs>
    <style>
      .cls-1 {
        fill: #fff;
      }

      .cls-2 {
        fill: #008026;
      }

      .cls-3 {
        clip-path: url(#clippath-2);
      }

      .cls-4 {
        fill: #e30303;
      }

      .cls-5 {
        fill: #750887;
      }

      .cls-6 {
        clip-path: url(#clippath-1);
      }

      .cls-7 {
        fill: #004dff;
      }

      .cls-8 {
        fill: #ff8c00;
      }

      .cls-9 {
        clip-path: url(#clippath);
      }

      .cls-10 {
        fill: none;
      }

      .cls-11 {
        fill: #613814;
      }

      .cls-12 {
        fill: #73d6ed;
      }

      .cls-13 {
        fill: #edebf6;
      }

      .cls-14 {
        fill: #ffb0c7;
      }

      .cls-15 {
        fill: #ffed00;
      }
    </style>
    <clipPath id="clippath">
      <rect class="cls-10" y="-9.2" width="841.89" height="198"/>
    </clipPath>
    <clipPath id="clippath-1">
      <path class="cls-1" d="M266.94,27.65c-8.26,3.67-14.72,9.05-19.38,16.15-4.66,7.1-7.22,15.83-7.68,26.18-.12,5.12-.18,10.27-.18,15.45s.06,10.21,.18,15.1c.46,10.47,3.02,19.23,7.68,26.27,4.65,7.04,11.11,12.31,19.38,15.8,8.26,3.49,17.92,5.24,28.98,5.24,4.65,0,8.9-.47,12.74-1.4l5.41,6.98c.58,.7,1.4,1.54,2.44,2.53,1.05,.99,2.56,1.48,4.54,1.48h28.63c.93,0,1.77-.38,2.53-1.14,.76-.76,1.07-1.66,.96-2.71,0-.23-.06-.52-.18-.87-.12-.35-.23-.58-.35-.7l-13.44-19.03c7.8-7.91,12.04-18.73,12.74-32.47,.23-4.89,.35-9.92,.35-15.1s-.12-10.33-.35-15.45c-.35-10.36-2.91-19.08-7.68-26.18-4.77-7.1-11.29-12.48-19.55-16.15-8.26-3.67-17.86-5.5-28.8-5.5s-20.72,1.83-28.98,5.5"/>
    </clipPath>
    <clipPath id="clippath-2">
      <rect class="cls-10" y="-9.2" width="841.89" height="198"/>
    </clipPath>
  </defs>
  <g class="cls-9">
    <path class="cls-1" d="M217.19,148.48c1.28,0,2.36-.44,3.23-1.31,.87-.87,1.31-1.95,1.31-3.23V30.83c0-1.28-.44-2.36-1.31-3.23-.87-.87-1.95-1.31-3.23-1.31h-29.67c-1.17,0-2.21,.44-3.14,1.31-.93,.87-1.4,1.95-1.4,3.23v113.11c0,1.28,.46,2.36,1.4,3.23,.93,.87,1.98,1.31,3.14,1.31h29.67Zm-150.29,0c1.28,0,2.36-.44,3.23-1.31,.87-.87,1.31-1.95,1.31-3.23v-56.56l15.71,27.58c.58,.93,1.34,1.86,2.27,2.79,.93,.93,2.21,1.4,3.84,1.4h10.65c1.75,0,3.08-.46,4.01-1.4,.93-.93,1.69-1.86,2.27-2.79l15.71-27.58v56.56c0,1.28,.44,2.36,1.31,3.23,.87,.87,1.95,1.31,3.23,1.31h26.18c1.28,0,2.36-.44,3.23-1.31,.87-.87,1.31-1.95,1.31-3.23V30.83c0-1.28-.44-2.36-1.31-3.23-.87-.87-1.95-1.31-3.23-1.31h-23.22c-2.1,0-3.67,.58-4.71,1.75-1.05,1.16-1.74,1.98-2.09,2.44l-27.93,48.53-27.93-48.53c-.35-.46-1.05-1.28-2.09-2.44-1.05-1.16-2.62-1.75-4.71-1.75h-23.22c-1.28,0-2.39,.44-3.32,1.31-.93,.87-1.4,1.95-1.4,3.23v113.11c0,1.28,.46,2.36,1.4,3.23,.93,.87,2.03,1.31,3.32,1.31h26.18Z"/>
  </g>
  <g>
    <path class="cls-1" d="M266.94,27.65c-8.26,3.67-14.72,9.05-19.38,16.15-4.66,7.1-7.22,15.83-7.68,26.18-.12,5.12-.18,10.27-.18,15.45s.06,10.21,.18,15.1c.46,10.47,3.02,19.23,7.68,26.27,4.65,7.04,11.11,12.31,19.38,15.8,8.26,3.49,17.92,5.24,28.98,5.24,4.65,0,8.9-.47,12.74-1.4l5.41,6.98c.58,.7,1.4,1.54,2.44,2.53,1.05,.99,2.56,1.48,4.54,1.48h28.63c.93,0,1.77-.38,2.53-1.14,.76-.76,1.07-1.66,.96-2.71,0-.23-.06-.52-.18-.87-.12-.35-.23-.58-.35-.7l-13.44-19.03c7.8-7.91,12.04-18.73,12.74-32.47,.23-4.89,.35-9.92,.35-15.1s-.12-10.33-.35-15.45c-.35-10.36-2.91-19.08-7.68-26.18-4.77-7.1-11.29-12.48-19.55-16.15-8.26-3.67-17.86-5.5-28.8-5.5s-20.72,1.83-28.98,5.5"/>
    <g class="cls-6">
      <rect class="cls-4" x="211.29" y="22.16" width="234.64" height="11.29"/>
      <rect class="cls-8" x="211.29" y="33.28" width="234.64" height="11.29"/>
      <rect class="cls-15" x="211.29" y="44.57" width="234.64" height="11.29"/>
      <rect class="cls-2" x="211.29" y="55.86" width="234.64" height="11.29"/>
      <rect class="cls-7" x="211.29" y="67.14" width="234.64" height="11.29"/>
      <rect class="cls-5" x="211.29" y="78.43" width="234.64" height="11.29"/>
      <rect class="cls-13" x="211.29" y="101" width="234.64" height="11.29"/>
      <rect class="cls-14" x="211.29" y="112.29" width="234.64" height="11.29"/>
      <rect class="cls-12" x="211.29" y="123.58" width="234.64" height="11.29"/>
      <rect class="cls-11" x="211.29" y="134.86" width="234.64" height="11.29"/>
      <rect x="211.29" y="146.15" width="234.64" height="11.29"/>
      <rect class="cls-15" x="211.29" y="89.72" width="234.64" height="11.29"/>
    </g>
  </g>
  <g class="cls-3">
    <path class="cls-1" d="M805.11,120.38h-1.83c-.87,0-1.23,.16-1.39,.91l-4.09,17.27c-.32,1.39-.64,3.97-.71,4.68h-.2c-.08-.83-.44-3.22-.83-4.72l-4.64-16.91c-.2-.75-.6-.91-1.39-.91h-1.67c-.75,0-1.15,.16-1.39,.91l-4.68,16.91c-.4,1.39-.72,3.85-.83,4.72h-.2c-.08-.79-.4-3.45-.67-4.76l-4.13-17.19c-.16-.75-.52-.91-1.39-.91h-2.1c-.75,0-.87,.32-.67,1.03l6.83,26.32c.16,.72,.59,.83,1.31,.83h1.67c.72,0,1.11-.12,1.31-.87l4.8-17.63c.36-1.27,.64-2.74,.76-4.13h.24c.12,1.39,.4,2.94,.71,4.13l4.76,17.67c.16,.67,.6,.83,1.31,.83h1.67c.76,0,1.15-.12,1.31-.87l6.87-26.28c.16-.71,.04-1.03-.71-1.03m-40.38,8.46c0,3.1-1.79,4.84-4.92,4.84h-7.98v-9.72h7.98c3.14,0,4.92,1.75,4.92,4.88m-4.57-8.46h-11.15c-.75,0-1.03,.28-1.03,1.03v26.12c0,.75,.28,1.03,1.03,1.03h1.75c.79,0,1.07-.28,1.07-1.03v-10.28h4.25c2.94,0,4.09,.79,5.24,3.14l3.61,7.26c.36,.75,.76,.91,2.07,.91h1.75c.79,0,.87-.48,.56-1.07l-4.41-8.54c-.56-.99-1.11-1.75-1.99-2.22,3.65-.83,5.84-3.61,5.84-7.9,0-5.36-3.26-8.46-8.57-8.46m-19.36,0h-1.63c-.79,0-1.03,.28-1.03,1.03v14.37c0,3.53,.64,6.79,.64,7.66h-.2c-.48-.67-1.59-3.65-3.41-6.35l-11.16-16.2c-.2-.32-.48-.52-1.03-.52h-1.75c-.75,0-1.03,.28-1.03,1.03v26.12c0,.75,.28,1.03,1.03,1.03h1.63c.79,0,1.07-.28,1.07-1.03v-14.69c0-3.29-.67-6.63-.67-7.38h.2c.4,.56,1.59,3.65,3.22,6.11l11.31,16.47c.28,.4,.56,.52,1.07,.52h1.75c.75,0,1.03-.28,1.03-1.03v-26.12c0-.75-.28-1.03-1.03-1.03m-41.84,2.94h-1.67c-.71,0-.91,.24-.91,.95v3.81h-3.29c-.71,0-.95,.24-.95,.95v1.39c0,.71,.24,.95,.95,.95h3.29v9.33c0,6.63,2.34,8.57,8.65,8.42,.75-.04,.99-.24,.99-.95v-1.43c0-.75-.24-.95-.99-.95-3.85,0-5.12-.83-5.12-5.16v-9.25h5.2c.68,0,.91-.24,.91-.95v-1.39c0-.72-.24-.95-.91-.95h-5.2v-3.81c0-.71-.24-.95-.95-.95m-11.61,4.76h-1.67c-.71,0-.95,.24-.95,.95v18.58c0,.72,.24,.95,.95,.95h1.67c.71,0,.95-.24,.95-.95v-18.58c0-.72-.24-.95-.95-.95m-.71-7.5h-.24c-1.43,0-1.91,.48-1.91,1.91v.32c0,1.47,.48,1.91,1.91,1.91h.24c1.47,0,1.9-.48,1.9-1.91v-.32c0-1.43-.44-1.91-1.9-1.91m-9.92,14.93v1.15h-10.88v-1.15c0-3.1,1.87-5,5.44-5s5.44,1.91,5.44,5m-14.41,.48v4.92c0,4.84,2.62,8.26,8.81,8.26,4.57,0,7.15-1.67,8.54-4.09,.44-.67,.36-1.19-.36-1.55l-1.07-.56c-.71-.4-1.07-.32-1.55,.36-.99,1.67-2.7,2.74-5.52,2.74-3.49,0-5.32-1.75-5.32-4.76v-1.9h12.94c1.11,0,1.47-.56,1.47-1.39v-2.3c0-4.68-2.86-8.22-8.97-8.22s-8.97,3.14-8.97,8.5m-3.01,11.47l-3.49-7.07c-.83-1.67-1.79-2.74-3.18-3.25l6.35-7.94c.56-.71,.36-1.11-.59-1.11h-1.51c-1.07,0-1.35,0-1.86,.72l-5.91,7.66h-3.22v-16.31c0-.72-.24-.95-.99-.95h-1.55c-.76,0-.99,.24-.99,.95v27.43c0,.76,.24,.99,.99,.99h1.55c.75,0,.99-.24,.99-.99v-7.82h3.33c1.87,0,2.82,.63,3.57,2.18l2.74,5.76c.36,.75,.56,.87,1.63,.87h1.55c.91,0,1.03-.32,.6-1.11m-36.68-28.26h-1.67c-.71,0-.95,.24-.95,.95v27.47c0,.72,.24,.95,.95,.95h1.67c.67,0,.91-.24,.91-.95v-15.96c.87-.44,2.86-.91,5.08-.91,3.34,0,5,1.67,5,4.72v12.15c0,.72,.24,.95,.95,.95h1.63c.71,0,.95-.24,.95-.95v-12.27c0-4.96-2.5-7.86-8.06-7.86-2.58,0-4.72,.48-5.56,.87v-8.22c0-.72-.24-.95-.91-.95m-24.45,16.28v5.68c0,4.96,2.78,8.02,8.65,8.02,4.72,0,7.42-1.95,8.69-5.48,.28-.75,.04-1.07-.67-1.35l-1.39-.4c-.75-.24-1.03-.12-1.35,.64-.72,2.22-2.34,3.45-5.2,3.45-3.41,0-5.16-1.79-5.16-4.72v-5.99c0-2.94,1.71-4.68,5.16-4.68,2.94,0,4.45,1.15,5.16,3.33,.28,.72,.63,.95,1.35,.64l1.39-.44c.67-.24,.91-.6,.64-1.35-.99-3.14-3.57-5.32-8.38-5.32-6.03,0-8.89,3.06-8.89,7.98m-5.59-7.38h-1.67c-.71,0-.95,.24-.95,.95v18.58c0,.72,.24,.95,.95,.95h1.67c.72,0,.95-.24,.95-.95v-18.58c0-.72-.24-.95-.95-.95m-.71-7.5h-.24c-1.43,0-1.9,.48-1.9,1.91v.32c0,1.47,.48,1.91,1.9,1.91h.24c1.47,0,1.91-.48,1.91-1.91v-.32c0-1.43-.44-1.91-1.91-1.91m-7.22,27.03v-27.47c0-.72-.24-.95-.95-.95h-1.63c-.72,0-.95,.24-.95,.95v27.47c0,.72,.24,.95,.95,.95h1.63c.71,0,.95-.24,.95-.95m-12.41-16v12.9c0,.44-.04,.56-.56,.75-1.03,.36-2.5,.64-4.25,.64-3.49,0-5.24-1.67-5.24-4.84v-5.36c0-3.26,1.59-4.96,5.16-4.96,2.22,0,3.97,.6,4.88,.87m-13.62,3.97v5.6c0,5.08,2.66,7.98,8.49,7.98,3.37,0,5.56-.64,7.11-1.23,1.27-.52,1.55-.87,1.55-2.18v-25.6c0-.72-.24-.95-.91-.95h-1.67c-.71,0-.95,.24-.95,.95v8.22c-1.03-.28-3.1-.87-5.56-.87-5.4,0-8.06,2.94-8.06,8.1m-20.29-6.75c-1.23,.52-1.51,.99-1.51,2.22v16.55c0,.72,.24,.95,.91,.95h1.67c.71,0,.95-.24,.95-.95v-15.44c0-.32,.08-.56,.48-.72,1.11-.36,2.66-.71,4.61-.71,3.41,0,4.96,1.59,4.96,4.72v12.15c0,.72,.24,.95,.95,.95h1.67c.72,0,.95-.24,.95-.95v-12.27c0-4.92-2.5-7.86-8.06-7.86-3.69,0-6.03,.71-7.58,1.35m-7.68-.75h-1.67c-.72,0-.95,.24-.95,.95v18.58c0,.72,.24,.95,.95,.95h1.67c.72,0,.95-.24,.95-.95v-18.58c0-.72-.24-.95-.95-.95m-.71-7.5h-.24c-1.43,0-1.9,.48-1.9,1.91v.32c0,1.47,.48,1.91,1.9,1.91h.24c1.47,0,1.9-.48,1.9-1.91v-.32c0-1.43-.44-1.91-1.9-1.91m-9.92,14.93v1.15h-10.88v-1.15c0-3.1,1.87-5,5.44-5s5.44,1.91,5.44,5m-14.41,.48v4.92c0,4.84,2.62,8.26,8.81,8.26,4.57,0,7.15-1.67,8.54-4.09,.44-.67,.36-1.19-.36-1.55l-1.07-.56c-.71-.4-1.07-.32-1.55,.36-.99,1.67-2.7,2.74-5.52,2.74-3.49,0-5.32-1.75-5.32-4.76v-1.9h12.94c1.11,0,1.47-.56,1.47-1.39v-2.3c0-4.68-2.86-8.22-8.97-8.22s-8.97,3.14-8.97,8.5m-4.03-16.79h-.36c-5.84,.08-8.34,2.58-8.34,8.18v.71h-3.02c-.68,0-.91,.24-.91,.95v1.39c0,.71,.24,.95,.91,.95h3.02v16.24c0,.72,.24,.95,.99,.95h1.59c.75,0,.99-.24,.99-.95v-16.24h5.2c.67,0,.91-.24,.91-.95v-1.39c0-.72-.24-.95-.91-.95h-5.2v-.71c0-3.69,1.27-4.88,5.12-4.88,.71,0,.95-.24,.95-.95v-1.39c0-.72-.24-.95-.95-.95m-17.7,8.3c-3.49,.08-5.8,.68-7.26,1.23-1.23,.52-1.51,.99-1.51,2.22v16.67c0,.72,.24,.95,.91,.95h1.67c.71,0,.95-.24,.95-.95v-15.4c0-.36,.04-.6,.55-.79,1.15-.36,2.62-.67,4.57-.67h1.39c.71,0,.95-.24,.95-.95v-1.35c0-.71-.24-.95-.95-.95h-1.27Zm-16.76,8.02v1.15h-10.88v-1.15c0-3.1,1.86-5,5.44-5s5.44,1.91,5.44,5m-14.41,.48v4.92c0,4.84,2.62,8.26,8.81,8.26,4.57,0,7.15-1.67,8.54-4.09,.44-.67,.36-1.19-.36-1.55l-1.07-.56c-.71-.4-1.07-.32-1.55,.36-.99,1.67-2.7,2.74-5.52,2.74-3.49,0-5.32-1.75-5.32-4.76v-1.9h12.94c1.11,0,1.47-.56,1.47-1.39v-2.3c0-4.68-2.86-8.22-8.97-8.22s-8.97,3.14-8.97,8.5m-7.66-.48v1.15h-10.88v-1.15c0-3.1,1.87-5,5.44-5s5.44,1.91,5.44,5m-14.41,.48v4.92c0,4.84,2.62,8.26,8.81,8.26,4.57,0,7.14-1.67,8.54-4.09,.44-.67,.36-1.19-.36-1.55l-1.07-.56c-.71-.4-1.07-.32-1.55,.36-.99,1.67-2.7,2.74-5.52,2.74-3.49,0-5.32-1.75-5.32-4.76v-1.9h12.94c1.11,0,1.47-.56,1.47-1.39v-2.3c0-4.68-2.86-8.22-8.97-8.22s-8.97,3.14-8.97,8.5m-5.66-7.9h-1.63c-.71,0-.95,.24-.95,.95v15.28c0,.4-.08,.67-.59,.91-1.15,.36-2.54,.67-4.49,.67-3.41,0-5-1.59-5-4.72v-12.15c0-.72-.24-.95-.91-.95h-1.67c-.71,0-.95,.24-.95,.95v12.27c0,4.92,2.5,7.86,8.06,7.86,3.69,0,5.99-.75,7.58-1.35,1.23-.52,1.51-.99,1.51-2.22v-16.55c0-.72-.24-.95-.95-.95m-39.86,10.92v-9.05c0-4.21,2.58-6.59,7.27-6.59s7.26,2.38,7.26,6.59v9.05c0,4.21-2.58,6.59-7.26,6.59s-7.27-2.38-7.27-6.59m18.78,9.69l-2.58-3.02c1.43-1.67,2.18-3.97,2.18-6.67v-9.05c0-6.27-3.93-10.16-11.11-10.16s-11.12,3.89-11.12,10.16v9.05c0,6.27,3.93,10.16,11.12,10.16,2.42,0,4.49-.48,6.03-1.35l2.74,3.22c.48,.6,.87,.6,1.47,.12l1.15-.95c.6-.52,.6-.91,.12-1.51"/>
    <path class="cls-1" d="M701.69,89.09v1.15h-10.88v-1.15c0-3.1,1.87-5,5.44-5s5.44,1.91,5.44,5m-14.41,.48v4.92c0,4.84,2.62,8.26,8.81,8.26,4.57,0,7.15-1.67,8.53-4.09,.44-.67,.36-1.19-.36-1.55l-1.07-.56c-.71-.4-1.07-.32-1.55,.36-.99,1.67-2.7,2.74-5.52,2.74-3.49,0-5.32-1.75-5.32-4.76v-1.9h12.94c1.11,0,1.47-.56,1.47-1.39v-2.3c0-4.68-2.86-8.22-8.97-8.22s-8.97,3.14-8.97,8.5m-4.77,11.63v-27.47c0-.72-.24-.95-.95-.95h-1.63c-.71,0-.95,.24-.95,.95v27.47c0,.71,.24,.95,.95,.95h1.63c.71,0,.95-.24,.95-.95m-8.93,0v-27.47c0-.72-.24-.95-.95-.95h-1.63c-.72,0-.95,.24-.95,.95v27.47c0,.71,.24,.95,.95,.95h1.63c.71,0,.95-.24,.95-.95m-11.62-12.11v1.15h-10.88v-1.15c0-3.1,1.86-5,5.44-5s5.44,1.91,5.44,5m-14.41,.48v4.92c0,4.84,2.62,8.26,8.81,8.26,4.57,0,7.15-1.67,8.53-4.09,.44-.67,.36-1.19-.36-1.55l-1.07-.56c-.71-.4-1.07-.32-1.55,.36-.99,1.67-2.7,2.74-5.52,2.74-3.49,0-5.32-1.75-5.32-4.76v-1.9h12.94c1.11,0,1.47-.56,1.47-1.39v-2.3c0-4.68-2.86-8.22-8.97-8.22s-8.97,3.14-8.97,8.5m-10.24-12.66h-1.67c-.72,0-.91,.24-.91,.95v3.81h-3.29c-.72,0-.95,.24-.95,.95v1.39c0,.71,.24,.95,.95,.95h3.29v9.33c0,6.63,2.34,8.57,8.65,8.42,.75-.04,.99-.24,.99-.95v-1.43c0-.75-.24-.95-.99-.95-3.85,0-5.12-.83-5.12-5.16v-9.25h5.2c.68,0,.91-.24,.91-.95v-1.39c0-.72-.24-.95-.91-.95h-5.2v-3.81c0-.71-.24-.95-.95-.95m-26.66,10.32c0,5.12,4.09,5.79,8.06,6.19,3.33,.32,5.28,.76,5.28,3.14,0,1.94-1.59,3.02-4.96,3.02-2.78,0-4.57-.79-5.36-2.86-.32-.71-.64-.79-1.27-.6l-1.35,.48c-.71,.24-.87,.64-.59,1.27,1.23,3.26,4.17,4.88,8.69,4.88,5.56,0,8.3-2.58,8.3-6.35,0-4.68-3.33-5.68-7.86-6.11-3.3-.28-5.4-.6-5.4-3.14,0-1.91,1.47-2.86,4.53-2.86s4.33,1.03,5.08,2.58c.4,.64,.6,.75,1.31,.44l1.35-.56c.64-.28,.83-.67,.48-1.39-1.19-2.58-3.69-4.29-8.3-4.29-5.28,0-7.98,2.46-7.98,6.15m-20.98,0c0,5.12,4.09,5.79,8.06,6.19,3.34,.32,5.28,.76,5.28,3.14,0,1.94-1.59,3.02-4.96,3.02-2.78,0-4.57-.79-5.36-2.86-.32-.71-.64-.79-1.27-.6l-1.35,.48c-.71,.24-.87,.64-.59,1.27,1.23,3.26,4.17,4.88,8.69,4.88,5.56,0,8.3-2.58,8.3-6.35,0-4.68-3.33-5.68-7.86-6.11-3.29-.28-5.4-.6-5.4-3.14,0-1.91,1.47-2.86,4.53-2.86s4.33,1.03,5.08,2.58c.4,.64,.6,.75,1.31,.44l1.35-.56c.63-.28,.83-.67,.48-1.39-1.19-2.58-3.69-4.29-8.3-4.29-5.28,0-7.98,2.46-7.98,6.15m-20.28-4.8c-1.23,.52-1.51,.99-1.51,2.22v16.55c0,.71,.24,.95,.91,.95h1.67c.72,0,.95-.24,.95-.95v-15.44c0-.32,.08-.56,.48-.72,1.11-.36,2.66-.71,4.6-.71,3.41,0,4.96,1.59,4.96,4.72v12.15c0,.71,.24,.95,.95,.95h1.67c.71,0,.95-.24,.95-.95v-12.27c0-4.92-2.5-7.86-8.06-7.86-3.69,0-6.03,.71-7.58,1.35m-9.83,6.23v6.51c0,2.74-2.02,4.37-5.4,4.37s-5.36-1.63-5.36-4.37v-6.51c0-2.74,2.02-4.37,5.36-4.37s5.4,1.63,5.4,4.37m-14.29,.04v6.47c0,4.68,3.3,7.58,8.89,7.58s8.93-2.9,8.93-7.58v-6.47c0-4.72-3.22-7.62-8.93-7.62s-8.89,2.9-8.89,7.62m-5.61-7.03h-1.67c-.71,0-.95,.24-.95,.95v18.58c0,.71,.24,.95,.95,.95h1.67c.72,0,.95-.24,.95-.95v-18.58c0-.72-.24-.95-.95-.95m-.71-7.5h-.24c-1.43,0-1.91,.48-1.91,1.91v.32c0,1.47,.48,1.91,1.91,1.91h.24c1.47,0,1.91-.48,1.91-1.91v-.32c0-1.43-.44-1.91-1.91-1.91m-12.98,2.74h-1.67c-.72,0-.91,.24-.91,.95v3.81h-3.29c-.72,0-.95,.24-.95,.95v1.39c0,.71,.24,.95,.95,.95h3.29v9.33c0,6.63,2.34,8.57,8.65,8.42,.75-.04,.99-.24,.99-.95v-1.43c0-.75-.24-.95-.99-.95-3.85,0-5.12-.83-5.12-5.16v-9.25h5.2c.68,0,.91-.24,.91-.95v-1.39c0-.72-.24-.95-.91-.95h-5.2v-3.81c0-.71-.24-.95-.95-.95m-13.79,16.51v5c0,.56-.12,.68-.6,.87-.91,.32-2.26,.48-4.41,.48-3.97,0-4.8-1.27-4.8-3.34,0-2.26,1.15-3.33,4.88-3.33,1.95,0,4.13,.24,4.92,.32m-12.7-8.18c-.36,.71-.16,1.07,.52,1.35l1.23,.56c.72,.28,.87,.16,1.31-.48,.95-1.59,2.54-2.42,4.92-2.42,3.73,0,4.72,1.91,4.72,4.72v1.51c-.68-.08-2.58-.28-4.53-.28-6.31,0-8.85,1.59-8.85,6.23,0,4.05,1.71,6.31,8.69,6.31,3.1,0,5.36-.4,6.83-1.03,1.11-.48,1.43-.87,1.43-2.26v-10.36c0-4.49-1.79-8.02-8.22-8.02-4.05,0-6.71,1.55-8.06,4.17m-19.64-2.66c-1.19-.99-2.86-1.51-5.08-1.51-3.18,0-5.24,.68-6.71,1.31-1.23,.52-1.51,1.03-1.51,2.26v16.55c0,.71,.24,.95,.91,.95h1.67c.71,0,.95-.24,.95-.95v-15.4c0-.36,.04-.6,.48-.83,1.11-.4,2.22-.63,3.73-.63,3.02,0,4.53,1.51,4.53,4.56v12.31c0,.71,.24,.95,.95,.95h1.67c.67,0,.91-.24,.91-.95v-12.43c0-1.31-.16-2.46-.6-3.37,.83-.36,2.5-1.07,4.68-1.07,3.02,0,4.45,1.51,4.45,4.56v12.31c0,.71,.24,.95,.95,.95h1.67c.67,0,.91-.24,.91-.95v-12.43c0-4.92-2.3-7.7-7.5-7.7-3.61,0-5.99,1.07-7.07,1.51m-19.37-1.51c-3.49,.08-5.8,.68-7.27,1.23-1.23,.52-1.51,.99-1.51,2.22v16.67c0,.71,.24,.95,.91,.95h1.67c.72,0,.95-.24,.95-.95v-15.4c0-.36,.04-.6,.56-.79,1.15-.36,2.62-.67,4.57-.67h1.39c.71,0,.95-.24,.95-.95v-1.35c0-.71-.24-.95-.95-.95h-1.27Zm-17.1,7.58v6.51c0,2.74-2.02,4.37-5.4,4.37s-5.36-1.63-5.36-4.37v-6.51c0-2.74,2.02-4.37,5.36-4.37s5.4,1.63,5.4,4.37m-14.29,.04v6.47c0,4.68,3.29,7.58,8.89,7.58s8.93-2.9,8.93-7.58v-6.47c0-4.72-3.22-7.62-8.93-7.62s-8.89,2.9-8.89,7.62m-4.14-15.92h-.36c-5.84,.08-8.34,2.58-8.34,8.18v.71h-3.02c-.67,0-.91,.24-.91,.95v1.39c0,.71,.24,.95,.91,.95h3.02v16.24c0,.71,.24,.95,.99,.95h1.59c.75,0,.99-.24,.99-.95v-16.24h5.2c.67,0,.91-.24,.91-.95v-1.39c0-.72-.24-.95-.91-.95h-5.2v-.71c0-3.69,1.27-4.88,5.12-4.88,.71,0,.95-.24,.95-.95v-1.39c0-.72-.24-.95-.95-.95m-31.79,9.65c-1.23,.52-1.51,.99-1.51,2.22v16.55c0,.71,.24,.95,.91,.95h1.67c.71,0,.95-.24,.95-.95v-15.44c0-.32,.08-.56,.48-.72,1.11-.36,2.66-.71,4.6-.71,3.41,0,4.96,1.59,4.96,4.72v12.15c0,.71,.24,.95,.95,.95h1.67c.71,0,.95-.24,.95-.95v-12.27c0-4.92-2.5-7.86-8.06-7.86-3.69,0-6.03,.71-7.58,1.35m-11-7.42v26.12c0,.75,.28,1.03,1.03,1.03h1.75c.79,0,1.07-.28,1.07-1.03v-26.12c0-.75-.28-1.03-1.07-1.03h-1.75c-.75,0-1.03,.28-1.03,1.03"/>
    <path class="cls-1" d="M573.55,38.79v12.9c0,.44-.04,.56-.56,.75-1.03,.36-2.5,.63-4.25,.63-3.49,0-5.24-1.67-5.24-4.84v-5.36c0-3.26,1.59-4.96,5.16-4.96,2.22,0,3.97,.59,4.88,.87m-13.62,3.97v5.6c0,5.08,2.66,7.98,8.49,7.98,3.37,0,5.56-.63,7.11-1.23,1.27-.52,1.55-.87,1.55-2.18V27.32c0-.71-.24-.95-.91-.95h-1.67c-.72,0-.95,.24-.95,.95v8.22c-1.03-.28-3.1-.87-5.56-.87-5.4,0-8.06,2.94-8.06,8.1m-20.29-6.75c-1.23,.52-1.51,.99-1.51,2.22v16.55c0,.72,.24,.95,.91,.95h1.67c.71,0,.95-.24,.95-.95v-15.44c0-.32,.08-.56,.48-.71,1.11-.36,2.66-.71,4.6-.71,3.41,0,4.96,1.59,4.96,4.72v12.15c0,.72,.24,.95,.95,.95h1.67c.71,0,.95-.24,.95-.95v-12.27c0-4.92-2.5-7.86-8.06-7.86-3.69,0-6.03,.71-7.58,1.35m-7.7-.75h-1.63c-.71,0-.95,.24-.95,.95v15.28c0,.4-.08,.68-.6,.91-1.15,.36-2.54,.67-4.49,.67-3.41,0-5-1.59-5-4.72v-12.15c0-.72-.24-.95-.91-.95h-1.67c-.71,0-.95,.24-.95,.95v12.27c0,4.92,2.5,7.86,8.06,7.86,3.69,0,5.99-.75,7.58-1.35,1.23-.52,1.51-.99,1.51-2.22v-16.55c0-.72-.24-.95-.95-.95m-32.55,8.26h-9.73c-.79,0-1.03,.24-1.03,1.03v1.35c0,.79,.24,1.03,1.03,1.03h9.73c.79,0,1.07-.24,1.07-1.03v-1.35c0-.79-.28-1.03-1.07-1.03m-18.86-.83v1.15h-10.88v-1.15c0-3.1,1.87-5,5.44-5s5.44,1.9,5.44,5m-14.41,.48v4.92c0,4.84,2.62,8.26,8.81,8.26,4.56,0,7.14-1.67,8.53-4.09,.44-.68,.36-1.19-.36-1.55l-1.07-.56c-.71-.4-1.07-.32-1.55,.36-.99,1.67-2.7,2.74-5.52,2.74-3.49,0-5.32-1.75-5.32-4.76v-1.9h12.94c1.11,0,1.47-.56,1.47-1.39v-2.3c0-4.68-2.86-8.22-8.97-8.22s-8.97,3.14-8.97,8.49m-8.24-4.37v12.9c0,.44-.04,.56-.55,.75-1.03,.36-2.5,.63-4.25,.63-3.49,0-5.24-1.67-5.24-4.84v-5.36c0-3.26,1.59-4.96,5.16-4.96,2.22,0,3.97,.59,4.88,.87m-13.62,3.97v5.6c0,5.08,2.66,7.98,8.49,7.98,3.38,0,5.56-.63,7.11-1.23,1.27-.52,1.55-.87,1.55-2.18V27.32c0-.71-.24-.95-.91-.95h-1.67c-.71,0-.95,.24-.95,.95v8.22c-1.03-.28-3.1-.87-5.56-.87-5.4,0-8.06,2.94-8.06,8.1m-4.85,12.03V27.32c0-.71-.24-.95-.95-.95h-1.63c-.71,0-.95,.24-.95,.95v27.47c0,.72,.24,.95,.95,.95h1.63c.71,0,.95-.24,.95-.95m-11.62-12.11v1.15h-10.88v-1.15c0-3.1,1.87-5,5.44-5s5.44,1.9,5.44,5m-14.41,.48v4.92c0,4.84,2.62,8.26,8.81,8.26,4.57,0,7.15-1.67,8.54-4.09,.44-.68,.36-1.19-.36-1.55l-1.07-.56c-.71-.4-1.07-.32-1.55,.36-.99,1.67-2.7,2.74-5.52,2.74-3.49,0-5.32-1.75-5.32-4.76v-1.9h12.94c1.11,0,1.47-.56,1.47-1.39v-2.3c0-4.68-2.86-8.22-8.97-8.22s-8.97,3.14-8.97,8.49m-6.22-15.6h-1.51c-.83,0-1.07,.16-1.43,.83l-9.09,16.2-9.13-16.24c-.36-.64-.6-.79-1.47-.79h-1.39c-.75,0-1.03,.28-1.03,1.03v26.12c0,.75,.28,1.03,1.03,1.03h1.51c.79,0,1.03-.28,1.03-1.03v-14.33c0-2.34-.16-4.64-.63-7.46h.24c.95,2.78,1.75,4.49,2.98,6.59l5.12,9.05c.36,.6,.6,.75,1.23,.75h.99c.64,0,.91-.2,1.23-.75l5.04-8.97c1.19-2.1,2.18-4.01,3.18-6.67h.2c-.48,2.78-.71,5.24-.71,7.46v14.33c0,.75,.24,1.03,1.03,1.03h1.59c.75,0,1.03-.28,1.03-1.03V28.59c0-.75-.28-1.03-1.03-1.03"/>
  </g>
</svg>