<svg width="528" height="429" viewBox="0 0 528 429" fill="none" xmlns="http://www.w3.org/2000/svg">
<path fill-rule="evenodd" clip-rule="evenodd" d="M-33.9173 198.876C-33.2797 199.594 -32.3299 200.214 -32.0635 201.053C-31.4672 202.918 -31.0724 204.877 -30.8447 206.825C-29.0119 222.698 -23.0093 237.259 -16.6896 251.708C-7.8411 271.934 3.17326 290.996 15.7332 309.082C28.119 326.912 42.105 343.48 58.0689 358.3C67.7036 367.249 75.0331 371.203 86 378.5C108.767 393.644 129.424 397.723 155.5 406.5C182.478 415.584 198.5 414.5 229.5 422.5C279.668 427.611 278.024 426.424 296.5 427.624C316.043 428.893 319.043 428.893 319.043 428.893C321.087 428.506 321.043 428.893 325.043 428.893C326.556 428.295 328.936 428.397 330.543 428.129C354.043 423.129 375.139 415.142 397.049 406.337C414.795 399.203 431.496 390.034 447.066 379.038C463.438 367.487 478.749 354.673 491.88 339.252C500.034 329.678 507.124 319.527 513.458 308.77C521.944 294.358 526.835 278.756 527.081 261.998C527.374 241.982 512.503 223.07 495.858 218.557C485.832 215.838 475.844 214.78 465.707 216.164C455.654 217.535 445.479 218.522 435.866 222.315C433.163 223.38 430.067 223.413 427.169 224.008C421.397 225.206 415.681 226.563 409.978 228.123C400.852 230.617 391.462 232.375 381.789 231.993C375.899 231.761 370.047 231.895 364.167 230.903C349.672 228.449 337.772 221.427 327.382 211.317C318.092 202.276 311.009 191.651 304.794 180.396C297.17 166.602 289.559 152.802 282.092 138.923C268.469 113.603 252 90.3745 231.927 69.741C212.519 49.7951 190.82 32.8398 165.64 20.8973C138.945 8.23315 110.67 1.61328 81.0322 0.628678C65.7127 0.11987 50.8217 2.84938 36.1967 6.29817C18.5046 10.472 3.91282 20.3778 -7.25373 35.0689C-21.8563 54.2855 -30.8699 75.9015 -35.488 99.4769C-38.3331 114.011 -39.7852 128.714 -39.9567 143.487C-40.0298 149.677 -38.5976 155.881 -37.9059 162.087C-37.6237 164.624 -36.4514 167.268 -38.535 169.619C-36.9961 179.37 -35.4567 189.123 -33.9173 198.876Z" fill="#EAD3B5" fill-opacity="0.35"/>
</svg>
