<svg width="320" height="289" viewBox="0 0 320 289" fill="none" xmlns="http://www.w3.org/2000/svg">
<path fill-rule="evenodd" clip-rule="evenodd" d="M99.1165 282.858C71.2253 278.375 46.3451 267.716 22.8148 254.399C11.6448 248.077 2.90449 239.493 -5.6571 230.793C-29.1997 206.859 -36.9827 178.315 -36.9713 147.764C-36.9606 133.131 -33.3888 118.688 -27.7299 105.036C-20.5834 87.7945 -11.1243 71.2546 2.72393 57.1616C22.4465 37.0847 46.0864 21.5339 74.7868 12.1156C93.5778 5.94939 112.766 1.39204 132.911 0.463756C152.461 -0.436253 171.913 -0.179879 190.978 4.48945C196.749 5.90212 202.635 6.97198 208.468 8.19429C227.706 12.2152 244.953 19.8832 261.187 29.5556C270.12 34.8778 278.702 40.5848 285.666 47.7352C293.324 55.5965 301.156 63.256 305.896 73.1825C309.877 81.5117 314.252 89.602 316.548 98.4569C320.64 114.238 321.21 129.971 316.275 145.699C315.75 147.375 315.209 149.057 314.884 150.767C311.657 167.823 302.561 182.831 292.964 197.617C281.534 215.225 267.561 231.34 251.408 245.785C239.522 256.42 227.178 266.736 212.604 274.967C195.49 284.631 176.793 288.251 156.943 288.717C146.614 288.96 136.174 289.267 125.952 288.268C116.885 287.381 108.048 284.73 99.1165 282.858Z" fill="#EAD3B5" fill-opacity="0.6"/>
</svg>
