<svg width="457" height="406" viewBox="0 0 457 406" fill="none" xmlns="http://www.w3.org/2000/svg">
<path fill-rule="evenodd" clip-rule="evenodd" d="M328.961 28.572C361.592 42.5063 388.458 63.9861 412.777 88.6983C424.321 100.431 432.13 114.552 439.68 128.782C460.44 167.925 460.357 208.9 450.058 250.411C445.119 270.291 435.884 288.913 424.361 305.873C409.809 327.292 392.663 347.107 370.967 362.363C340.067 384.099 305.895 398.582 267.594 403.31C242.517 406.405 217.495 407.202 192.525 402.799C168.291 398.525 144.567 392.707 122.803 381.001C116.215 377.459 109.371 374.35 102.643 371.049C80.4476 360.175 61.9184 344.906 45.3034 327.198C36.16 317.454 27.577 307.286 21.4596 295.611C14.733 282.776 7.72523 270.165 5.26523 255.344C3.19538 242.906 0.564803 230.683 0.73537 218.005C1.03962 195.41 5.63778 173.871 16.9743 153.887C18.1807 151.758 19.4093 149.623 20.3824 147.391C30.0743 125.123 46.2605 107.287 62.9866 89.8931C82.9051 69.1804 105.434 51.2115 130.069 36.1256C148.199 25.0164 166.781 14.4691 187.39 7.38365C211.593 -0.936877 235.697 -0.597923 260.152 4.35104C272.876 6.92512 285.758 9.44365 297.935 13.6753C308.734 17.4294 318.659 23.5173 328.961 28.572Z" fill="#EAD3B5" fill-opacity="0.35"/>
</svg>
