<svg width="346" height="421" viewBox="0 0 346 421" fill="none" xmlns="http://www.w3.org/2000/svg">
<path fill-rule="evenodd" clip-rule="evenodd" d="M328.961 28.9219C361.592 43.3928 388.458 65.6996 412.777 91.3633C424.321 103.548 432.13 118.213 439.68 132.991C460.44 173.64 460.357 216.193 450.058 259.303C445.119 279.949 435.884 299.287 424.361 316.9C409.809 339.143 392.663 359.722 370.967 375.565C340.067 398.138 305.895 413.179 267.594 418.089C242.517 421.303 217.495 422.131 192.525 417.558C168.291 413.119 144.567 407.077 122.803 394.921C116.215 391.242 109.371 388.014 102.643 384.585C80.4476 373.293 61.9184 357.436 45.3034 339.046C36.16 328.927 27.577 318.367 21.4596 306.243C14.733 292.913 7.72524 279.818 5.26526 264.426C3.19543 251.509 0.564842 238.815 0.735417 225.649C1.03963 202.184 5.63779 179.816 16.9743 159.062C18.1807 156.851 19.4094 154.634 20.3825 152.316C30.0744 129.19 46.2606 110.668 62.9866 92.6041C82.9051 71.0939 105.434 52.4332 130.069 36.7664C148.199 25.2295 166.781 14.2761 187.39 6.91775C211.593 -1.72314 235.697 -1.37114 260.152 3.76838C272.876 6.44156 285.758 9.05707 297.935 13.4517C308.734 17.3503 318.659 23.6726 328.961 28.9219Z" fill="#EAD3B5" fill-opacity="0.35"/>
</svg>
