<svg width="502" height="495" viewBox="0 0 502 495" fill="none" xmlns="http://www.w3.org/2000/svg">
<path fill-rule="evenodd" clip-rule="evenodd" d="M344.242 461.448C305.308 480.607 263.97 489.389 221.663 493.658C201.579 495.683 182.256 492.731 163.037 489.475C110.181 480.509 72.2374 451.808 41.9387 413.684C27.4335 395.421 17.5199 374.233 10.9711 352.18C2.70037 324.329 -2.01482 295.301 1.12458 265.431C5.58996 222.883 19.3898 182.504 45.5311 145.285C62.6468 120.917 81.8501 98.2038 105.837 79.1687C129.117 60.6964 153.422 43.754 181.627 32.6604C190.164 29.3015 198.503 25.413 206.928 21.7617C234.704 9.70526 263.637 3.96598 293.306 1.62579C309.632 0.337363 325.905 -0.15863 341.611 2.58127C358.879 5.59284 376.162 8.198 391.871 16.3751C405.059 23.2322 418.494 29.4432 430.119 38.4521C450.836 54.5081 467.152 73.6285 476.655 97.6298C477.668 100.186 478.669 102.765 479.964 105.186C492.896 129.327 496.541 156.121 499.345 183.085C502.683 215.194 501.396 247.698 495.756 280.052C491.611 303.868 486.585 327.691 476.732 350.891C465.16 378.137 445.634 399.244 421.552 417.44C409.023 426.909 396.419 436.557 382.789 444.383C370.699 451.322 357.142 455.857 344.242 461.448Z" fill="#CEB698" fill-opacity="0.35"/>
</svg>
