<svg width="468" height="542" viewBox="0 0 468 542" fill="none" xmlns="http://www.w3.org/2000/svg">
<g filter="url(#filter0_b_7742_6555)">
<path fill-rule="evenodd" clip-rule="evenodd" d="M185.616 538.646C135.823 545.325 87.2127 539.642 39.2013 528.61C16.4093 523.372 -3.7147 512.917 -23.6113 502.164C-78.3291 472.581 -109.41 426.738 -128.629 373.329C-137.826 347.746 -140.905 320.642 -139.972 293.833C-138.795 259.976 -133.281 226.142 -118.834 194.301C-98.2637 148.943 -68.2459 109.457 -25.8446 78.0578C1.91702 57.5 31.3608 39.5477 64.7006 27.4411C97.0573 15.6932 129.976 6.01786 165.022 4.25775C175.63 3.72368 186.216 2.53063 196.808 1.63165C231.738 -1.35222 265.61 3.07547 299.04 11.5337C317.435 16.1874 335.481 21.6969 351.712 30.5712C369.557 40.3273 387.57 49.6399 401.802 64.5243C413.753 77.0112 426.214 88.8763 435.656 103.159C452.485 128.615 463.353 155.818 464.945 185.88C465.117 189.081 465.265 192.304 465.795 195.462C471.101 226.954 465.234 257.921 458.382 288.763C450.222 325.489 436.839 360.93 418.733 394.585C405.413 419.361 391.122 443.818 371.763 465.788C349.027 491.589 319.821 507.646 286.686 518.791C269.445 524.591 252.057 530.561 234.214 534.135C218.387 537.304 201.835 537.269 185.616 538.646Z" fill="#2B8049" fill-opacity="0.08"/>
</g>
<defs>
<filter id="filter0_b_7742_6555" x="-150.131" y="-9.29883" width="627.98" height="560.809" filterUnits="userSpaceOnUse" color-interpolation-filters="sRGB">
<feFlood flood-opacity="0" result="BackgroundImageFix"/>
<feGaussianBlur in="BackgroundImageFix" stdDeviation="5"/>
<feComposite in2="SourceAlpha" operator="in" result="effect1_backgroundBlur_7742_6555"/>
<feBlend mode="normal" in="SourceGraphic" in2="effect1_backgroundBlur_7742_6555" result="shape"/>
</filter>
</defs>
</svg>
