<svg width="433" height="472" viewBox="0 0 433 472" fill="none" xmlns="http://www.w3.org/2000/svg">
<path fill-rule="evenodd" clip-rule="evenodd" d="M668.186 252.157C667.324 252.895 666.113 253.468 665.667 254.408C664.67 256.495 663.893 258.725 663.314 260.969C658.623 279.255 649.261 295.338 639.545 311.238C625.943 333.494 609.993 354.042 592.389 373.198C575.031 392.084 556.002 409.234 534.937 424.022C522.224 432.952 513.01 436.404 499.002 443.187C469.922 457.263 445.087 458.724 413.155 464.816C380.118 471.123 361.537 467.284 323.965 471.676C264.42 469.613 266.534 468.487 244.714 466.928C221.634 465.279 218.122 464.798 218.122 464.798C215.792 464.017 215.781 464.477 211.098 463.835C209.423 462.893 206.622 462.63 204.783 462.058C178.076 452.436 154.662 439.703 130.428 425.882C110.799 414.685 92.7192 401.273 76.2572 385.904C58.9447 369.757 43.0773 352.3 30.1807 332.143C22.1708 319.628 15.4995 306.608 9.8107 293.001C2.18818 274.769 -1.03397 255.721 1.36616 236.064C4.23367 212.587 24.6737 192.835 44.8826 190.221C57.0552 188.647 68.9164 189.01 80.5605 192.256C92.1086 195.473 103.861 198.261 114.505 204.242C117.498 205.923 121.118 206.458 124.414 207.62C130.979 209.948 137.452 212.452 143.878 215.194C154.16 219.577 164.871 223.141 176.255 224.246C183.187 224.918 190.015 226.014 197.057 225.795C214.419 225.248 229.476 218.938 243.259 208.769C255.584 199.675 265.579 188.374 274.66 176.197C285.797 161.273 296.92 146.339 307.886 131.29C327.895 103.835 350.899 79.2865 377.706 58.353C403.623 38.1175 431.743 21.7503 463.134 11.8093C496.415 1.26672 530.574 -1.94725 565.426 1.65398C583.44 3.51555 600.434 9.09913 617 15.482C637.041 23.2055 652.533 37.1416 663.248 56.1299C677.259 80.9667 684.343 107.716 685.968 136.054C686.967 153.523 686.308 170.967 684.14 188.288C683.232 195.546 680.561 202.578 678.756 209.732C678.018 212.656 676.222 215.563 678.284 218.65C674.919 229.817 671.552 240.987 668.186 252.157Z" fill="#EAD3B5" fill-opacity="0.65"/>
</svg>
