<svg width="14" height="14" viewBox="0 0 12 12" fill="none" xmlns="http://www.w3.org/2000/svg">
<rect width="12" height="12" rx="6" fill="#636363"/>
<path d="M5.356 7.744C5.292 7.744 5.236 7.724 5.188 7.684C5.14 7.636 5.116 7.576 5.116 7.504C5.116 7.44 5.116 7.376 5.116 7.312C5.116 7.248 5.116 7.184 5.116 7.12C5.148 6.808 5.232 6.532 5.368 6.292C5.512 6.044 5.676 5.82 5.86 5.62C6.052 5.412 6.24 5.216 6.424 5.032C6.616 4.848 6.776 4.668 6.904 4.492C7.04 4.308 7.12 4.12 7.144 3.928C7.168 3.696 7.12 3.5 7 3.34C6.888 3.18 6.732 3.06 6.532 2.98C6.34 2.892 6.136 2.848 5.92 2.848C5.544 2.848 5.236 2.94 4.996 3.124C4.756 3.308 4.592 3.604 4.504 4.012C4.48 4.108 4.44 4.18 4.384 4.228C4.328 4.268 4.252 4.288 4.156 4.288H3.136C3.064 4.288 3 4.264 2.944 4.216C2.896 4.16 2.872 4.088 2.872 4C2.88 3.68 2.952 3.372 3.088 3.076C3.232 2.772 3.436 2.5 3.7 2.26C3.972 2.02 4.3 1.832 4.684 1.696C5.068 1.552 5.508 1.48 6.004 1.48C6.548 1.48 7.004 1.552 7.372 1.696C7.748 1.832 8.044 2.012 8.26 2.236C8.484 2.46 8.644 2.704 8.74 2.968C8.836 3.224 8.88 3.476 8.872 3.724C8.856 4.028 8.788 4.3 8.668 4.54C8.548 4.78 8.4 5.004 8.224 5.212C8.048 5.412 7.868 5.612 7.684 5.812C7.5 6.004 7.336 6.2 7.192 6.4C7.056 6.6 6.964 6.812 6.916 7.036C6.9 7.108 6.888 7.18 6.88 7.252C6.872 7.316 6.864 7.38 6.856 7.444C6.824 7.54 6.784 7.616 6.736 7.672C6.688 7.72 6.62 7.744 6.532 7.744H5.356ZM5.32 10C5.24 10 5.172 9.972 5.116 9.916C5.06 9.86 5.032 9.792 5.032 9.712V8.668C5.032 8.58 5.06 8.508 5.116 8.452C5.172 8.396 5.24 8.368 5.32 8.368H6.484C6.572 8.368 6.644 8.396 6.7 8.452C6.756 8.508 6.784 8.58 6.784 8.668V9.712C6.784 9.792 6.756 9.86 6.7 9.916C6.644 9.972 6.572 10 6.484 10H5.32Z" fill="white"/>
</svg>
