<svg width="688" height="895" viewBox="0 0 688 895" fill="none" xmlns="http://www.w3.org/2000/svg">
<path fill-rule="evenodd" clip-rule="evenodd" d="M188.61 426.853C212.68 423.194 234.152 414.495 254.459 403.626C264.099 398.465 271.642 391.46 279.031 384.359C299.349 364.824 306.065 341.527 306.056 316.592C306.046 304.649 302.964 292.862 298.08 281.719C291.913 267.647 283.749 254.147 271.798 242.645C254.777 226.259 234.376 213.566 209.607 205.879C193.39 200.847 176.83 197.127 159.445 196.369C142.572 195.635 125.785 195.844 109.332 199.655C104.351 200.808 99.2717 201.681 94.238 202.679C77.635 205.961 62.7508 212.219 48.7406 220.114C41.0307 224.457 33.6246 229.115 27.6143 234.951C21.0057 241.368 14.2467 247.619 10.1561 255.721C6.71976 262.519 2.94473 269.122 0.963153 276.349C-2.56822 289.229 -3.06064 302.07 1.19889 314.907C1.65177 316.275 2.11861 317.648 2.39889 319.044C5.18383 332.964 13.0336 345.213 21.3166 357.281C31.1807 371.653 43.2395 384.805 57.1798 396.595C67.438 405.275 78.0907 413.695 90.6679 420.412C105.438 428.3 121.574 431.255 138.705 431.635C147.619 431.833 156.628 432.084 165.45 431.268C173.275 430.545 180.902 428.381 188.61 426.853Z" fill="#EAD3B5" fill-opacity="0.6"/>
<path fill-rule="evenodd" clip-rule="evenodd" d="M437.3 620.758C436.183 620.853 434.874 620.676 433.981 621.098C431.994 622.032 430.107 623.164 428.372 624.396C414.256 634.449 397.577 640.873 380.713 647.011C357.105 655.602 332.545 661.966 307.422 666.638C282.651 671.242 257.496 673.915 232.014 674.069C216.631 674.166 207.182 672.218 191.953 670.282C160.341 666.26 139.289 655.768 109.849 645.093C79.3873 634.051 66.4126 622.906 33.3353 608.492C-14.0077 579.616 -11.6517 579.84 -28.5479 568.723C-46.4206 556.963 -49.0104 555.019 -49.0104 555.019C-50.4689 553.422 -50.7369 553.724 -54.1898 551.133C-55.0235 549.73 -57.1579 548.26 -58.334 547.029C-74.6722 528.267 -86.5768 508.947 -98.537 488.521C-108.224 471.974 -115.401 454.663 -120.16 436.792C-125.172 418.008 -128.271 399.016 -127.429 379.591C-126.909 367.53 -125.014 355.749 -121.988 344.029C-117.934 328.327 -109.836 314.111 -96.8164 302.084C-81.2649 287.721 -53.4959 283.96 -35.563 291.546C-24.7614 296.115 -15.3042 301.835 -7.64583 309.38C-0.0504368 316.863 7.95364 324.153 13.2572 333.065C14.7492 335.57 17.3964 337.599 19.4277 339.898C23.4648 344.484 27.3276 349.147 31.0191 353.947C36.9272 361.623 43.6451 368.951 52.297 374.946C57.5646 378.596 62.5102 382.481 68.3694 385.587C82.8197 393.239 98.6372 395.975 115.588 395.545C130.747 395.16 145.251 392.224 159.503 388.28C176.976 383.45 194.443 378.607 211.846 373.615C243.6 364.509 276.158 358.728 309.778 357.118C342.28 355.565 374.4 357.613 405.566 365.466C438.61 373.789 468.245 387.416 494.607 405.916C508.233 415.478 518.932 427.056 528.834 438.971C540.811 453.387 545.586 469.853 543.625 487.489C541.057 510.555 531.77 531.701 517.142 551.387C508.122 563.521 497.766 574.874 486.249 585.447C481.424 589.877 475.29 593.342 469.792 597.289C467.545 598.903 464.446 600.016 464.388 603.031C455.36 608.938 446.33 614.848 437.3 620.758Z" fill="#2F804A" fill-opacity="0.55"/>
</svg>
