<svg width="41" height="40" viewBox="0 0 41 40" fill="none" xmlns="http://www.w3.org/2000/svg">
<path fill-rule="evenodd" clip-rule="evenodd" d="M20.0118 7.15465C20.6627 7.80554 20.6627 8.8608 20.0118 9.51169L11.1903 18.3332H33.8333C34.7538 18.3332 35.5 19.0793 35.5 19.9998C35.5 20.9203 34.7538 21.6665 33.8333 21.6665H11.1903L20.0118 30.488C20.6627 31.1388 20.6627 32.1942 20.0118 32.845C19.361 33.4958 18.3057 33.4958 17.6548 32.845L5.98815 21.1783C5.6756 20.8658 5.5 20.4418 5.5 19.9998C5.5 19.5578 5.6756 19.1338 5.98815 18.8213L17.6548 7.15465C18.3057 6.50379 19.361 6.50379 20.0118 7.15465Z" fill="#2F804A"/>
</svg>
