<svg width="410" height="414" viewBox="0 0 410 414" fill="none" xmlns="http://www.w3.org/2000/svg">
<path fill-rule="evenodd" clip-rule="evenodd" d="M-151.917 191.658C-151.28 192.35 -150.33 192.946 -150.064 193.754C-149.467 195.55 -149.072 197.436 -148.845 199.313C-147.012 214.597 -141.009 228.618 -134.69 242.532C-125.841 262.007 -114.827 280.363 -102.267 297.778C-89.881 314.947 -75.895 330.901 -59.9311 345.171C-50.2964 353.788 -42.9669 357.595 -32 364.622C-9.23285 379.205 11.4236 383.132 37.5 391.584C64.4782 400.331 80.5 399.287 111.5 406.991C161.668 411.913 160.024 410.77 178.5 411.925C198.043 413.147 201.043 413.147 201.043 413.147C203.087 412.775 203.043 413.147 207.043 413.147C208.556 412.571 210.936 412.669 212.543 412.411C236.043 407.596 257.139 399.906 279.049 391.427C296.795 384.558 313.496 375.728 329.066 365.141C345.438 354.018 360.749 341.678 373.879 326.83C382.034 317.611 389.124 307.836 395.458 297.478C403.944 283.6 408.835 268.576 409.081 252.44C409.373 233.166 394.503 214.955 377.858 210.609C367.832 207.992 357.844 206.973 347.707 208.305C337.654 209.625 327.479 210.576 317.866 214.228C315.163 215.254 312.067 215.285 309.169 215.859C303.397 217.012 297.681 218.318 291.978 219.821C282.852 222.222 273.462 223.915 263.789 223.547C257.899 223.324 252.047 223.453 246.167 222.497C231.672 220.135 219.772 213.373 209.382 203.638C200.092 194.932 193.009 184.701 186.794 173.863C179.17 160.581 171.559 147.292 164.092 133.928C150.469 109.546 134 87.1794 113.927 67.311C94.5194 48.1046 72.82 31.7779 47.6403 20.2781C20.9448 8.08355 -7.32992 1.70912 -36.9678 0.76103C-52.2873 0.271087 -67.1783 2.8994 -81.8033 6.22032C-99.4954 10.2394 -114.087 19.7779 -125.254 33.9243C-139.856 52.4284 -148.87 73.243 -153.488 95.9444C-156.333 109.939 -157.785 124.097 -157.957 138.323C-158.03 144.284 -156.598 150.257 -155.906 156.233C-155.624 158.676 -154.451 161.222 -156.535 163.486C-154.996 172.875 -153.457 182.267 -151.917 191.658Z" fill="#EAD3B5" fill-opacity="0.35"/>
</svg>
