<svg width="224" height="164" viewBox="0 0 224 164" fill="none" xmlns="http://www.w3.org/2000/svg">
<path fill-rule="evenodd" clip-rule="evenodd" d="M170.858 143.733C185.813 134.868 197.531 122.542 207.825 108.738C212.712 102.184 215.65 94.6445 218.457 87.065C226.172 66.2163 223.698 45.6395 216.251 25.3777C212.681 15.6743 207.109 6.84926 200.528 -1.0106C192.217 -10.9369 182.747 -19.9093 171.347 -26.3314C155.11 -35.4816 137.722 -40.8021 118.916 -40.986C106.603 -41.1062 94.4532 -40.0754 82.6371 -36.4354C71.1699 -32.9022 60.0409 -28.6228 50.2096 -21.4981C47.2334 -19.342 44.1077 -17.3889 41.0497 -15.346C30.9605 -8.61478 22.9054 0.114802 15.9211 9.95989C12.0775 15.3773 8.53021 20.9756 6.2649 27.1896C3.77388 34.0216 1.13349 40.7566 0.824086 48.342C0.561789 54.7078 0.0155607 60.9981 0.851167 67.3564C2.34051 78.6883 5.84397 89.2442 12.5142 98.6339C13.2242 99.6343 13.9453 100.636 14.5485 101.702C20.559 112.333 29.4474 120.366 38.5705 128.146C49.4349 137.41 61.3988 145.147 74.2102 151.316C83.6391 155.859 93.2533 160.094 103.642 162.474C115.843 165.269 127.481 163.72 139.015 159.835C145.017 157.814 151.098 155.813 156.736 152.99C161.736 150.487 166.175 146.861 170.858 143.733Z" fill="#2B8049" fill-opacity="0.18"/>
</svg>
